<?xml version="1.0" encoding="UTF-8"?>
<!DOCTYPE svg PUBLIC "-//W3C//DTD SVG 1.1//EN" "http://www.w3.org/Graphics/SVG/1.1/DTD/svg11.dtd">
<svg xmlns="http://www.w3.org/2000/svg" version="1.1" width="512px" height="512px" style="shape-rendering:geometricPrecision; text-rendering:geometricPrecision; image-rendering:optimizeQuality; fill-rule:evenodd; clip-rule:evenodd" xmlns:xlink="http://www.w3.org/1999/xlink">
<g><path style="opacity:1" fill="#433f43" d="M 365.5,-0.5 C 367.167,-0.5 368.833,-0.5 370.5,-0.5C 397.983,32.0535 401.816,67.3868 382,105.5C 375.849,116.155 367.349,124.155 356.5,129.5C 355.5,129.5 354.5,129.5 353.5,129.5C 346.138,129.635 338.804,129.302 331.5,128.5C 331.082,127.778 330.416,127.278 329.5,127C 343.657,119.56 353.823,108.393 360,93.5C 369.972,69.462 369.972,45.462 360,21.5C 357.64,16.7596 354.807,12.4263 351.5,8.5C 356.506,5.99872 361.173,2.99872 365.5,-0.5 Z"/></g>
<g><path style="opacity:0.995" fill="#554e56" d="M 351.5,8.5 C 354.807,12.4263 357.64,16.7596 360,21.5C 369.972,45.462 369.972,69.462 360,93.5C 353.823,108.393 343.657,119.56 329.5,127C 330.416,127.278 331.082,127.778 331.5,128.5C 330.167,128.5 328.833,128.5 327.5,128.5C 295.698,126.305 264.698,119.805 234.5,109C 225.916,105.127 217.749,100.627 210,95.5C 208.395,96.1007 207.062,97.1007 206,98.5C 200.244,108.586 192.744,117.086 183.5,124C 175.305,128.049 166.639,129.882 157.5,129.5C 157.101,109.134 157.601,88.8004 159,68.5C 163.913,40.9457 180.413,26.779 208.5,26C 220.461,10.7842 236.127,4.78419 255.5,8C 275.063,11.3719 294.73,13.8719 314.5,15.5C 327.3,15.549 339.634,13.2157 351.5,8.5 Z"/></g>
<g><path style="opacity:0.999" fill="#fdd1a3" d="M 327.5,128.5 C 331.167,177.668 312.167,215.168 270.5,241C 258.655,247.761 245.988,251.927 232.5,253.5C 224.048,250.691 216.215,246.691 209,241.5C 208.601,241.728 208.435,242.062 208.5,242.5C 187.287,228.283 171.954,209.283 162.5,185.5C 160.484,178.617 158.984,171.617 158,164.5C 157.5,152.838 157.333,141.171 157.5,129.5C 166.639,129.882 175.305,128.049 183.5,124C 192.744,117.086 200.244,108.586 206,98.5C 207.062,97.1007 208.395,96.1007 210,95.5C 217.749,100.627 225.916,105.127 234.5,109C 264.698,119.805 295.698,126.305 327.5,128.5 Z"/></g>
<g><path style="opacity:1" fill="#febd86" d="M 327.5,128.5 C 328.833,128.5 330.167,128.5 331.5,128.5C 338.804,129.302 346.138,129.635 353.5,129.5C 353.667,141.171 353.5,152.838 353,164.5C 352.199,171.672 350.699,178.672 348.5,185.5C 339.074,209.26 323.741,228.26 302.5,242.5C 285.877,253.651 267.544,258.818 247.5,258C 242.157,257.253 237.157,255.753 232.5,253.5C 245.988,251.927 258.655,247.761 270.5,241C 312.167,215.168 331.167,177.668 327.5,128.5 Z"/></g>
<g><path style="opacity:0.983" fill="#f6a96c" d="M 157.5,129.5 C 157.333,141.171 157.5,152.838 158,164.5C 158.984,171.617 160.484,178.617 162.5,185.5C 137.12,185.29 124.953,172.623 126,147.5C 128.068,139.099 133.234,133.599 141.5,131C 146.754,129.729 152.087,129.229 157.5,129.5 Z"/></g>
<g><path style="opacity:0.985" fill="#f6a96c" d="M 353.5,129.5 C 354.5,129.5 355.5,129.5 356.5,129.5C 377.688,129.185 387.188,139.518 385,160.5C 379.302,178 367.135,186.334 348.5,185.5C 350.699,178.672 352.199,171.672 353,164.5C 353.5,152.838 353.667,141.171 353.5,129.5 Z"/></g>
<g><path style="opacity:1" fill="#454044" d="M 211.5,148.5 C 215.426,148.047 218.592,149.38 221,152.5C 221.667,157.833 221.667,163.167 221,168.5C 218.487,172.212 214.987,173.378 210.5,172C 208.951,170.786 207.785,169.286 207,167.5C 206.333,162.833 206.333,158.167 207,153.5C 208.025,151.313 209.525,149.646 211.5,148.5 Z"/></g>
<g><path style="opacity:1" fill="#454044" d="M 293.5,148.5 C 298.28,147.641 301.78,149.308 304,153.5C 304.667,158.167 304.667,162.833 304,167.5C 301.928,172.143 298.428,173.643 293.5,172C 291.667,171.5 290.5,170.333 290,168.5C 289.333,163.167 289.333,157.833 290,152.5C 291.376,151.295 292.542,149.962 293.5,148.5 Z"/></g>
<g><path style="opacity:1" fill="#f6aa6d" d="M 240.5,202.5 C 245.293,203.643 250.126,204.643 255,205.5C 260.238,204.63 265.404,203.797 270.5,203C 275.575,206.028 276.741,210.194 274,215.5C 261.638,223.444 249.305,223.444 237,215.5C 234.319,210.055 235.485,205.722 240.5,202.5 Z"/></g>
<g><path style="opacity:1" fill="#f6a96c" d="M 232.5,253.5 C 237.157,255.753 242.157,257.253 247.5,258C 267.544,258.818 285.877,253.651 302.5,242.5C 302.5,255.167 302.5,267.833 302.5,280.5C 295.139,286.521 287.472,292.187 279.5,297.5C 278.818,290.099 278.152,282.599 277.5,275C 259.789,279.387 242.456,278.054 225.5,271C 219.689,268.006 214.022,264.839 208.5,261.5C 208.5,255.167 208.5,248.833 208.5,242.5C 208.435,242.062 208.601,241.728 209,241.5C 216.215,246.691 224.048,250.691 232.5,253.5 Z"/></g>
<g><path style="opacity:0.999" fill="#febd86" d="M 208.5,261.5 C 214.022,264.839 219.689,268.006 225.5,271C 242.456,278.054 259.789,279.387 277.5,275C 278.152,282.599 278.818,290.099 279.5,297.5C 279.5,297.833 279.5,298.167 279.5,298.5C 271.528,303.813 263.861,309.479 256.5,315.5C 255.833,315.5 255.167,315.5 254.5,315.5C 239.167,303.833 223.833,292.167 208.5,280.5C 208.5,274.167 208.5,267.833 208.5,261.5 Z"/></g>
<g><path style="opacity:0.996" fill="#f9f5f5" d="M 208.5,280.5 C 223.833,292.167 239.167,303.833 254.5,315.5C 240.846,323.663 226.846,331.33 212.5,338.5C 210.543,337.046 208.71,335.38 207,333.5C 195.636,318.647 184.136,303.98 172.5,289.5C 184.411,286.513 196.411,283.513 208.5,280.5 Z"/></g>
<g><path style="opacity:1" fill="#dedbed" d="M 302.5,280.5 C 314.649,283.259 326.649,286.259 338.5,289.5C 333.833,295.5 329.167,301.5 324.5,307.5C 323.833,308.167 323.167,308.833 322.5,309.5C 308.45,305.07 294.117,301.404 279.5,298.5C 279.5,298.167 279.5,297.833 279.5,297.5C 287.472,292.187 295.139,286.521 302.5,280.5 Z"/></g>
<g><path style="opacity:0.997" fill="#554f57" d="M 172.5,289.5 C 184.136,303.98 195.636,318.647 207,333.5C 208.71,335.38 210.543,337.046 212.5,338.5C 226.846,331.33 240.846,323.663 254.5,315.5C 255.167,315.5 255.833,315.5 256.5,315.5C 270.154,323.663 284.154,331.33 298.5,338.5C 307.203,329.435 315.203,319.768 322.5,309.5C 323.167,308.833 323.833,308.167 324.5,307.5C 324.791,308.649 325.624,309.316 327,309.5C 337.775,312.268 348.609,314.768 359.5,317C 372.628,321.795 383.128,329.962 391,341.5C 395.947,349.059 400.114,357.059 403.5,365.5C 414.146,366.499 424.813,366.832 435.5,366.5C 433.393,367.468 431.059,367.802 428.5,367.5C 310.665,367.833 192.999,367.5 75.5,366.5C 80.4177,343.491 91.4177,323.991 108.5,308C 112.387,304.889 116.72,302.556 121.5,301C 138.48,297.005 155.48,293.171 172.5,289.5 Z"/></g>
<g><path style="opacity:1" fill="#433f43" d="M 338.5,289.5 C 355.527,293.139 372.527,296.973 389.5,301C 403.535,307.7 414.369,317.867 422,331.5C 428.573,342.39 433.073,354.056 435.5,366.5C 424.813,366.832 414.146,366.499 403.5,365.5C 400.114,357.059 395.947,349.059 391,341.5C 383.128,329.962 372.628,321.795 359.5,317C 348.609,314.768 337.775,312.268 327,309.5C 325.624,309.316 324.791,308.649 324.5,307.5C 329.167,301.5 333.833,295.5 338.5,289.5 Z"/></g>
<g><path style="opacity:1" fill="#f8f5f5" d="M 279.5,298.5 C 294.117,301.404 308.45,305.07 322.5,309.5C 315.203,319.768 307.203,329.435 298.5,338.5C 284.154,331.33 270.154,323.663 256.5,315.5C 263.861,309.479 271.528,303.813 279.5,298.5 Z"/></g>
<g><path style="opacity:0.999" fill="#98e5fb" d="M 75.5,366.5 C 192.999,367.5 310.665,367.833 428.5,367.5C 438.325,370.735 444.825,377.402 448,387.5C 448.167,404.333 448.333,421.167 448.5,438C 448.634,456.542 448.134,475.042 447,493.5C 443.489,502.848 436.989,508.848 427.5,511.5C 303.833,511.5 180.167,511.5 56.5,511.5C 46.7444,508.241 40.5777,501.575 38,491.5C 37.3333,456.5 37.3333,421.5 38,386.5C 41.273,376.226 48.1063,369.726 58.5,367C 64.1569,366.501 69.8236,366.334 75.5,366.5 Z"/></g>
<g><path style="opacity:1" fill="#63dbfb" d="M 435.5,366.5 C 448.841,363.952 460.008,367.619 469,377.5C 470.608,380.382 471.941,383.382 473,386.5C 473.667,421.5 473.667,456.5 473,491.5C 470.422,501.575 464.256,508.241 454.5,511.5C 445.5,511.5 436.5,511.5 427.5,511.5C 436.989,508.848 443.489,502.848 447,493.5C 448.134,475.042 448.634,456.542 448.5,438C 448.333,421.167 448.167,404.333 448,387.5C 444.825,377.402 438.325,370.735 428.5,367.5C 431.059,367.802 433.393,367.468 435.5,366.5 Z"/></g>
<g><path style="opacity:1" fill="#434044" d="M 331.5,436.5 C 331.217,435.711 330.717,435.044 330,434.5C 329.5,446.495 329.333,458.495 329.5,470.5C 328.874,474.74 326.374,476.74 322,476.5C 318.279,476.779 315.945,475.112 315,471.5C 314.333,449.833 314.333,428.167 315,406.5C 317.665,401.566 321.498,400.399 326.5,403C 336.333,416.833 346.167,430.667 356,444.5C 356.333,431.833 356.667,419.167 357,406.5C 361.171,400.271 365.837,399.938 371,405.5C 371.667,427.5 371.667,449.5 371,471.5C 367.31,476.838 362.81,477.672 357.5,474C 349.003,461.344 340.336,448.844 331.5,436.5 Z"/></g>
<g><path style="opacity:1" fill="#444145" d="M 95.5,403.5 C 107.502,401.56 118.002,404.56 127,412.5C 128.167,420.667 124.667,424.167 116.5,423C 102.04,415.042 91.2068,418.542 84,433.5C 82.2141,445.761 87.0474,454.261 98.5,459C 101.5,459.667 104.5,459.667 107.5,459C 112.379,456.73 117.045,454.23 121.5,451.5C 128.649,452.797 130.815,456.797 128,463.5C 119.24,473.072 108.406,476.572 95.5,474C 74.7182,466.866 65.8848,452.366 69,430.5C 73.3506,416.984 82.1839,407.984 95.5,403.5 Z"/></g>
<g><path style="opacity:1" fill="#433f43" d="M 156.5,403.5 C 158.857,403.337 161.19,403.503 163.5,404C 165.333,404.5 166.5,405.667 167,407.5C 167.5,424.83 167.667,442.163 167.5,459.5C 172.511,459.334 177.511,459.501 182.5,460C 188.84,464.084 189.173,468.75 183.5,474C 174.5,474.667 165.5,474.667 156.5,474C 155.667,473.167 154.833,472.333 154,471.5C 152.356,450.256 152.023,428.922 153,407.5C 154.376,406.295 155.542,404.962 156.5,403.5 Z"/></g>
<g><path style="opacity:1" fill="#433f43" d="M 215.5,403.5 C 219.426,403.047 222.592,404.38 225,407.5C 225.667,428.5 225.667,449.5 225,470.5C 223.982,473.683 221.815,475.016 218.5,474.5C 214.569,474.953 212.069,473.286 211,469.5C 210.333,449.167 210.333,428.833 211,408.5C 212.025,406.313 213.525,404.646 215.5,403.5 Z"/></g>
<g><path style="opacity:1" fill="#444246" d="M 400.5,403.5 C 413.932,403.037 427.265,403.537 440.5,405C 443.649,409.962 442.982,414.295 438.5,418C 434.848,418.499 431.182,418.665 427.5,418.5C 427.667,435.503 427.5,452.503 427,469.5C 423.987,474.535 419.82,475.702 414.5,473C 413.299,472.097 412.465,470.931 412,469.5C 411.5,452.503 411.333,435.503 411.5,418.5C 401.411,421.213 396.577,417.547 397,407.5C 398.376,406.295 399.542,404.962 400.5,403.5 Z"/></g>
<g><path style="opacity:1" fill="#444246" d="M 254.5,403.5 C 264.172,403.334 273.839,403.5 283.5,404C 287.861,406.226 289.361,409.726 288,414.5C 287.07,416.552 285.57,418.052 283.5,419C 277.509,419.499 271.509,419.666 265.5,419.5C 265.5,423.5 265.5,427.5 265.5,431.5C 270.844,431.334 276.177,431.501 281.5,432C 286.689,434.913 287.856,439.08 285,444.5C 284.25,445.126 283.416,445.626 282.5,446C 276.843,446.499 271.176,446.666 265.5,446.5C 265.5,450.833 265.5,455.167 265.5,459.5C 271.509,459.334 277.509,459.501 283.5,460C 289.759,464.167 290.092,468.833 284.5,474C 274.167,474.667 263.833,474.667 253.5,474C 252.667,473.167 251.833,472.333 251,471.5C 249.357,450.589 249.023,429.589 250,408.5C 251.707,406.963 253.207,405.296 254.5,403.5 Z"/></g>
<g><path style="opacity:1" fill="#78a8b7" d="M 331.5,436.5 C 330.833,447.833 330.167,459.167 329.5,470.5C 329.333,458.495 329.5,446.495 330,434.5C 330.717,435.044 331.217,435.711 331.5,436.5 Z"/></g>
</svg>
