<?xml version="1.0" encoding="UTF-8"?>
<!DOCTYPE svg PUBLIC "-//W3C//DTD SVG 1.1//EN" "http://www.w3.org/Graphics/SVG/1.1/DTD/svg11.dtd">
<svg xmlns="http://www.w3.org/2000/svg" version="1.1" width="512px" height="512px" style="shape-rendering:geometricPrecision; text-rendering:geometricPrecision; image-rendering:optimizeQuality; fill-rule:evenodd; clip-rule:evenodd" xmlns:xlink="http://www.w3.org/1999/xlink">
<g><path style="opacity:0.995" fill="#92563a" d="M 175.5,184.5 C 164.865,183.596 154.198,183.263 143.5,183.5C 135.16,183.666 126.827,183.5 118.5,183C 143.039,179.128 158.872,165.294 166,141.5C 167.471,131.207 167.804,120.873 167,110.5C 156.728,97.6091 146.228,84.9425 135.5,72.5C 129.677,79.1562 123.343,85.3229 116.5,91C 109.924,95.8728 103.09,100.373 96,104.5C 95.5007,109.489 95.3341,114.489 95.5,119.5C 90.1667,119.5 84.8333,119.5 79.5,119.5C 79.8134,116.753 79.48,114.086 78.5,111.5C 71.4841,114.537 64.1508,116.371 56.5,117C 53.0346,142.401 62.0346,162.067 83.5,176C 89.5267,179.181 95.86,181.514 102.5,183C 94.8406,183.5 87.1739,183.666 79.5,183.5C 69.1613,183.334 58.828,183.5 48.5,184C 45.3531,184.881 42.3531,186.047 39.5,187.5C 39.3333,149.499 39.5,111.499 40,73.5C 49.1289,39.5167 71.2955,22.85 106.5,23.5C 137.677,22.3341 159.51,36.0008 172,64.5C 173.156,68.1228 174.156,71.7894 175,75.5C 175.5,111.832 175.667,148.165 175.5,184.5 Z"/></g>
<g><path style="opacity:0.995" fill="#f98501" d="M 311.5,102.5 C 303.427,89.3586 295.093,76.3586 286.5,63.5C 257.602,75.7607 228.936,75.4274 200.5,62.5C 194.24,58.4961 190.907,52.6627 190.5,45C 191.095,34.797 196.095,27.797 205.5,24C 232.833,23.3333 260.167,23.3333 287.5,24C 300,27.1667 307.833,35 311,47.5C 311.5,65.8303 311.667,84.1636 311.5,102.5 Z"/></g>
<g><path style="opacity:0.995" fill="#3f4e65" d="M 455.5,76.5 C 455.66,78.1992 455.494,79.8659 455,81.5C 454.25,80.8742 453.416,80.3742 452.5,80C 417.5,79.3333 382.5,79.3333 347.5,80C 346.099,80.4101 344.766,80.9101 343.5,81.5C 343.333,70.1618 343.5,58.8284 344,47.5C 347.167,35 355,27.1667 367.5,24C 388.833,23.3333 410.167,23.3333 431.5,24C 444,27.1667 451.833,35 455,47.5C 455.5,57.1609 455.666,66.8276 455.5,76.5 Z"/></g>
<g><path style="opacity:0.995" fill="#fec8a2" d="M 200.5,62.5 C 228.936,75.4274 257.602,75.7607 286.5,63.5C 295.093,76.3586 303.427,89.3586 311.5,102.5C 311.667,114.505 311.5,126.505 311,138.5C 305.319,162.68 290.486,177.68 266.5,183.5C 259.167,183.5 251.833,183.5 244.5,183.5C 220.488,177.654 205.654,162.654 200,138.5C 199.186,113.124 199.352,87.7908 200.5,62.5 Z"/></g>
<g><path style="opacity:1" fill="#fdc8a2" d="M 143.5,183.5 C 134.167,202.167 124.833,220.833 115.5,239.5C 112.833,239.5 110.167,239.5 107.5,239.5C 98.1667,220.833 88.8333,202.167 79.5,183.5C 87.1739,183.666 94.8406,183.5 102.5,183C 95.86,181.514 89.5267,179.181 83.5,176C 62.0346,162.067 53.0346,142.401 56.5,117C 64.1508,116.371 71.4841,114.537 78.5,111.5C 79.48,114.086 79.8134,116.753 79.5,119.5C 84.8333,119.5 90.1667,119.5 95.5,119.5C 95.3341,114.489 95.5007,109.489 96,104.5C 103.09,100.373 109.924,95.8728 116.5,91C 123.343,85.3229 129.677,79.1562 135.5,72.5C 146.228,84.9425 156.728,97.6091 167,110.5C 167.804,120.873 167.471,131.207 166,141.5C 158.872,165.294 143.039,179.128 118.5,183C 126.827,183.5 135.16,183.666 143.5,183.5 Z"/></g>
<g><path style="opacity:0.996" fill="#4d5e78" d="M 455.5,76.5 C 456.302,77.9516 456.802,79.6183 457,81.5C 463.127,86.8393 465.127,93.506 463,101.5C 461.726,104.936 459.559,107.603 456.5,109.5C 448.309,111.328 439.976,111.994 431.5,111.5C 431.167,111.5 430.833,111.5 430.5,111.5C 420.096,107.941 409.263,106.274 398,106.5C 383.523,108.242 369.023,109.909 354.5,111.5C 350.607,111.702 346.94,111.035 343.5,109.5C 337.767,106.713 335.1,102.046 335.5,95.5C 335.1,88.954 337.767,84.2873 343.5,81.5C 344.766,80.9101 346.099,80.4101 347.5,80C 382.5,79.3333 417.5,79.3333 452.5,80C 453.416,80.3742 454.25,80.8742 455,81.5C 455.494,79.8659 455.66,78.1992 455.5,76.5 Z"/></g>
<g><path style="opacity:1" fill="#915639" d="M 223.5,95.5 C 228.833,95.5 234.167,95.5 239.5,95.5C 239.5,100.833 239.5,106.167 239.5,111.5C 234.167,111.5 228.833,111.5 223.5,111.5C 223.5,106.167 223.5,100.833 223.5,95.5 Z"/></g>
<g><path style="opacity:1" fill="#915639" d="M 271.5,95.5 C 276.833,95.5 282.167,95.5 287.5,95.5C 287.5,100.833 287.5,106.167 287.5,111.5C 282.167,111.5 276.833,111.5 271.5,111.5C 271.5,106.167 271.5,100.833 271.5,95.5 Z"/></g>
<g><path style="opacity:1" fill="#92563a" d="M 127.5,103.5 C 132.833,103.5 138.167,103.5 143.5,103.5C 143.5,108.833 143.5,114.167 143.5,119.5C 138.167,119.5 132.833,119.5 127.5,119.5C 127.5,114.167 127.5,108.833 127.5,103.5 Z"/></g>
<g><path style="opacity:0.992" fill="#fdc8a2" d="M 430.5,111.5 C 425.5,111.5 420.5,111.5 415.5,111.5C 415.5,116.833 415.5,122.167 415.5,127.5C 420.833,127.5 426.167,127.5 431.5,127.5C 431.5,122.167 431.5,116.833 431.5,111.5C 439.976,111.994 448.309,111.328 456.5,109.5C 456.792,122.202 456.292,134.869 455,147.5C 448.884,171.117 434.051,185.783 410.5,191.5C 403.5,191.5 396.5,191.5 389.5,191.5C 365.185,185.351 350.019,170.018 344,145.5C 343.5,133.505 343.333,121.505 343.5,109.5C 346.94,111.035 350.607,111.702 354.5,111.5C 369.023,109.909 383.523,108.242 398,106.5C 409.263,106.274 420.096,107.941 430.5,111.5 Z"/></g>
<g><path style="opacity:1" fill="#915639" d="M 367.5,111.5 C 372.833,111.5 378.167,111.5 383.5,111.5C 383.5,116.833 383.5,122.167 383.5,127.5C 378.167,127.5 372.833,127.5 367.5,127.5C 367.5,122.167 367.5,116.833 367.5,111.5 Z"/></g>
<g><path style="opacity:1" fill="#915639" d="M 430.5,111.5 C 430.833,111.5 431.167,111.5 431.5,111.5C 431.5,116.833 431.5,122.167 431.5,127.5C 426.167,127.5 420.833,127.5 415.5,127.5C 415.5,122.167 415.5,116.833 415.5,111.5C 420.5,111.5 425.5,111.5 430.5,111.5 Z"/></g>
<g><path style="opacity:1" fill="#f7ad7c" d="M 231.5,127.5 C 236.875,127.172 242.208,127.505 247.5,128.5C 249.68,135.254 254.013,137.087 260.5,134C 261.966,132.448 262.966,130.614 263.5,128.5C 268.792,127.505 274.125,127.172 279.5,127.5C 277.713,142.286 269.38,150.286 254.5,151.5C 240.723,149.39 233.057,141.39 231.5,127.5 Z"/></g>
<g><path style="opacity:1" fill="#f7ad7c" d="M 87.5,135.5 C 92.8333,135.5 98.1667,135.5 103.5,135.5C 105.076,142.955 109.41,145.122 116.5,142C 118.451,140.266 119.451,138.099 119.5,135.5C 124.833,135.5 130.167,135.5 135.5,135.5C 134.436,150.73 126.27,158.73 111,159.5C 96.9672,157.633 89.1339,149.633 87.5,135.5 Z"/></g>
<g><path style="opacity:1" fill="#f7ad7c" d="M 375.5,143.5 C 380.875,143.172 386.208,143.505 391.5,144.5C 393.68,151.254 398.013,153.087 404.5,150C 405.966,148.448 406.966,146.614 407.5,144.5C 412.792,143.505 418.125,143.172 423.5,143.5C 421.713,158.286 413.38,166.286 398.5,167.5C 384.723,165.39 377.057,157.39 375.5,143.5 Z"/></g>
<g><path style="opacity:0.997" fill="#f49898" d="M 79.5,183.5 C 88.8333,202.167 98.1667,220.833 107.5,239.5C 92.8333,239.5 78.1667,239.5 63.5,239.5C 63.5,252.833 63.5,266.167 63.5,279.5C 51.4439,268.997 47.4439,255.997 51.5,240.5C 42.1904,239.502 32.8571,239.168 23.5,239.5C 23.3335,228.828 23.5002,218.161 24,207.5C 26.4481,198.572 31.6147,191.905 39.5,187.5C 42.3531,186.047 45.3531,184.881 48.5,184C 58.828,183.5 69.1613,183.334 79.5,183.5 Z"/></g>
<g><path style="opacity:0.999" fill="#f49797" d="M 143.5,183.5 C 154.198,183.263 164.865,183.596 175.5,184.5C 178.221,184.963 180.888,185.629 183.5,186.5C 176.155,192.151 170.988,199.484 168,208.5C 167.5,218.828 167.334,229.161 167.5,239.5C 150.167,239.5 132.833,239.5 115.5,239.5C 124.833,220.833 134.167,202.167 143.5,183.5 Z"/></g>
<g><path style="opacity:0.999" fill="#cececc" d="M 239.5,183.5 C 242.663,191.824 245.33,200.324 247.5,209C 245.988,225.489 244.655,241.989 243.5,258.5C 239.381,257.903 235.381,256.903 231.5,255.5C 223.421,253.029 215.421,250.363 207.5,247.5C 207.5,239.5 207.5,231.5 207.5,223.5C 202.167,223.5 196.833,223.5 191.5,223.5C 191.5,231.5 191.5,239.5 191.5,247.5C 183.5,247.5 175.5,247.5 167.5,247.5C 167.5,244.833 167.5,242.167 167.5,239.5C 167.334,229.161 167.5,218.828 168,208.5C 170.988,199.484 176.155,192.151 183.5,186.5C 186.179,185.774 188.846,184.941 191.5,184C 207.497,183.5 223.497,183.333 239.5,183.5 Z"/></g>
<g><path style="opacity:1" fill="#378fd8" d="M 239.5,183.5 C 241.167,183.5 242.833,183.5 244.5,183.5C 251.833,183.5 259.167,183.5 266.5,183.5C 268.167,183.5 269.833,183.5 271.5,183.5C 268.337,191.824 265.67,200.324 263.5,209C 265.012,225.489 266.345,241.989 267.5,258.5C 263.651,259.95 259.651,261.283 255.5,262.5C 251.349,261.283 247.349,259.95 243.5,258.5C 244.655,241.989 245.988,225.489 247.5,209C 245.33,200.324 242.663,191.824 239.5,183.5 Z"/></g>
<g><path style="opacity:0.999" fill="#cdcdcb" d="M 271.5,183.5 C 287.503,183.333 303.503,183.5 319.5,184C 325.474,185.315 330.474,188.148 334.5,192.5C 338.378,197.229 341.212,202.562 343,208.5C 343.5,216.159 343.666,223.826 343.5,231.5C 343.5,236.833 343.5,242.167 343.5,247.5C 335.5,247.5 327.5,247.5 319.5,247.5C 319.5,239.5 319.5,231.5 319.5,223.5C 314.167,223.5 308.833,223.5 303.5,223.5C 303.5,231.5 303.5,239.5 303.5,247.5C 295.421,249.971 287.421,252.637 279.5,255.5C 275.503,256.5 271.503,257.5 267.5,258.5C 266.345,241.989 265.012,225.489 263.5,209C 265.67,200.324 268.337,191.824 271.5,183.5 Z"/></g>
<g><path style="opacity:0.998" fill="#4d5e78" d="M 375.5,191.5 C 383.252,204.675 391.252,217.675 399.5,230.5C 407.748,217.675 415.748,204.675 423.5,191.5C 436.837,191.333 450.171,191.5 463.5,192C 476.108,195.107 483.775,202.94 486.5,215.5C 478.863,225.987 471.363,236.654 464,247.5C 463.501,242.177 463.334,236.844 463.5,231.5C 458.167,231.5 452.833,231.5 447.5,231.5C 447.5,236.833 447.5,242.167 447.5,247.5C 439.5,247.5 431.5,247.5 423.5,247.5C 423.5,252.833 423.5,258.167 423.5,263.5C 426.5,263.5 429.5,263.5 432.5,263.5C 424.363,268.405 416.03,273.071 407.5,277.5C 407.5,262.167 407.5,246.833 407.5,231.5C 402.167,231.5 396.833,231.5 391.5,231.5C 391.17,249.674 391.503,267.674 392.5,285.5C 387.701,288.737 382.701,291.737 377.5,294.5C 376.577,295.303 375.577,295.47 374.5,295C 366.805,289.823 359.138,284.657 351.5,279.5C 351.5,274.167 351.5,268.833 351.5,263.5C 359.5,263.5 367.5,263.5 375.5,263.5C 375.5,258.167 375.5,252.833 375.5,247.5C 367.5,247.5 359.5,247.5 351.5,247.5C 351.5,242.167 351.5,236.833 351.5,231.5C 348.833,231.5 346.167,231.5 343.5,231.5C 343.666,223.826 343.5,216.159 343,208.5C 341.212,202.562 338.378,197.229 334.5,192.5C 348.088,191.519 361.754,191.185 375.5,191.5 Z"/></g>
<g><path style="opacity:1" fill="#dddedc" d="M 375.5,191.5 C 380.167,191.5 384.833,191.5 389.5,191.5C 396.5,191.5 403.5,191.5 410.5,191.5C 414.833,191.5 419.167,191.5 423.5,191.5C 415.748,204.675 407.748,217.675 399.5,230.5C 391.252,217.675 383.252,204.675 375.5,191.5 Z"/></g>
<g><path style="opacity:1" fill="#46556c" d="M 486.5,215.5 C 487.497,233.993 487.83,252.659 487.5,271.5C 474.192,266.182 460.859,260.849 447.5,255.5C 442.605,258.446 437.605,261.113 432.5,263.5C 429.5,263.5 426.5,263.5 423.5,263.5C 423.5,258.167 423.5,252.833 423.5,247.5C 431.5,247.5 439.5,247.5 447.5,247.5C 447.5,242.167 447.5,236.833 447.5,231.5C 452.833,231.5 458.167,231.5 463.5,231.5C 463.334,236.844 463.501,242.177 464,247.5C 471.363,236.654 478.863,225.987 486.5,215.5 Z"/></g>
<g><path style="opacity:1" fill="#afb0ad" d="M 207.5,247.5 C 202.167,247.5 196.833,247.5 191.5,247.5C 191.5,239.5 191.5,231.5 191.5,223.5C 196.833,223.5 202.167,223.5 207.5,223.5C 207.5,231.5 207.5,239.5 207.5,247.5 Z"/></g>
<g><path style="opacity:1" fill="#afb0ad" d="M 319.5,247.5 C 314.167,247.5 308.833,247.5 303.5,247.5C 303.5,239.5 303.5,231.5 303.5,223.5C 308.833,223.5 314.167,223.5 319.5,223.5C 319.5,231.5 319.5,239.5 319.5,247.5 Z"/></g>
<g><path style="opacity:1" fill="#404f66" d="M 343.5,231.5 C 346.167,231.5 348.833,231.5 351.5,231.5C 351.5,236.833 351.5,242.167 351.5,247.5C 359.5,247.5 367.5,247.5 375.5,247.5C 375.5,252.833 375.5,258.167 375.5,263.5C 367.5,263.5 359.5,263.5 351.5,263.5C 351.5,268.833 351.5,274.167 351.5,279.5C 348.95,280.358 346.45,281.358 344,282.5C 343.5,270.838 343.333,259.171 343.5,247.5C 343.5,242.167 343.5,236.833 343.5,231.5 Z"/></g>
<g><path style="opacity:1" fill="#404f66" d="M 407.5,277.5 C 402.632,280.434 397.632,283.1 392.5,285.5C 391.503,267.674 391.17,249.674 391.5,231.5C 396.833,231.5 402.167,231.5 407.5,231.5C 407.5,246.833 407.5,262.167 407.5,277.5 Z"/></g>
<g><path style="opacity:1" fill="#fdbf93" d="M 23.5,239.5 C 32.8571,239.168 42.1904,239.502 51.5,240.5C 47.4439,255.997 51.4439,268.997 63.5,279.5C 63.5,284.833 63.5,290.167 63.5,295.5C 50.1667,295.5 36.8333,295.5 23.5,295.5C 23.5,276.833 23.5,258.167 23.5,239.5 Z"/></g>
<g><path style="opacity:1" fill="#ffb531" d="M 107.5,239.5 C 110.167,239.5 112.833,239.5 115.5,239.5C 132.833,239.5 150.167,239.5 167.5,239.5C 167.5,242.167 167.5,244.833 167.5,247.5C 167.5,260.833 167.5,274.167 167.5,287.5C 167.5,290.167 167.5,292.833 167.5,295.5C 159.493,295.666 151.493,295.5 143.5,295C 146.167,290 148.833,285 151.5,280C 146.325,276.912 140.992,274.079 135.5,271.5C 128.015,279.486 120.348,287.319 112.5,295C 96.1701,295.5 79.8367,295.667 63.5,295.5C 63.5,290.167 63.5,284.833 63.5,279.5C 63.5,266.167 63.5,252.833 63.5,239.5C 78.1667,239.5 92.8333,239.5 107.5,239.5 Z"/></g>
<g><path style="opacity:1" fill="#fdc9a3" d="M 167.5,247.5 C 175.5,247.5 183.5,247.5 191.5,247.5C 196.833,247.5 202.167,247.5 207.5,247.5C 215.421,250.363 223.421,253.029 231.5,255.5C 228.893,261.213 225.893,266.713 222.5,272C 204.142,277.185 185.808,282.352 167.5,287.5C 167.5,274.167 167.5,260.833 167.5,247.5 Z"/></g>
<g><path style="opacity:0.999" fill="#fdc8a3" d="M 303.5,247.5 C 308.833,247.5 314.167,247.5 319.5,247.5C 327.5,247.5 335.5,247.5 343.5,247.5C 343.333,259.171 343.5,270.838 344,282.5C 346.45,281.358 348.95,280.358 351.5,279.5C 359.138,284.657 366.805,289.823 374.5,295C 375.577,295.47 376.577,295.303 377.5,294.5C 413.996,295.498 450.663,295.832 487.5,295.5C 487.666,303.174 487.5,310.841 487,318.5C 481.252,332.628 470.752,338.295 455.5,335.5C 439.5,335.5 423.5,335.5 407.5,335.5C 402.167,335.5 396.833,335.5 391.5,335.5C 375.5,335.5 359.5,335.5 343.5,335.5C 332.833,335.5 322.167,335.5 311.5,335.5C 311.5,332.833 311.5,330.167 311.5,327.5C 318.508,327.666 325.508,327.5 332.5,327C 337.333,324.833 340.833,321.333 343,316.5C 343.5,306.839 343.666,297.172 343.5,287.5C 327.497,287.667 311.497,287.5 295.5,287C 290.026,276.551 284.692,266.051 279.5,255.5C 287.421,252.637 295.421,249.971 303.5,247.5 Z"/></g>
<g><path style="opacity:1" fill="#dededc" d="M 231.5,255.5 C 235.381,256.903 239.381,257.903 243.5,258.5C 247.349,259.95 251.349,261.283 255.5,262.5C 259.651,261.283 263.651,259.95 267.5,258.5C 271.503,257.5 275.503,256.5 279.5,255.5C 284.692,266.051 290.026,276.551 295.5,287C 311.497,287.5 327.497,287.667 343.5,287.5C 343.666,297.172 343.5,306.839 343,316.5C 340.833,321.333 337.333,324.833 332.5,327C 325.508,327.5 318.508,327.666 311.5,327.5C 308.482,327.665 305.482,327.498 302.5,327C 291.688,322.426 281.022,317.593 270.5,312.5C 265.445,310.366 260.445,308.033 255.5,305.5C 250.729,307.853 246.063,310.186 241.5,312.5C 230.4,317.036 219.4,321.869 208.5,327C 205.518,327.498 202.518,327.665 199.5,327.5C 173.833,331.833 163.167,321.167 167.5,295.5C 167.5,292.833 167.5,290.167 167.5,287.5C 185.808,282.352 204.142,277.185 222.5,272C 225.893,266.713 228.893,261.213 231.5,255.5 Z"/></g>
<g><path style="opacity:1" fill="#fdb683" d="M 487.5,271.5 C 487.5,279.5 487.5,287.5 487.5,295.5C 450.663,295.832 413.996,295.498 377.5,294.5C 382.701,291.737 387.701,288.737 392.5,285.5C 397.632,283.1 402.632,280.434 407.5,277.5C 416.03,273.071 424.363,268.405 432.5,263.5C 437.605,261.113 442.605,258.446 447.5,255.5C 460.859,260.849 474.192,266.182 487.5,271.5 Z"/></g>
<g><path style="opacity:0.998" fill="#fdc8a2" d="M 167.5,295.5 C 163.167,321.167 173.833,331.833 199.5,327.5C 199.5,338.167 199.5,348.833 199.5,359.5C 199.5,364.833 199.5,370.167 199.5,375.5C 199.5,379.5 199.5,383.5 199.5,387.5C 198.684,389.144 197.35,390.31 195.5,391C 189.175,391.5 182.842,391.666 176.5,391.5C 172.486,391.666 168.486,391.499 164.5,391C 163.069,390.535 161.903,389.701 161,388.5C 159.616,381.589 159.116,374.589 159.5,367.5C 162.167,367.5 164.833,367.5 167.5,367.5C 167.5,356.833 167.5,346.167 167.5,335.5C 132.833,335.5 98.1667,335.5 63.5,335.5C 61.1667,335.5 58.8333,335.5 56.5,335.5C 40.863,338.601 30.0296,332.935 24,318.5C 23.5003,310.841 23.3336,303.174 23.5,295.5C 36.8333,295.5 50.1667,295.5 63.5,295.5C 79.8367,295.667 96.1701,295.5 112.5,295C 120.348,287.319 128.015,279.486 135.5,271.5C 140.992,274.079 146.325,276.912 151.5,280C 148.833,285 146.167,290 143.5,295C 151.493,295.5 159.493,295.666 167.5,295.5 Z"/></g>
<g><path style="opacity:1" fill="#3d91d8" d="M 270.5,312.5 C 265.854,317.812 260.854,322.812 255.5,327.5C 250.84,322.506 246.173,317.506 241.5,312.5C 246.063,310.186 250.729,307.853 255.5,305.5C 260.445,308.033 265.445,310.366 270.5,312.5 Z"/></g>
<g><path style="opacity:1" fill="#c6c6c5" d="M 241.5,312.5 C 246.173,317.506 250.84,322.506 255.5,327.5C 260.854,322.812 265.854,317.812 270.5,312.5C 281.022,317.593 291.688,322.426 302.5,327C 305.482,327.498 308.482,327.665 311.5,327.5C 311.5,330.167 311.5,332.833 311.5,335.5C 311.5,343.5 311.5,351.5 311.5,359.5C 274.167,359.5 236.833,359.5 199.5,359.5C 199.5,348.833 199.5,338.167 199.5,327.5C 202.518,327.665 205.518,327.498 208.5,327C 219.4,321.869 230.4,317.036 241.5,312.5 Z"/></g>
<g><path style="opacity:1" fill="#ed9191" d="M 56.5,335.5 C 58.8333,335.5 61.1667,335.5 63.5,335.5C 63.5,346.167 63.5,356.833 63.5,367.5C 95.5,367.5 127.5,367.5 159.5,367.5C 159.116,374.589 159.616,381.589 161,388.5C 161.903,389.701 163.069,390.535 164.5,391C 168.486,391.499 172.486,391.666 176.5,391.5C 178.833,407.5 181.167,423.5 183.5,439.5C 175.5,439.5 167.5,439.5 159.5,439.5C 146.167,439.5 132.833,439.5 119.5,439.5C 114.167,439.5 108.833,439.5 103.5,439.5C 90.1667,439.5 76.8333,439.5 63.5,439.5C 55.5,439.5 47.5,439.5 39.5,439.5C 44.7354,404.755 50.402,370.088 56.5,335.5 Z"/></g>
<g><path style="opacity:1" fill="#feb530" d="M 63.5,335.5 C 98.1667,335.5 132.833,335.5 167.5,335.5C 167.5,346.167 167.5,356.833 167.5,367.5C 164.833,367.5 162.167,367.5 159.5,367.5C 127.5,367.5 95.5,367.5 63.5,367.5C 63.5,356.833 63.5,346.167 63.5,335.5 Z"/></g>
<g><path style="opacity:1" fill="#485971" d="M 343.5,335.5 C 359.5,335.5 375.5,335.5 391.5,335.5C 391.5,346.167 391.5,356.833 391.5,367.5C 375.5,367.5 359.5,367.5 343.5,367.5C 343.5,356.833 343.5,346.167 343.5,335.5 Z"/></g>
<g><path style="opacity:1" fill="#404f66" d="M 391.5,335.5 C 396.833,335.5 402.167,335.5 407.5,335.5C 407.5,346.167 407.5,356.833 407.5,367.5C 423.5,367.5 439.5,367.5 455.5,367.5C 455.5,372.833 455.5,378.167 455.5,383.5C 418.167,383.5 380.833,383.5 343.5,383.5C 343.5,378.167 343.5,372.833 343.5,367.5C 359.5,367.5 375.5,367.5 391.5,367.5C 391.5,356.833 391.5,346.167 391.5,335.5 Z"/></g>
<g><path style="opacity:1" fill="#485870" d="M 407.5,335.5 C 423.5,335.5 439.5,335.5 455.5,335.5C 455.5,346.167 455.5,356.833 455.5,367.5C 439.5,367.5 423.5,367.5 407.5,367.5C 407.5,356.833 407.5,346.167 407.5,335.5 Z"/></g>
<g><path style="opacity:1" fill="#485870" d="M 199.5,359.5 C 236.833,359.5 274.167,359.5 311.5,359.5C 311.5,364.833 311.5,370.167 311.5,375.5C 274.167,375.5 236.833,375.5 199.5,375.5C 199.5,370.167 199.5,364.833 199.5,359.5 Z"/></g>
<g><path style="opacity:0.996" fill="#4d5e78" d="M 199.5,375.5 C 236.833,375.5 274.167,375.5 311.5,375.5C 311.5,412.833 311.5,450.167 311.5,487.5C 295.167,487.5 278.833,487.5 262.5,487.5C 260.829,459.445 258.495,431.445 255.5,403.5C 252.505,431.445 250.171,459.445 248.5,487.5C 232.167,487.5 215.833,487.5 199.5,487.5C 199.5,454.167 199.5,420.833 199.5,387.5C 199.5,383.5 199.5,379.5 199.5,375.5 Z"/></g>
<g><path style="opacity:1" fill="#485870" d="M 343.5,383.5 C 380.833,383.5 418.167,383.5 455.5,383.5C 455.5,418.167 455.5,452.833 455.5,487.5C 439.167,487.5 422.833,487.5 406.5,487.5C 404.828,461.773 402.495,436.107 399.5,410.5C 396.505,436.107 394.172,461.773 392.5,487.5C 376.167,487.5 359.833,487.5 343.5,487.5C 343.5,452.833 343.5,418.167 343.5,383.5 Z"/></g>
<g><path style="opacity:1" fill="#fdc092" d="M 63.5,439.5 C 76.8333,439.5 90.1667,439.5 103.5,439.5C 103.5,444.833 103.5,450.167 103.5,455.5C 90.1667,455.5 76.8333,455.5 63.5,455.5C 63.5,450.167 63.5,444.833 63.5,439.5 Z"/></g>
<g><path style="opacity:1" fill="#fdb783" d="M 103.5,439.5 C 108.833,439.5 114.167,439.5 119.5,439.5C 119.5,444.833 119.5,450.167 119.5,455.5C 119.5,466.167 119.5,476.833 119.5,487.5C 114.167,487.5 108.833,487.5 103.5,487.5C 103.5,476.833 103.5,466.167 103.5,455.5C 103.5,450.167 103.5,444.833 103.5,439.5 Z"/></g>
<g><path style="opacity:1" fill="#fdc092" d="M 119.5,439.5 C 132.833,439.5 146.167,439.5 159.5,439.5C 159.5,444.833 159.5,450.167 159.5,455.5C 146.167,455.5 132.833,455.5 119.5,455.5C 119.5,450.167 119.5,444.833 119.5,439.5 Z"/></g>
<g><path style="opacity:1" fill="#fdc9a2" d="M 63.5,455.5 C 76.8333,455.5 90.1667,455.5 103.5,455.5C 103.5,466.167 103.5,476.833 103.5,487.5C 90.1667,487.5 76.8333,487.5 63.5,487.5C 63.5,476.833 63.5,466.167 63.5,455.5 Z"/></g>
<g><path style="opacity:1" fill="#fdc9a2" d="M 119.5,455.5 C 132.833,455.5 146.167,455.5 159.5,455.5C 159.5,466.167 159.5,476.833 159.5,487.5C 146.167,487.5 132.833,487.5 119.5,487.5C 119.5,476.833 119.5,466.167 119.5,455.5 Z"/></g>
</svg>
