<?xml version="1.0" encoding="UTF-8"?>
<!DOCTYPE svg PUBLIC "-//W3C//DTD SVG 1.1//EN" "http://www.w3.org/Graphics/SVG/1.1/DTD/svg11.dtd">
<svg xmlns="http://www.w3.org/2000/svg" version="1.1" width="512px" height="512px" style="shape-rendering:geometricPrecision; text-rendering:geometricPrecision; image-rendering:optimizeQuality; fill-rule:evenodd; clip-rule:evenodd" xmlns:xlink="http://www.w3.org/1999/xlink">
<g><path style="opacity:0.996" fill="#fec263" d="M 233.5,-0.5 C 248.167,-0.5 262.833,-0.5 277.5,-0.5C 377.807,11.9842 449.307,63.9842 492,155.5C 501.453,178.311 507.619,201.977 510.5,226.5C 497.431,214.124 482.765,203.957 466.5,196C 455.733,191.051 444.733,190.384 433.5,194C 424.498,197.497 416.165,201.997 408.5,207.5C 402.884,211.115 397.55,215.115 392.5,219.5C 388.261,210.016 383.261,201.016 377.5,192.5C 388.409,192.426 394.409,186.926 395.5,176C 394.386,168.885 390.386,164.218 383.5,162C 375.173,161.5 366.84,161.334 358.5,161.5C 340.374,137.54 319.374,116.373 295.5,98C 286.105,91.1361 275.771,86.1361 264.5,83C 246.618,80.9066 230.952,85.7399 217.5,97.5C 209.779,102.374 202.446,107.874 195.5,114C 180.107,129.015 165.774,144.848 152.5,161.5C 143.827,161.334 135.16,161.5 126.5,162C 115.768,166.857 112.934,174.69 118,185.5C 122.225,190.201 127.391,192.534 133.5,192.5C 127.739,201.016 122.739,210.016 118.5,219.5C 106.172,208.995 92.5053,200.495 77.5,194C 67.0401,190.466 56.7068,190.799 46.5,195C 39.184,198.323 32.184,202.157 25.5,206.5C 16.6191,212.446 8.28578,219.112 0.5,226.5C 14.7154,129.189 66.3821,60.0225 155.5,19C 180.684,8.70393 206.684,2.20393 233.5,-0.5 Z"/></g>
<g><path style="opacity:1" fill="#3fcd5c" d="M 358.5,161.5 C 333.5,161.5 308.5,161.5 283.5,161.5C 267.165,154.832 251.832,146.332 237.5,136C 228.686,129.174 222.186,120.674 218,110.5C 217.501,106.179 217.334,101.846 217.5,97.5C 230.952,85.7399 246.618,80.9066 264.5,83C 275.771,86.1361 286.105,91.1361 295.5,98C 319.374,116.373 340.374,137.54 358.5,161.5 Z"/></g>
<g><path style="opacity:1" fill="#30ad4f" d="M 217.5,97.5 C 217.334,101.846 217.501,106.179 218,110.5C 222.186,120.674 228.686,129.174 237.5,136C 251.832,146.332 267.165,154.832 283.5,161.5C 239.833,161.5 196.167,161.5 152.5,161.5C 165.774,144.848 180.107,129.015 195.5,114C 202.446,107.874 209.779,102.374 217.5,97.5 Z"/></g>
<g><path style="opacity:1" fill="#2fad4f" d="M 259.5,101.5 C 267.494,100.329 270.994,103.663 270,111.5C 265.333,116.833 260.667,116.833 256,111.5C 254.755,107.235 255.922,103.902 259.5,101.5 Z"/></g>
<g><path style="opacity:1" fill="#2fad4f" d="M 292.5,126.5 C 301.017,126.545 303.851,130.545 301,138.5C 295.879,142.875 291.545,142.209 288,136.5C 286.571,131.783 288.071,128.45 292.5,126.5 Z"/></g>
<g><path style="opacity:1" fill="#2b8f49" d="M 199.5,134.5 C 205.992,132.723 209.659,135.056 210.5,141.5C 209.647,148.103 205.98,150.27 199.5,148C 194.248,143.506 194.248,139.006 199.5,134.5 Z"/></g>
<g><path style="opacity:1" fill="#843426" d="M 152.5,161.5 C 196.167,161.5 239.833,161.5 283.5,161.5C 308.5,161.5 333.5,161.5 358.5,161.5C 307.335,162.333 256.002,162.833 204.5,163C 194.853,169.018 193.02,176.851 199,186.5C 200.965,188.55 203.132,190.217 205.5,191.5C 181.425,191.177 157.425,191.51 133.5,192.5C 127.391,192.534 122.225,190.201 118,185.5C 112.934,174.69 115.768,166.857 126.5,162C 135.16,161.5 143.827,161.334 152.5,161.5 Z"/></g>
<g><path style="opacity:1" fill="#a03c32" d="M 358.5,161.5 C 366.84,161.334 375.173,161.5 383.5,162C 390.386,164.218 394.386,168.885 395.5,176C 394.409,186.926 388.409,192.426 377.5,192.5C 320.238,191.504 262.905,191.171 205.5,191.5C 203.132,190.217 200.965,188.55 199,186.5C 193.02,176.851 194.853,169.018 204.5,163C 256.002,162.833 307.335,162.333 358.5,161.5 Z"/></g>
<g><path style="opacity:1" fill="#f84a37" d="M 118.5,219.5 C 135.878,235.611 151.878,252.944 166.5,271.5C 148.167,271.5 129.833,271.5 111.5,271.5C 105.167,271.5 98.8333,271.5 92.5,271.5C 75.8753,265.354 60.5419,256.854 46.5,246C 48.2737,241.837 47.6071,238.17 44.5,235C 41.0934,234.518 37.76,234.518 34.5,235C 27.1848,226.887 24.1848,217.387 25.5,206.5C 32.184,202.157 39.184,198.323 46.5,195C 56.7068,190.799 67.0401,190.466 77.5,194C 92.5053,200.495 106.172,208.995 118.5,219.5 Z"/></g>
<g><path style="opacity:1" fill="#561e11" d="M 205.5,191.5 C 262.905,191.171 320.238,191.504 377.5,192.5C 383.261,201.016 388.261,210.016 392.5,219.5C 374.717,235.279 358.717,252.613 344.5,271.5C 340.833,271.5 337.167,271.5 333.5,271.5C 319.17,256.664 303.504,243.497 286.5,232C 276.786,226.055 266.286,222.555 255,221.5C 240.673,223.419 227.839,228.752 216.5,237.5C 210.043,242.117 203.71,246.951 197.5,252C 190.965,258.703 184.298,265.203 177.5,271.5C 173.833,271.5 170.167,271.5 166.5,271.5C 151.878,252.944 135.878,235.611 118.5,219.5C 122.739,210.016 127.739,201.016 133.5,192.5C 157.425,191.51 181.425,191.177 205.5,191.5 Z"/></g>
<g><path style="opacity:0.998" fill="#fb8b24" d="M 510.5,226.5 C 510.205,228.735 510.539,230.735 511.5,232.5C 511.5,245.5 511.5,258.5 511.5,271.5C 499.833,271.5 488.167,271.5 476.5,271.5C 458.859,264.699 442.526,255.533 427.5,244C 415.416,234.66 409.082,222.494 408.5,207.5C 416.165,201.997 424.498,197.497 433.5,194C 444.733,190.384 455.733,191.051 466.5,196C 482.765,203.957 497.431,214.124 510.5,226.5 Z"/></g>
<g><path style="opacity:0.999" fill="#e74025" d="M 25.5,206.5 C 24.1848,217.387 27.1848,226.887 34.5,235C 37.76,234.518 41.0934,234.518 44.5,235C 47.6071,238.17 48.2737,241.837 46.5,246C 60.5419,256.854 75.8753,265.354 92.5,271.5C 61.5,271.5 30.5,271.5 -0.5,271.5C -0.5,258.5 -0.5,245.5 -0.5,232.5C 0.461384,230.735 0.794717,228.735 0.5,226.5C 8.28578,219.112 16.6191,212.446 25.5,206.5 Z"/></g>
<g><path style="opacity:1" fill="#f87306" d="M 408.5,207.5 C 409.082,222.494 415.416,234.66 427.5,244C 442.526,255.533 458.859,264.699 476.5,271.5C 450.5,271.5 424.5,271.5 398.5,271.5C 380.5,271.5 362.5,271.5 344.5,271.5C 358.717,252.613 374.717,235.279 392.5,219.5C 397.55,215.115 402.884,211.115 408.5,207.5 Z"/></g>
<g><path style="opacity:1" fill="#f97307" d="M 435.5,209.5 C 445.842,209.696 448.509,214.196 443.5,223C 434.894,225.732 431.061,222.566 432,213.5C 433.376,212.295 434.542,210.962 435.5,209.5 Z"/></g>
<g><path style="opacity:1" fill="#fec263" d="M 333.5,271.5 C 341.833,281.5 350.167,291.5 358.5,301.5C 333.833,301.5 309.167,301.5 284.5,301.5C 266.707,294.937 250.374,285.77 235.5,274C 223.421,264.671 217.088,252.505 216.5,237.5C 227.839,228.752 240.673,223.419 255,221.5C 266.286,222.555 276.786,226.055 286.5,232C 303.504,243.497 319.17,256.664 333.5,271.5 Z"/></g>
<g><path style="opacity:1" fill="#fbb232" d="M 216.5,237.5 C 217.088,252.505 223.421,264.671 235.5,274C 250.374,285.77 266.707,294.937 284.5,301.5C 258.5,301.5 232.5,301.5 206.5,301.5C 188.5,301.5 170.5,301.5 152.5,301.5C 160.357,291.131 168.69,281.131 177.5,271.5C 184.298,265.203 190.965,258.703 197.5,252C 203.71,246.951 210.043,242.117 216.5,237.5 Z"/></g>
<g><path style="opacity:1" fill="#f97307" d="M 488.5,241.5 C 496.201,241.362 499.367,245.029 498,252.5C 492.837,258.062 488.171,257.729 484,251.5C 483.077,247.017 484.577,243.683 488.5,241.5 Z"/></g>
<g><path style="opacity:1" fill="#fcb334" d="M 288.5,256.5 C 294.629,255.555 298.296,258.055 299.5,264C 298.296,270.106 294.629,272.439 288.5,271C 283.214,266.169 283.214,261.335 288.5,256.5 Z"/></g>
<g><path style="opacity:0.999" fill="#843024" d="M -0.5,271.5 C 30.5,271.5 61.5,271.5 92.5,271.5C 98.8333,271.5 105.167,271.5 111.5,271.5C 123.624,276.758 126.291,285.092 119.5,296.5C 117.072,298.705 114.405,300.372 111.5,301.5C 109.833,301.5 108.167,301.5 106.5,301.5C 72.1667,301.5 37.8333,301.5 3.5,301.5C 1.92164,293.871 0.588303,286.205 -0.5,278.5C -0.5,276.167 -0.5,273.833 -0.5,271.5 Z"/></g>
<g><path style="opacity:1" fill="#682316" d="M 111.5,271.5 C 129.833,271.5 148.167,271.5 166.5,271.5C 170.167,271.5 173.833,271.5 177.5,271.5C 168.69,281.131 160.357,291.131 152.5,301.5C 143.416,301.196 134.416,301.529 125.5,302.5C 121.03,301.514 116.363,301.181 111.5,301.5C 114.405,300.372 117.072,298.705 119.5,296.5C 126.291,285.092 123.624,276.758 111.5,271.5 Z"/></g>
<g><path style="opacity:1" fill="#682316" d="M 333.5,271.5 C 337.167,271.5 340.833,271.5 344.5,271.5C 362.5,271.5 380.5,271.5 398.5,271.5C 388.359,276.45 385.526,284.117 390,294.5C 392.416,297.423 395.25,299.757 398.5,301.5C 393.968,301.182 389.634,301.515 385.5,302.5C 376.553,301.556 367.553,301.222 358.5,301.5C 350.167,291.5 341.833,281.5 333.5,271.5 Z"/></g>
<g><path style="opacity:0.999" fill="#843024" d="M 398.5,271.5 C 424.5,271.5 450.5,271.5 476.5,271.5C 488.167,271.5 499.833,271.5 511.5,271.5C 511.5,273.833 511.5,276.167 511.5,278.5C 510.412,286.205 509.078,293.871 507.5,301.5C 473.167,301.5 438.833,301.5 404.5,301.5C 402.5,301.5 400.5,301.5 398.5,301.5C 395.25,299.757 392.416,297.423 390,294.5C 385.526,284.117 388.359,276.45 398.5,271.5 Z"/></g>
<g><path style="opacity:1" fill="#fb8c24" d="M 203.5,274.5 C 211.161,273.663 214.661,276.996 214,284.5C 210.455,290.209 206.121,290.875 201,286.5C 198.511,281.757 199.345,277.757 203.5,274.5 Z"/></g>
<g><path style="opacity:0.992" fill="#672215" d="M 3.5,301.5 C 37.8333,301.5 72.1667,301.5 106.5,301.5C 77.4128,339.106 64.4128,381.773 67.5,429.5C 33.4783,393.457 12.145,350.79 3.5,301.5 Z"/></g>
<g><path style="opacity:1" fill="#561e11" d="M 106.5,301.5 C 108.167,301.5 109.833,301.5 111.5,301.5C 116.363,301.181 121.03,301.514 125.5,302.5C 117.064,306.039 113.897,312.372 116,321.5C 119.359,329.098 125.193,332.431 133.5,331.5C 126.813,341.537 121.146,352.204 116.5,363.5C 114.031,364.168 111.698,364.835 109.5,365.5C 106.155,366.348 104.488,368.515 104.5,372C 104.26,376.374 106.26,378.874 110.5,379.5C 103.462,411.49 106.462,442.49 119.5,472.5C 99.8301,461.179 82.4968,446.846 67.5,429.5C 64.4128,381.773 77.4128,339.106 106.5,301.5 Z"/></g>
<g><path style="opacity:1" fill="#843025" d="M 152.5,301.5 C 170.5,301.5 188.5,301.5 206.5,301.5C 195.262,307.057 192.762,315.39 199,326.5C 201.479,328.314 203.979,329.981 206.5,331.5C 182.167,331.5 157.833,331.5 133.5,331.5C 125.193,332.431 119.359,329.098 116,321.5C 113.897,312.372 117.064,306.039 125.5,302.5C 134.416,301.529 143.416,301.196 152.5,301.5 Z"/></g>
<g><path style="opacity:1" fill="#9f3b31" d="M 206.5,301.5 C 232.5,301.5 258.5,301.5 284.5,301.5C 309.167,301.5 333.833,301.5 358.5,301.5C 367.553,301.222 376.553,301.556 385.5,302.5C 393.111,305.626 396.278,311.293 395,319.5C 392.425,328.051 386.591,332.051 377.5,331.5C 322.833,331.5 268.167,331.5 213.5,331.5C 211.167,331.5 208.833,331.5 206.5,331.5C 203.979,329.981 201.479,328.314 199,326.5C 192.762,315.39 195.262,307.057 206.5,301.5 Z"/></g>
<g><path style="opacity:1" fill="#561e11" d="M 385.5,302.5 C 389.634,301.515 393.968,301.182 398.5,301.5C 400.5,301.5 402.5,301.5 404.5,301.5C 433.589,339.111 446.589,381.778 443.5,429.5C 428.192,447.153 410.525,461.82 390.5,473.5C 404.218,443.203 407.218,411.87 399.5,379.5C 405.706,378.442 407.872,374.776 406,368.5C 404.871,366.859 403.371,365.859 401.5,365.5C 399.302,364.835 396.969,364.168 394.5,363.5C 389.332,352.494 383.665,341.827 377.5,331.5C 386.591,332.051 392.425,328.051 395,319.5C 396.278,311.293 393.111,305.626 385.5,302.5 Z"/></g>
<g><path style="opacity:0.992" fill="#672215" d="M 404.5,301.5 C 438.833,301.5 473.167,301.5 507.5,301.5C 498.855,350.79 477.522,393.457 443.5,429.5C 446.589,381.778 433.589,339.111 404.5,301.5 Z"/></g>
<g><path style="opacity:1" fill="#682316" d="M 133.5,331.5 C 157.833,331.5 182.167,331.5 206.5,331.5C 208.833,331.5 211.167,331.5 213.5,331.5C 206.717,342.733 200.717,354.399 195.5,366.5C 186.195,370.489 177.862,375.989 170.5,383C 161.482,386.819 152.815,386.152 144.5,381C 135.221,370.359 123.554,365.192 109.5,365.5C 111.698,364.835 114.031,364.168 116.5,363.5C 121.146,352.204 126.813,341.537 133.5,331.5 Z"/></g>
<g><path style="opacity:1" fill="#843125" d="M 213.5,331.5 C 268.167,331.5 322.833,331.5 377.5,331.5C 383.665,341.827 389.332,352.494 394.5,363.5C 396.969,364.168 399.302,364.835 401.5,365.5C 387.446,365.192 375.779,370.359 366.5,381C 358.135,386.003 349.468,386.67 340.5,383C 335.211,379.38 330.211,375.38 325.5,371C 310.268,362.122 295.268,362.455 280.5,372C 263.863,389.872 247.196,389.872 230.5,372C 219.617,364.859 207.951,363.025 195.5,366.5C 200.717,354.399 206.717,342.733 213.5,331.5 Z"/></g>
<g><path style="opacity:1" fill="#9f3b31" d="M 401.5,365.5 C 403.371,365.859 404.871,366.859 406,368.5C 407.872,374.776 405.706,378.442 399.5,379.5C 395.231,379.734 391.231,380.901 387.5,383C 364.42,405.799 341.087,406.132 317.5,384C 303.106,376.679 290.772,379.346 280.5,392C 258.626,405.51 238.959,402.843 221.5,384C 209.771,377.071 199.104,378.238 189.5,387.5C 174.255,401.686 157.255,404.186 138.5,395C 133.317,391.24 128.317,387.24 123.5,383C 119.296,381.236 114.962,380.07 110.5,379.5C 106.26,378.874 104.26,376.374 104.5,372C 104.488,368.515 106.155,366.348 109.5,365.5C 123.554,365.192 135.221,370.359 144.5,381C 152.815,386.152 161.482,386.819 170.5,383C 177.862,375.989 186.195,370.489 195.5,366.5C 207.951,363.025 219.617,364.859 230.5,372C 247.196,389.872 263.863,389.872 280.5,372C 295.268,362.455 310.268,362.122 325.5,371C 330.211,375.38 335.211,379.38 340.5,383C 349.468,386.67 358.135,386.003 366.5,381C 375.779,370.359 387.446,365.192 401.5,365.5 Z"/></g>
<g><path style="opacity:1" fill="#682316" d="M 110.5,379.5 C 114.962,380.07 119.296,381.236 123.5,383C 128.317,387.24 133.317,391.24 138.5,395C 157.255,404.186 174.255,401.686 189.5,387.5C 182.698,434.415 194.698,475.749 225.5,511.5C 199.833,511.5 174.167,511.5 148.5,511.5C 143.291,509.13 139.124,505.464 136,500.5C 129.732,491.633 124.232,482.3 119.5,472.5C 106.462,442.49 103.462,411.49 110.5,379.5 Z"/></g>
<g><path style="opacity:1" fill="#843125" d="M 399.5,379.5 C 407.218,411.87 404.218,443.203 390.5,473.5C 384.996,486.17 377.662,497.67 368.5,508C 366.273,508.941 364.273,510.108 362.5,511.5C 316.833,511.5 271.167,511.5 225.5,511.5C 194.698,475.749 182.698,434.415 189.5,387.5C 199.104,378.238 209.771,377.071 221.5,384C 238.959,402.843 258.626,405.51 280.5,392C 290.772,379.346 303.106,376.679 317.5,384C 341.087,406.132 364.42,405.799 387.5,383C 391.231,380.901 395.231,379.734 399.5,379.5 Z"/></g>
</svg>
