<?xml version="1.0" encoding="UTF-8"?>
<!DOCTYPE svg PUBLIC "-//W3C//DTD SVG 1.1//EN" "http://www.w3.org/Graphics/SVG/1.1/DTD/svg11.dtd">
<svg xmlns="http://www.w3.org/2000/svg" version="1.1" width="512px" height="512px" style="shape-rendering:geometricPrecision; text-rendering:geometricPrecision; image-rendering:optimizeQuality; fill-rule:evenodd; clip-rule:evenodd" xmlns:xlink="http://www.w3.org/1999/xlink">
<g><path style="opacity:0.999" fill="#8d9ca8" d="M 110.5,58.5 C 114.31,59.52 117.143,61.8533 119,65.5C 119.667,82.8333 119.667,100.167 119,117.5C 117.5,119 116,120.5 114.5,122C 122.677,122.171 130.677,122.671 138.5,123.5C 127.833,123.5 117.167,123.5 106.5,123.5C 81.5,123.5 56.5,123.5 31.5,123.5C 27.3951,123.766 23.3951,123.266 19.5,122C 17.9512,120.786 16.7845,119.286 16,117.5C 15.3333,100.167 15.3333,82.8333 16,65.5C 17.1217,63.3762 18.6217,61.5429 20.5,60C 50.4369,58.5235 80.4369,58.0235 110.5,58.5 Z"/></g>
<g><path style="opacity:0.998" fill="#8d9ca8" d="M 281.5,58.5 C 284.986,59.9994 287.82,62.3327 290,65.5C 290.667,82.1667 290.667,98.8333 290,115.5C 289.31,118.196 287.81,120.363 285.5,122C 293.677,122.171 301.677,122.671 309.5,123.5C 298.5,123.5 287.5,123.5 276.5,123.5C 251.5,123.5 226.5,123.5 201.5,123.5C 193.962,125.15 188.796,122.483 186,115.5C 185.333,99.1667 185.333,82.8333 186,66.5C 187.27,62.2297 190.104,59.7297 194.5,59C 223.498,58.5 252.498,58.3334 281.5,58.5 Z"/></g>
<g><path style="opacity:0.996" fill="#8d9ca8" d="M 452.5,58.5 C 456.068,60.2305 458.902,62.8972 461,66.5C 461.667,82.8333 461.667,99.1667 461,115.5C 460.214,118.583 458.381,120.749 455.5,122C 463.677,122.171 471.677,122.671 479.5,123.5C 468.833,123.5 458.167,123.5 447.5,123.5C 422.5,123.5 397.5,123.5 372.5,123.5C 365.485,125.074 360.319,122.74 357,116.5C 356.333,99.5 356.333,82.5 357,65.5C 358.563,62.2716 361.063,60.1049 364.5,59C 393.831,58.5 423.165,58.3334 452.5,58.5 Z"/></g>
<g><path style="opacity:1" fill="#7a8c98" d="M 110.5,58.5 C 122.505,58.3335 134.505,58.5001 146.5,59C 149.937,60.1049 152.437,62.2716 154,65.5C 154.667,82.5 154.667,99.5 154,116.5C 150.681,122.74 145.515,125.074 138.5,123.5C 130.677,122.671 122.677,122.171 114.5,122C 116,120.5 117.5,119 119,117.5C 119.667,100.167 119.667,82.8333 119,65.5C 117.143,61.8533 114.31,59.52 110.5,58.5 Z"/></g>
<g><path style="opacity:1" fill="#7a8c98" d="M 281.5,58.5 C 293.171,58.3335 304.838,58.5001 316.5,59C 320.896,59.7297 323.73,62.2297 325,66.5C 325.667,82.8333 325.667,99.1667 325,115.5C 322.204,122.483 317.038,125.15 309.5,123.5C 301.677,122.671 293.677,122.171 285.5,122C 287.81,120.363 289.31,118.196 290,115.5C 290.667,98.8333 290.667,82.1667 290,65.5C 287.82,62.3327 284.986,59.9994 281.5,58.5 Z"/></g>
<g><path style="opacity:1" fill="#7a8c98" d="M 452.5,58.5 C 464.171,58.3335 475.838,58.5001 487.5,59C 490.913,60.0774 493.413,62.2441 495,65.5C 495.667,82.8333 495.667,100.167 495,117.5C 494.215,119.286 493.049,120.786 491.5,122C 487.605,123.266 483.605,123.766 479.5,123.5C 471.677,122.671 463.677,122.171 455.5,122C 458.381,120.749 460.214,118.583 461,115.5C 461.667,99.1667 461.667,82.8333 461,66.5C 458.902,62.8972 456.068,60.2305 452.5,58.5 Z"/></g>
<g><path style="opacity:0.997" fill="#def5fd" d="M 31.5,123.5 C 56.5,123.5 81.5,123.5 106.5,123.5C 106.333,139.503 106.5,155.503 107,171.5C 107.249,174.177 108.249,176.51 110,178.5C 114.328,181.732 118.494,185.066 122.5,188.5C 84.5,188.5 46.5,188.5 8.5,188.5C 7.16667,188.5 5.83333,188.5 4.5,188.5C 11.3171,178.517 20.1504,170.85 31,165.5C 31.4999,151.504 31.6666,137.504 31.5,123.5 Z"/></g>
<g><path style="opacity:0.998" fill="#c8effe" d="M 106.5,123.5 C 117.167,123.5 127.833,123.5 138.5,123.5C 138.333,137.504 138.5,151.504 139,165.5C 147.527,170.355 155.193,176.355 162,183.5C 163.094,185.078 163.928,186.745 164.5,188.5C 150.5,188.5 136.5,188.5 122.5,188.5C 118.494,185.066 114.328,181.732 110,178.5C 108.249,176.51 107.249,174.177 107,171.5C 106.5,155.503 106.333,139.503 106.5,123.5 Z"/></g>
<g><path style="opacity:0.993" fill="#def6fc" d="M 201.5,123.5 C 226.5,123.5 251.5,123.5 276.5,123.5C 276.333,139.17 276.5,154.837 277,170.5C 278,172.833 279,175.167 280,177.5C 284.478,181.305 288.978,184.972 293.5,188.5C 254.167,188.5 214.833,188.5 175.5,188.5C 177.888,184.244 180.888,180.41 184.5,177C 190.087,173.29 195.587,169.457 201,165.5C 201.5,151.504 201.667,137.504 201.5,123.5 Z"/></g>
<g><path style="opacity:1" fill="#c8effd" d="M 276.5,123.5 C 287.5,123.5 298.5,123.5 309.5,123.5C 309.333,137.504 309.5,151.504 310,165.5C 315.413,169.457 320.913,173.29 326.5,177C 330.112,180.41 333.112,184.244 335.5,188.5C 321.5,188.5 307.5,188.5 293.5,188.5C 288.978,184.972 284.478,181.305 280,177.5C 279,175.167 278,172.833 277,170.5C 276.5,154.837 276.333,139.17 276.5,123.5 Z"/></g>
<g><path style="opacity:0.994" fill="#def6fd" d="M 372.5,123.5 C 397.5,123.5 422.5,123.5 447.5,123.5C 447.058,140.556 447.558,157.556 449,174.5C 450.793,177.295 452.96,179.795 455.5,182C 458.921,183.699 461.921,185.865 464.5,188.5C 425.167,188.5 385.833,188.5 346.5,188.5C 348.836,183.651 352.169,179.484 356.5,176C 361.926,172.871 367.093,169.371 372,165.5C 372.5,151.504 372.667,137.504 372.5,123.5 Z"/></g>
<g><path style="opacity:1" fill="#c8effd" d="M 447.5,123.5 C 458.167,123.5 468.833,123.5 479.5,123.5C 479.333,137.504 479.5,151.504 480,165.5C 490.85,170.85 499.683,178.517 506.5,188.5C 492.5,188.5 478.5,188.5 464.5,188.5C 461.921,185.865 458.921,183.699 455.5,182C 452.96,179.795 450.793,177.295 449,174.5C 447.558,157.556 447.058,140.556 447.5,123.5 Z"/></g>
<g><path style="opacity:0.999" fill="#a1e52e" d="M 4.5,188.5 C 5.83333,188.5 7.16667,188.5 8.5,188.5C 47.3312,189.333 86.3312,189.833 125.5,190C 133.524,198.552 137.857,208.719 138.5,220.5C 92.1667,220.5 45.8333,220.5 -0.5,220.5C -0.5,213.833 -0.5,207.167 -0.5,200.5C 1.12347,196.573 2.79014,192.573 4.5,188.5 Z"/></g>
<g><path style="opacity:1" fill="#99d830" d="M 8.5,188.5 C 46.5,188.5 84.5,188.5 122.5,188.5C 136.5,188.5 150.5,188.5 164.5,188.5C 167.481,192.784 169.481,197.451 170.5,202.5C 170.5,208.5 170.5,214.5 170.5,220.5C 159.833,220.5 149.167,220.5 138.5,220.5C 137.857,208.719 133.524,198.552 125.5,190C 86.3312,189.833 47.3312,189.333 8.5,188.5 Z"/></g>
<g><path style="opacity:0.999" fill="#fd656f" d="M 175.5,188.5 C 214.833,188.5 254.167,188.5 293.5,188.5C 307.5,188.5 321.5,188.5 335.5,188.5C 335.5,188.833 335.5,189.167 335.5,189.5C 322.163,189.333 308.829,189.5 295.5,190C 304.4,198.195 308.733,208.361 308.5,220.5C 262.5,220.5 216.5,220.5 170.5,220.5C 170.5,214.5 170.5,208.5 170.5,202.5C 171.061,197.389 172.728,192.723 175.5,188.5 Z"/></g>
<g><path style="opacity:1" fill="#fd4755" d="M 335.5,189.5 C 338.506,193.2 340.172,197.533 340.5,202.5C 340.5,208.5 340.5,214.5 340.5,220.5C 329.833,220.5 319.167,220.5 308.5,220.5C 308.733,208.361 304.4,198.195 295.5,190C 308.829,189.5 322.163,189.333 335.5,189.5 Z"/></g>
<g><path style="opacity:0.999" fill="#d77f4b" d="M 346.5,188.5 C 385.833,188.5 425.167,188.5 464.5,188.5C 478.5,188.5 492.5,188.5 506.5,188.5C 506.5,188.833 506.5,189.167 506.5,189.5C 493.163,189.333 479.829,189.5 466.5,190C 475.006,198.34 479.339,208.507 479.5,220.5C 433.167,220.5 386.833,220.5 340.5,220.5C 340.5,214.5 340.5,208.5 340.5,202.5C 341.519,197.451 343.519,192.784 346.5,188.5 Z"/></g>
<g><path style="opacity:1" fill="#c86d36" d="M 506.5,189.5 C 508.446,193.058 510.113,196.725 511.5,200.5C 511.5,207.167 511.5,213.833 511.5,220.5C 500.833,220.5 490.167,220.5 479.5,220.5C 479.339,208.507 475.006,198.34 466.5,190C 479.829,189.5 493.163,189.333 506.5,189.5 Z"/></g>
<g><path style="opacity:1" fill="#fdf0d9" d="M -0.5,221.5 C 45.8333,221.5 92.1667,221.5 138.5,221.5C 138.5,267.167 138.5,312.833 138.5,358.5C 130.493,358.334 122.493,358.5 114.5,359C 109.465,362.013 108.298,366.18 111,371.5C 111.75,372.126 112.584,372.626 113.5,373C 122.16,373.5 130.827,373.666 139.5,373.5C 138.531,381.748 138.198,390.082 138.5,398.5C 92.1667,398.5 45.8333,398.5 -0.5,398.5C -0.5,339.5 -0.5,280.5 -0.5,221.5 Z"/></g>
<g><path style="opacity:1" fill="#f9e2bf" d="M -0.5,221.5 C -0.5,221.167 -0.5,220.833 -0.5,220.5C 45.8333,220.5 92.1667,220.5 138.5,220.5C 149.167,220.5 159.833,220.5 170.5,220.5C 170.5,220.833 170.5,221.167 170.5,221.5C 170.5,280.5 170.5,339.5 170.5,398.5C 159.833,398.5 149.167,398.5 138.5,398.5C 138.198,390.082 138.531,381.748 139.5,373.5C 145.487,371.387 146.987,367.387 144,361.5C 142.259,360.242 140.426,359.242 138.5,358.5C 138.5,312.833 138.5,267.167 138.5,221.5C 92.1667,221.5 45.8333,221.5 -0.5,221.5 Z"/></g>
<g><path style="opacity:1" fill="#fee077" d="M 170.5,221.5 C 216.5,221.5 262.5,221.5 308.5,221.5C 308.5,267.167 308.5,312.833 308.5,358.5C 300.826,358.334 293.159,358.5 285.5,359C 280.776,361.435 279.276,365.269 281,370.5C 281.833,371.333 282.667,372.167 283.5,373C 292.494,373.5 301.494,373.666 310.5,373.5C 308.578,381.564 307.912,389.897 308.5,398.5C 262.5,398.5 216.5,398.5 170.5,398.5C 170.5,339.5 170.5,280.5 170.5,221.5 Z"/></g>
<g><path style="opacity:1" fill="#fed05c" d="M 170.5,221.5 C 170.5,221.167 170.5,220.833 170.5,220.5C 216.5,220.5 262.5,220.5 308.5,220.5C 319.167,220.5 329.833,220.5 340.5,220.5C 340.5,279.833 340.5,339.167 340.5,398.5C 329.833,398.5 319.167,398.5 308.5,398.5C 307.912,389.897 308.578,381.564 310.5,373.5C 317.449,369.925 318.115,365.425 312.5,360C 311.255,359.209 309.922,358.709 308.5,358.5C 308.5,312.833 308.5,267.167 308.5,221.5C 262.5,221.5 216.5,221.5 170.5,221.5 Z"/></g>
<g><path style="opacity:1" fill="#f9e1bf" d="M 340.5,220.5 C 386.833,220.5 433.167,220.5 479.5,220.5C 490.167,220.5 500.833,220.5 511.5,220.5C 511.5,279.833 511.5,339.167 511.5,398.5C 500.833,398.5 490.167,398.5 479.5,398.5C 478.912,389.897 479.578,381.564 481.5,373.5C 483.371,373.141 484.871,372.141 486,370.5C 488.213,364.006 486.046,360.006 479.5,358.5C 479.5,312.833 479.5,267.167 479.5,221.5C 433.5,221.5 387.5,221.5 341.5,221.5C 341.5,280.5 341.5,339.5 341.5,398.5C 341.167,398.5 340.833,398.5 340.5,398.5C 340.5,339.167 340.5,279.833 340.5,220.5 Z"/></g>
<g><path style="opacity:1" fill="#fdf0d9" d="M 479.5,358.5 C 471.826,358.334 464.159,358.5 456.5,359C 449.352,362.742 448.685,367.408 454.5,373C 463.494,373.5 472.494,373.666 481.5,373.5C 479.578,381.564 478.912,389.897 479.5,398.5C 433.5,398.5 387.5,398.5 341.5,398.5C 341.5,339.5 341.5,280.5 341.5,221.5C 387.5,221.5 433.5,221.5 479.5,221.5C 479.5,267.167 479.5,312.833 479.5,358.5 Z"/></g>
<g><path style="opacity:1" fill="#5691d8" d="M 28.5,245.5 C 37.8393,245.334 47.1726,245.5 56.5,246C 62.3037,251.641 61.6371,256.308 54.5,260C 46.1667,260.667 37.8333,260.667 29.5,260C 24.3106,257.087 23.1439,252.92 26,247.5C 26.9947,246.934 27.828,246.267 28.5,245.5 Z"/></g>
<g><path style="opacity:1" fill="#5790d5" d="M 198.5,245.5 C 207.839,245.334 217.173,245.5 226.5,246C 230.212,248.513 231.378,252.013 230,256.5C 228.786,258.049 227.286,259.215 225.5,260C 216.833,260.667 208.167,260.667 199.5,260C 193.192,255.615 192.859,250.782 198.5,245.5 Z"/></g>
<g><path style="opacity:1" fill="#5690d8" d="M 369.5,245.5 C 378.839,245.334 388.173,245.5 397.5,246C 402.986,251.081 402.653,255.748 396.5,260C 387.833,260.667 379.167,260.667 370.5,260C 364.292,255.58 363.958,250.747 369.5,245.5 Z"/></g>
<g><path style="opacity:1" fill="#ea9c58" d="M 281.5,287.5 C 279.22,286.36 276.886,285.193 274.5,284C 272.19,283.503 269.857,283.337 267.5,283.5C 269.989,275.688 273.656,268.521 278.5,262C 284.539,260.871 287.873,263.371 288.5,269.5C 286.935,275.871 284.602,281.871 281.5,287.5 Z"/></g>
<g><path style="opacity:1" fill="#ea9b59" d="M 430.5,280.5 C 428.887,283.286 427.054,285.953 425,288.5C 423.595,292.072 423.262,295.739 424,299.5C 426.636,299.545 429.47,299.712 432.5,300C 436.416,302.655 437.416,306.155 435.5,310.5C 439.886,311.795 444.219,311.628 448.5,310C 450.734,308.25 453.068,306.75 455.5,305.5C 463.763,305.671 466.263,309.671 463,317.5C 454.115,326.01 443.615,328.844 431.5,326C 428.898,325.023 426.398,323.856 424,322.5C 415.833,330.667 407.667,338.833 399.5,347C 392.864,350.33 388.531,348.497 386.5,341.5C 386.719,340.062 387.219,338.729 388,337.5C 396.681,328.986 405.181,320.319 413.5,311.5C 405.366,296.814 407.366,283.648 419.5,272C 426.999,270.069 430.666,272.902 430.5,280.5 Z"/></g>
<g><path style="opacity:1" fill="#d77f4a" d="M 455.5,305.5 C 453.068,306.75 450.734,308.25 448.5,310C 444.219,311.628 439.886,311.795 435.5,310.5C 437.416,306.155 436.416,302.655 432.5,300C 429.47,299.712 426.636,299.545 424,299.5C 423.262,295.739 423.595,292.072 425,288.5C 427.054,285.953 428.887,283.286 430.5,280.5C 438.315,274.956 446.649,274.122 455.5,278C 460.15,282.574 461.65,288.074 460,294.5C 458.973,298.426 457.473,302.093 455.5,305.5 Z"/></g>
<g><path style="opacity:1" fill="#5691d8" d="M 28.5,277.5 C 34.1764,277.334 39.8431,277.501 45.5,278C 50.9865,283.081 50.6531,287.748 44.5,292C 38.7194,292.903 33.0527,292.57 27.5,291C 23.3662,286.119 23.6996,281.619 28.5,277.5 Z"/></g>
<g><path style="opacity:1" fill="#5891d5" d="M 198.5,277.5 C 204.176,277.334 209.843,277.501 215.5,278C 222.406,283.146 222.073,287.813 214.5,292C 209.5,292.667 204.5,292.667 199.5,292C 193.192,287.615 192.859,282.782 198.5,277.5 Z"/></g>
<g><path style="opacity:1" fill="#5691d8" d="M 369.5,277.5 C 375.952,277.084 382.285,277.584 388.5,279C 391.916,284.464 390.916,288.797 385.5,292C 379.719,292.903 374.053,292.57 368.5,291C 364.285,286.134 364.618,281.634 369.5,277.5 Z"/></g>
<g><path style="opacity:1" fill="#fe656f" d="M 267.5,283.5 C 269.857,283.337 272.19,283.503 274.5,284C 276.886,285.193 279.22,286.36 281.5,287.5C 286.035,292.273 287.869,297.94 287,304.5C 276.083,333.366 255.25,348.033 224.5,348.5C 223.572,347.232 223.405,345.899 224,344.5C 231.386,339.048 237.386,332.381 242,324.5C 246.668,314.162 250.335,303.495 253,292.5C 256.317,287.09 261.15,284.09 267.5,283.5 Z"/></g>
<g><path style="opacity:1" fill="#97d72a" d="M 63.5,351.5 C 72.1343,343.698 80.3009,335.365 88,326.5C 88.9895,317.489 85.1561,314.323 76.5,317C 69,324.5 61.5,332 54,339.5C 53.5008,334.845 53.3342,330.179 53.5,325.5C 55.3339,303.833 67.0005,291.333 88.5,288C 113.435,282.938 122.602,292.771 116,317.5C 112.36,337.911 100.193,349.078 79.5,351C 74.1771,351.499 68.8437,351.666 63.5,351.5 Z"/></g>
<g><path style="opacity:1" fill="#83ba27" d="M 63.5,351.5 C 59.0836,358.486 53.917,359.153 48,353.5C 46.6061,348.572 47.9395,344.572 52,341.5C 52.1733,335.984 52.6733,330.651 53.5,325.5C 53.3342,330.179 53.5008,334.845 54,339.5C 61.5,332 69,324.5 76.5,317C 85.1561,314.323 88.9895,317.489 88,326.5C 80.3009,335.365 72.1343,343.698 63.5,351.5 Z"/></g>
<g><path style="opacity:1" fill="#5992d7" d="M 138.5,358.5 C 140.426,359.242 142.259,360.242 144,361.5C 146.987,367.387 145.487,371.387 139.5,373.5C 130.827,373.666 122.16,373.5 113.5,373C 112.584,372.626 111.75,372.126 111,371.5C 108.298,366.18 109.465,362.013 114.5,359C 122.493,358.5 130.493,358.334 138.5,358.5 Z"/></g>
<g><path style="opacity:1" fill="#5a91d4" d="M 308.5,358.5 C 309.922,358.709 311.255,359.209 312.5,360C 318.115,365.425 317.449,369.925 310.5,373.5C 301.494,373.666 292.494,373.5 283.5,373C 282.667,372.167 281.833,371.333 281,370.5C 279.276,365.269 280.776,361.435 285.5,359C 293.159,358.5 300.826,358.334 308.5,358.5 Z"/></g>
<g><path style="opacity:1" fill="#5891d7" d="M 479.5,358.5 C 486.046,360.006 488.213,364.006 486,370.5C 484.871,372.141 483.371,373.141 481.5,373.5C 472.494,373.666 463.494,373.5 454.5,373C 448.685,367.408 449.352,362.742 456.5,359C 464.159,358.5 471.826,358.334 479.5,358.5 Z"/></g>
<g><path style="opacity:0.99" fill="#a1e52d" d="M -0.5,398.5 C 45.8333,398.5 92.1667,398.5 138.5,398.5C 138.666,407.506 138.5,416.506 138,425.5C 135.661,441.005 126.827,450.005 111.5,452.5C 82.1648,452.667 52.8314,452.5 23.5,452C 11.6373,449.634 3.63732,442.801 -0.5,431.5C -0.5,420.5 -0.5,409.5 -0.5,398.5 Z"/></g>
<g><path style="opacity:1" fill="#97d729" d="M 138.5,398.5 C 149.167,398.5 159.833,398.5 170.5,398.5C 170.5,409.167 170.5,419.833 170.5,430.5C 167.539,440.301 161.205,447.134 151.5,451C 138.218,452.403 124.885,452.903 111.5,452.5C 126.827,450.005 135.661,441.005 138,425.5C 138.5,416.506 138.666,407.506 138.5,398.5 Z"/></g>
<g><path style="opacity:0.999" fill="#fe636e" d="M 170.5,398.5 C 216.5,398.5 262.5,398.5 308.5,398.5C 308.666,408.839 308.5,419.172 308,429.5C 304.68,442.99 296.18,450.657 282.5,452.5C 253.165,452.667 223.831,452.5 194.5,452C 181.593,450.258 173.593,443.091 170.5,430.5C 170.5,419.833 170.5,409.167 170.5,398.5 Z"/></g>
<g><path style="opacity:1" fill="#fd4755" d="M 308.5,398.5 C 319.167,398.5 329.833,398.5 340.5,398.5C 340.5,409.167 340.5,419.833 340.5,430.5C 337.407,443.091 329.407,450.258 316.5,452C 305.172,452.5 293.838,452.667 282.5,452.5C 296.18,450.657 304.68,442.99 308,429.5C 308.5,419.172 308.666,408.839 308.5,398.5 Z"/></g>
<g><path style="opacity:0.998" fill="#d77e4a" d="M 340.5,398.5 C 340.833,398.5 341.167,398.5 341.5,398.5C 387.5,398.5 433.5,398.5 479.5,398.5C 479.667,409.172 479.5,419.839 479,430.5C 474.714,442.292 466.547,449.626 454.5,452.5C 424.498,452.667 394.498,452.5 364.5,452C 352.186,449.513 344.186,442.346 340.5,430.5C 340.5,419.833 340.5,409.167 340.5,398.5 Z"/></g>
<g><path style="opacity:1" fill="#c86d36" d="M 479.5,398.5 C 490.167,398.5 500.833,398.5 511.5,398.5C 511.5,409.5 511.5,420.5 511.5,431.5C 507.363,442.801 499.363,449.634 487.5,452C 476.505,452.5 465.505,452.667 454.5,452.5C 466.547,449.626 474.714,442.292 479,430.5C 479.5,419.839 479.667,409.172 479.5,398.5 Z"/></g>
</svg>
