<?xml version="1.0" encoding="UTF-8"?>
<!DOCTYPE svg PUBLIC "-//W3C//DTD SVG 1.1//EN" "http://www.w3.org/Graphics/SVG/1.1/DTD/svg11.dtd">
<svg xmlns="http://www.w3.org/2000/svg" version="1.1" width="512px" height="512px" style="shape-rendering:geometricPrecision; text-rendering:geometricPrecision; image-rendering:optimizeQuality; fill-rule:evenodd; clip-rule:evenodd" xmlns:xlink="http://www.w3.org/1999/xlink">
<g><path style="opacity:0.978" fill="#010100" d="M 35.5,-0.5 C 38.1667,-0.5 40.8333,-0.5 43.5,-0.5C 59.5448,9.589 65.7114,23.9223 62,42.5C 59.1373,49.3537 54.804,55.0204 49,59.5C 48.4394,67.916 49.1061,76.2493 51,84.5C 60.0465,69.0596 73.5465,62.2263 91.5,64C 93.3333,64.5 94.5,65.6667 95,67.5C 96.9708,93.3581 85.1375,108.025 59.5,111.5C 61.3076,117.748 63.8076,123.748 67,129.5C 77.6516,104.512 96.4849,93.3453 123.5,96C 125.333,96.5 126.5,97.6667 127,99.5C 127.333,94.1667 127.667,88.8333 128,83.5C 128.5,81.6667 129.667,80.5 131.5,80C 157.427,77.4798 180.76,83.9798 201.5,99.5C 201.833,99.3333 202.167,99.1667 202.5,99C 199.64,95.3186 198.807,91.1519 200,86.5C 203.605,82.5531 207.938,81.5531 213,83.5C 228.32,78.8464 238.32,68.8464 243,53.5C 243.143,45.7714 243.81,38.1047 245,30.5C 248.913,20.2701 256.413,15.1035 267.5,15C 272.015,10.3181 276.681,5.81807 281.5,1.5C 285.833,5.16667 289.833,9.16667 293.5,13.5C 291.35,16.1506 289.017,18.6506 286.5,21C 295.487,27.8251 297.987,36.6584 294,47.5C 285.758,68.7174 273.258,86.8841 256.5,102C 242.045,112.556 226.711,114.556 210.5,108C 217.269,115.038 222.935,122.871 227.5,131.5C 275.276,91.2274 322.609,50.3941 369.5,9C 374.658,4.75838 380.325,1.59171 386.5,-0.5C 392.5,-0.5 398.5,-0.5 404.5,-0.5C 427.226,8.28158 435.726,24.6149 430,48.5C 427.73,53.0978 425.063,57.4311 422,61.5C 394.048,93.9069 366.215,126.407 338.5,159C 352.564,157.607 362.064,163.44 367,176.5C 367.667,186.5 367.667,196.5 367,206.5C 363.204,217.802 355.371,223.468 343.5,223.5C 343.667,241.836 343.5,260.17 343,278.5C 342.333,281.167 341.667,283.833 341,286.5C 321.513,332.125 301.346,377.458 280.5,422.5C 285.456,423.494 290.456,423.827 295.5,423.5C 295.334,416.825 295.5,410.158 296,403.5C 297.539,400.479 300.039,399.146 303.5,399.5C 302.945,387.781 306.945,377.948 315.5,370C 330.143,358.676 345.476,348.343 361.5,339C 366.023,337.203 370.69,336.036 375.5,335.5C 375.665,332.15 375.498,328.817 375,325.5C 369.753,322.794 364.586,319.96 359.5,317C 349.029,305.756 347.862,293.59 356,280.5C 366.146,270.057 377.979,267.724 391.5,273.5C 394.257,266.15 397.924,259.317 402.5,253C 410.69,247.202 419.69,245.035 429.5,246.5C 431.727,241.046 434.227,235.713 437,230.5C 445.081,222.417 454.247,220.917 464.5,226C 467.433,228.264 469.6,231.098 471,234.5C 471.333,250.5 471.667,266.5 472,282.5C 475.181,288.527 477.514,294.86 479,301.5C 479.118,310.56 479.785,319.56 481,328.5C 488.352,333.009 495.352,338.009 502,343.5C 506.52,348.877 509.686,354.877 511.5,361.5C 511.5,384.167 511.5,406.833 511.5,429.5C 509.132,445.095 502.465,458.595 491.5,470C 486.997,473.755 481.997,476.755 476.5,479C 470.804,479.17 465.138,479.67 459.5,480.5C 447.663,497.348 431.663,507.681 411.5,511.5C 392.833,511.5 374.167,511.5 355.5,511.5C 354.167,510.167 352.833,510.167 351.5,511.5C 292.167,511.5 232.833,511.5 173.5,511.5C 168.396,510.113 164.063,507.447 160.5,503.5C 158.084,501.092 156.084,498.426 154.5,495.5C 149.852,484.294 150.852,473.627 157.5,463.5C 153.148,459.981 149.314,455.981 146,451.5C 144.011,447.747 143.178,443.747 143.5,439.5C 148.37,424.811 158.037,420.311 172.5,426C 177.694,430.027 183.027,433.86 188.5,437.5C 189.5,437 190.5,436.5 191.5,436C 193.054,425.948 196.22,416.448 201,407.5C 217.258,389.084 235.758,386.584 256.5,400C 260.393,403.39 263.727,407.223 266.5,411.5C 285.143,372.079 303.31,332.412 321,292.5C 324.256,285.144 326.422,277.478 327.5,269.5C 327.5,259.5 327.5,249.5 327.5,239.5C 327.5,234.167 327.5,228.833 327.5,223.5C 316.833,223.5 306.167,223.5 295.5,223.5C 295.5,220.833 295.5,218.167 295.5,215.5C 295.5,212.833 295.5,210.167 295.5,207.5C 312.503,207.667 329.503,207.5 346.5,207C 350.39,205.055 352.057,201.888 351.5,197.5C 351.666,191.824 351.499,186.157 351,180.5C 350.167,178.333 348.667,176.833 346.5,176C 318.835,175.5 291.169,175.333 263.5,175.5C 250.167,175.5 236.833,175.5 223.5,175.5C 218.167,175.5 212.833,175.5 207.5,175.5C 151.5,175.5 95.5,175.5 39.5,175.5C 32.3846,175.075 25.3846,175.575 18.5,177C 17.2986,177.903 16.4652,179.069 16,180.5C 15.5006,186.157 15.3339,191.824 15.5,197.5C 14.9433,201.888 16.6099,205.055 20.5,207C 96.1659,207.5 171.833,207.667 247.5,207.5C 247.5,210.167 247.5,212.833 247.5,215.5C 247.5,218.167 247.5,220.833 247.5,223.5C 175.5,223.5 103.5,223.5 31.5,223.5C 16.1563,226.167 5.48968,220.5 -0.5,206.5C -0.5,196.5 -0.5,186.5 -0.5,176.5C 2.64896,168.519 8.31563,163.019 16.5,160C 33.1667,159.667 49.8333,159.333 66.5,159C 61.7262,153.949 57.5595,148.449 54,142.5C 32.0451,157.54 13.8784,153.873 -0.5,131.5C -0.5,128.833 -0.5,126.167 -0.5,123.5C 6.60789,112.578 16.6079,105.745 29.5,103C 14.0935,99.0914 4.09349,89.5914 -0.5,74.5C -0.5,69.5 -0.5,64.5 -0.5,59.5C 2.02301,56.0728 5.52301,54.7395 10,55.5C 17.3909,55.5745 24.2242,57.5745 30.5,61.5C 30.8333,61.1667 31.1667,60.8333 31.5,60.5C 16.2562,48.5204 12.0896,33.5204 19,15.5C 23.7341,9.26416 29.2341,3.93082 35.5,-0.5 Z M 127.5,100.5 C 131.007,122.019 139.34,141.519 152.5,159C 131.833,159.667 111.167,159.667 90.5,159C 90.1667,158.667 89.8333,158.333 89.5,158C 115.757,148.025 128.423,128.858 127.5,100.5 Z"/></g>
<g><path style="opacity:0.96" fill="#000000" d="M 96.5,-0.5 C 101.167,-0.5 105.833,-0.5 110.5,-0.5C 121.942,3.79358 127.775,12.1269 128,24.5C 141.459,20.8969 151.459,25.2302 158,37.5C 163.196,57.4757 155.696,68.809 135.5,71.5C 123.625,71.4631 115.792,65.7965 112,54.5C 111.667,51.8333 111.333,49.1667 111,46.5C 95.9933,50.1636 85.66,44.8303 80,30.5C 77.1465,15.5328 82.6465,5.19942 96.5,-0.5 Z"/></g>
<g><path style="opacity:1" fill="#e7b588" d="M 414.5,41.5 C 403.614,40.9609 394.28,44.4609 386.5,52C 358.472,80.3615 330.139,108.362 301.5,136C 295.034,139.933 288.034,142.266 280.5,143C 267.171,143.5 253.837,143.667 240.5,143.5C 288.388,101.212 336.721,59.3785 385.5,18C 393.571,14.2407 401.238,14.9073 408.5,20C 414.881,25.9721 416.881,33.1387 414.5,41.5 Z"/></g>
<g><path style="opacity:1" fill="#797f90" d="M 100.5,15.5 C 108.658,14.8229 112.158,18.4895 111,26.5C 108.774,30.8608 105.274,32.3608 100.5,31C 96.1392,28.7742 94.6392,25.2742 96,20.5C 97.025,18.313 98.525,16.6464 100.5,15.5 Z"/></g>
<g><path style="opacity:1" fill="#55ca4b" d="M 38.5,17.5 C 49.8931,26.2083 50.3931,35.5416 40,45.5C 29.6177,36.5106 29.1177,27.1772 38.5,17.5 Z"/></g>
<g><path style="opacity:1" fill="#e6302f" d="M 263.5,31.5 C 267.687,31.3947 271.687,32.228 275.5,34C 277.736,34.7339 279.069,36.2339 279.5,38.5C 273.151,56.7102 263.151,72.5435 249.5,86C 243.749,91.2121 237.082,94.2121 229.5,95C 251.15,81.8639 261.317,62.6972 260,37.5C 260.564,35.1133 261.73,33.1133 263.5,31.5 Z"/></g>
<g><path style="opacity:1" fill="#797f90" d="M 132.5,39.5 C 140.658,38.8229 144.158,42.4895 143,50.5C 140.774,54.8608 137.274,56.3608 132.5,55C 128.139,52.7742 126.639,49.2742 128,44.5C 129.025,42.313 130.525,40.6464 132.5,39.5 Z"/></g>
<g><path style="opacity:1" fill="#d79b63" d="M 414.5,41.5 C 412.683,46.4596 409.85,50.7929 406,54.5C 375.792,89.0389 345.959,123.872 316.5,159C 284.833,159.667 253.167,159.667 221.5,159C 227.436,153.219 233.77,148.052 240.5,143.5C 253.837,143.667 267.171,143.5 280.5,143C 288.034,142.266 295.034,139.933 301.5,136C 330.139,108.362 358.472,80.3615 386.5,52C 394.28,44.4609 403.614,40.9609 414.5,41.5 Z"/></g>
<g><path style="opacity:1" fill="#6bce52" d="M 17.5,73.5 C 22.7358,75.7323 26.7358,79.399 29.5,84.5C 28.21,85.4077 26.8767,85.241 25.5,84C 21.8252,81.1725 19.1585,77.6725 17.5,73.5 Z"/></g>
<g><path style="opacity:1" fill="#73d255" d="M 75.5,81.5 C 76.3764,81.3691 77.0431,81.7025 77.5,82.5C 74.8333,87.1667 71.1667,90.8333 66.5,93.5C 65.5923,92.21 65.759,90.8767 67,89.5C 69.7291,86.6007 72.5624,83.934 75.5,81.5 Z"/></g>
<g><path style="opacity:1" fill="#72e26a" d="M 208.5,132.5 C 207.345,136.332 205.012,139.332 201.5,141.5C 186.701,127.202 172.035,112.702 157.5,98C 179.752,101.754 196.752,113.254 208.5,132.5 Z"/></g>
<g><path style="opacity:1" fill="#a6f06c" d="M 106.5,113.5 C 107.239,113.369 107.906,113.536 108.5,114C 99.6349,123.386 90.6349,131.886 81.5,139.5C 85.0687,126.264 93.4021,117.598 106.5,113.5 Z"/></g>
<g><path style="opacity:1" fill="#26ba76" d="M 182.5,146.5 C 170.017,139.354 159.017,130.354 149.5,119.5C 148.455,116.886 147.955,114.22 148,111.5C 159.702,123.035 171.202,134.702 182.5,146.5 Z"/></g>
<g><path style="opacity:1" fill="#5ccd4e" d="M 106.5,113.5 C 107.568,112.566 108.901,112.232 110.5,112.5C 106.833,128.833 96.8333,138.833 80.5,142.5C 80.2627,141.209 80.596,140.209 81.5,139.5C 90.6349,131.886 99.6349,123.386 108.5,114C 107.906,113.536 107.239,113.369 106.5,113.5 Z"/></g>
<g><path style="opacity:1" fill="#a4ee6b" d="M 44.5,127.5 C 35.8333,127.5 27.1667,127.5 18.5,127.5C 27.1874,117.045 36.1874,116.879 45.5,127C 45.2716,127.399 44.9382,127.565 44.5,127.5 Z"/></g>
<g><path style="opacity:1" fill="#0f9f83" d="M 149.5,119.5 C 159.017,130.354 170.017,139.354 182.5,146.5C 186.964,150.463 191.298,154.63 195.5,159C 189.167,159.667 182.833,159.667 176.5,159C 163.884,148.257 154.884,135.09 149.5,119.5 Z"/></g>
<g><path style="opacity:1" fill="#55ca4b" d="M 18.5,127.5 C 27.1667,127.5 35.8333,127.5 44.5,127.5C 35.6692,137.701 26.6692,137.868 17.5,128C 17.7284,127.601 18.0618,127.435 18.5,127.5 Z"/></g>
<g><path style="opacity:1" fill="#55ca4b" d="M 208.5,132.5 C 211.167,136.164 213,140.164 214,144.5C 212.587,146.414 210.753,147.747 208.5,148.5C 205.812,146.479 203.479,144.146 201.5,141.5C 205.012,139.332 207.345,136.332 208.5,132.5 Z"/></g>
<g><path style="opacity:1" fill="#c6864d" d="M 39.5,175.5 C 39.5441,179.09 41.2108,181.59 44.5,183C 97.1667,183.667 149.833,183.667 202.5,183C 205.789,181.59 207.456,179.09 207.5,175.5C 212.833,175.5 218.167,175.5 223.5,175.5C 223.544,179.09 225.211,181.59 228.5,183C 238.5,183.667 248.5,183.667 258.5,183C 261.789,181.59 263.456,179.09 263.5,175.5C 291.169,175.333 318.835,175.5 346.5,176C 348.667,176.833 350.167,178.333 351,180.5C 351.499,186.157 351.666,191.824 351.5,197.5C 350.527,197.987 349.527,198.487 348.5,199C 239.167,199.667 129.833,199.667 20.5,199C 18.7525,198.648 17.0858,198.148 15.5,197.5C 15.3339,191.824 15.5006,186.157 16,180.5C 16.4652,179.069 17.2986,177.903 18.5,177C 25.3846,175.575 32.3846,175.075 39.5,175.5 Z"/></g>
<g><path style="opacity:1" fill="#d89b63" d="M 39.5,175.5 C 95.5,175.5 151.5,175.5 207.5,175.5C 207.456,179.09 205.789,181.59 202.5,183C 149.833,183.667 97.1667,183.667 44.5,183C 41.2108,181.59 39.5441,179.09 39.5,175.5 Z"/></g>
<g><path style="opacity:1" fill="#d89b63" d="M 223.5,175.5 C 236.833,175.5 250.167,175.5 263.5,175.5C 263.456,179.09 261.789,181.59 258.5,183C 248.5,183.667 238.5,183.667 228.5,183C 225.211,181.59 223.544,179.09 223.5,175.5 Z"/></g>
<g><path style="opacity:1" fill="#b46d2e" d="M 15.5,197.5 C 17.0858,198.148 18.7525,198.648 20.5,199C 129.833,199.667 239.167,199.667 348.5,199C 349.527,198.487 350.527,197.987 351.5,197.5C 352.057,201.888 350.39,205.055 346.5,207C 329.503,207.5 312.503,207.667 295.5,207.5C 295.5,210.167 295.5,212.833 295.5,215.5C 290.167,215.5 284.833,215.5 279.5,215.5C 279.5,212.833 279.5,210.167 279.5,207.5C 274.167,207.5 268.833,207.5 263.5,207.5C 263.5,210.167 263.5,212.833 263.5,215.5C 258.167,215.5 252.833,215.5 247.5,215.5C 247.5,212.833 247.5,210.167 247.5,207.5C 171.833,207.667 96.1659,207.5 20.5,207C 16.6099,205.055 14.9433,201.888 15.5,197.5 Z"/></g>
<g><path style="opacity:1" fill="#000000" d="M 279.5,215.5 C 279.5,218.167 279.5,220.833 279.5,223.5C 274.167,223.5 268.833,223.5 263.5,223.5C 263.5,220.833 263.5,218.167 263.5,215.5C 263.5,212.833 263.5,210.167 263.5,207.5C 268.833,207.5 274.167,207.5 279.5,207.5C 279.5,210.167 279.5,212.833 279.5,215.5 Z"/></g>
<g><path style="opacity:1" fill="#5e3117" d="M 247.5,215.5 C 252.833,215.5 258.167,215.5 263.5,215.5C 263.5,218.167 263.5,220.833 263.5,223.5C 268.833,223.5 274.167,223.5 279.5,223.5C 279.5,220.833 279.5,218.167 279.5,215.5C 284.833,215.5 290.167,215.5 295.5,215.5C 295.5,218.167 295.5,220.833 295.5,223.5C 306.167,223.5 316.833,223.5 327.5,223.5C 327.5,228.833 327.5,234.167 327.5,239.5C 247.166,239.333 166.833,239.5 86.5,240C 68.1162,246.929 60.7829,260.095 64.5,279.5C 55.3957,279.744 47.5624,276.744 41,270.5C 40.51,271.793 40.3433,273.127 40.5,274.5C 39.5051,263.012 39.1717,251.345 39.5,239.5C 36.8333,239.5 34.1667,239.5 31.5,239.5C 31.5,234.167 31.5,228.833 31.5,223.5C 103.5,223.5 175.5,223.5 247.5,223.5C 247.5,220.833 247.5,218.167 247.5,215.5 Z"/></g>
<g><path style="opacity:0.975" fill="#000000" d="M 31.5,239.5 C 34.1667,239.5 36.8333,239.5 39.5,239.5C 39.1717,251.345 39.5051,263.012 40.5,274.5C 41.4037,280.781 43.2371,286.781 46,292.5C 66.5592,338.619 87.3925,384.619 108.5,430.5C 116.138,431.497 123.804,431.831 131.5,431.5C 132.833,431.5 134.167,431.5 135.5,431.5C 135.5,434.167 135.5,436.833 135.5,439.5C 135.5,442.167 135.5,444.833 135.5,447.5C 127.5,447.5 119.5,447.5 111.5,447.5C 111.333,461.837 111.5,476.171 112,490.5C 112.833,492.667 114.333,494.167 116.5,495C 122.825,495.5 129.158,495.666 135.5,495.5C 135.5,498.167 135.5,500.833 135.5,503.5C 135.5,506.167 135.5,508.833 135.5,511.5C 127.833,511.5 120.167,511.5 112.5,511.5C 105.659,508.832 100.492,504.166 97,497.5C 95.7049,478.898 95.0382,460.232 95,441.5C 71.6117,390 48.6117,338.333 26,286.5C 25.3333,283.833 24.6667,281.167 24,278.5C 23.5001,265.504 23.3334,252.504 23.5,239.5C 26.1667,239.5 28.8333,239.5 31.5,239.5 Z"/></g>
<g><path style="opacity:1" fill="#7a4a20" d="M 327.5,239.5 C 327.5,249.5 327.5,259.5 327.5,269.5C 316.571,278.903 303.904,282.236 289.5,279.5C 286.22,278.631 282.887,277.964 279.5,277.5C 276.922,277.442 274.589,278.109 272.5,279.5C 203.167,279.5 133.833,279.5 64.5,279.5C 60.7829,260.095 68.1162,246.929 86.5,240C 166.833,239.5 247.166,239.333 327.5,239.5 Z"/></g>
<g><path style="opacity:1" fill="#47be61" d="M 455.5,261.5 C 452.714,259.887 450.047,258.054 447.5,256C 446.177,255.184 445.511,254.017 445.5,252.5C 446.77,248.362 448.437,244.362 450.5,240.5C 452.045,239.548 453.712,239.215 455.5,239.5C 455.5,246.833 455.5,254.167 455.5,261.5 Z"/></g>
<g><path style="opacity:1" fill="#36904a" d="M 445.5,252.5 C 445.511,254.017 446.177,255.184 447.5,256C 450.047,258.054 452.714,259.887 455.5,261.5C 455.657,262.873 455.49,264.207 455,265.5C 450.688,263.011 446.855,260.011 443.5,256.5C 443.668,254.829 444.335,253.496 445.5,252.5 Z"/></g>
<g><path style="opacity:1" fill="#f9f7f3" d="M 463.5,319.5 C 460.309,308.634 454.643,299.134 446.5,291C 437.833,285 429.167,279 420.5,273C 417.372,272.159 414.372,271.325 411.5,270.5C 413.382,263.858 417.715,261.692 424.5,264C 433.167,270 441.833,276 450.5,282C 460.89,292.334 465.223,304.834 463.5,319.5 Z"/></g>
<g><path style="opacity:1" fill="#79491f" d="M 64.5,279.5 C 86.4447,330.333 108.778,380.999 131.5,431.5C 123.804,431.831 116.138,431.497 108.5,430.5C 87.3925,384.619 66.5592,338.619 46,292.5C 43.2371,286.781 41.4037,280.781 40.5,274.5C 40.3433,273.127 40.51,271.793 41,270.5C 47.5624,276.744 55.3957,279.744 64.5,279.5 Z"/></g>
<g><path style="opacity:1" fill="#835235" d="M 327.5,269.5 C 326.422,277.478 324.256,285.144 321,292.5C 303.31,332.412 285.143,372.079 266.5,411.5C 263.727,407.223 260.393,403.39 256.5,400C 235.758,386.584 217.258,389.084 201,407.5C 196.22,416.448 193.054,425.948 191.5,436C 190.5,436.5 189.5,437 188.5,437.5C 183.027,433.86 177.694,430.027 172.5,426C 158.037,420.311 148.37,424.811 143.5,439.5C 140.833,439.5 138.167,439.5 135.5,439.5C 135.5,436.833 135.5,434.167 135.5,431.5C 134.167,431.5 132.833,431.5 131.5,431.5C 108.778,380.999 86.4447,330.333 64.5,279.5C 133.833,279.5 203.167,279.5 272.5,279.5C 267.15,291.048 270.15,300.215 281.5,307C 292.191,312.065 298.525,308.899 300.5,297.5C 299.381,289.925 295.714,283.925 289.5,279.5C 303.904,282.236 316.571,278.903 327.5,269.5 Z"/></g>
<g><path style="opacity:1" fill="#f3e6d3" d="M 411.5,270.5 C 414.372,271.325 417.372,272.159 420.5,273C 429.167,279 437.833,285 446.5,291C 454.643,299.134 460.309,308.634 463.5,319.5C 463.089,338.913 453.089,349.246 433.5,350.5C 422.979,343.312 412.479,335.979 402,328.5C 399.989,324.433 398.989,320.1 399,315.5C 397.833,313.667 396.667,311.833 395.5,310C 386.297,304.899 376.964,300.065 367.5,295.5C 368.902,290.435 372.235,287.435 377.5,286.5C 383.037,287.935 388.037,290.435 392.5,294C 396.793,295.202 400.293,294.035 403,290.5C 405.566,283.61 408.399,276.943 411.5,270.5 Z"/></g>
<g><path style="opacity:1" fill="#f4f7f9" d="M 289.5,279.5 C 295.714,283.925 299.381,289.925 300.5,297.5C 298.525,308.899 292.191,312.065 281.5,307C 270.15,300.215 267.15,291.048 272.5,279.5C 274.589,278.109 276.922,277.442 279.5,277.5C 282.887,277.964 286.22,278.631 289.5,279.5 Z"/></g>
<g><path style="opacity:1" fill="#f2f4f5" d="M 247.5,293.5 C 256.364,293.527 260.531,297.861 260,306.5C 255.192,310.681 250.858,310.014 247,304.5C 243.566,300.538 243.733,296.871 247.5,293.5 Z"/></g>
<g><path style="opacity:1" fill="#efd0a3" d="M 367.5,295.5 C 376.964,300.065 386.297,304.899 395.5,310C 396.667,311.833 397.833,313.667 399,315.5C 398.989,320.1 399.989,324.433 402,328.5C 412.479,335.979 422.979,343.312 433.5,350.5C 430.221,351.492 426.888,351.659 423.5,351C 414.459,342.647 403.792,337.814 391.5,336.5C 391.666,329.825 391.5,323.158 391,316.5C 385.077,311.785 378.577,307.951 371.5,305C 368.38,302.592 367.047,299.426 367.5,295.5 Z"/></g>
<g><path style="opacity:1" fill="#f4ced1" d="M 475.5,357.5 C 472.536,356.192 470.203,354.192 468.5,351.5C 470.5,349.329 472.334,346.996 474,344.5C 479.401,348.129 479.901,352.462 475.5,357.5 Z"/></g>
<g><path style="opacity:1" fill="#f75655" d="M 446.5,392.5 C 433.717,383.933 421.05,375.099 408.5,366C 391.783,357.445 375.116,357.445 358.5,366C 345.95,375.099 333.283,383.933 320.5,392.5C 321.751,387.738 324.418,383.905 328.5,381C 341.956,370.882 355.956,361.549 370.5,353C 383.189,349.804 395.189,351.471 406.5,358C 418.95,366.782 431.117,375.949 443,385.5C 444.705,387.577 445.872,389.91 446.5,392.5 Z"/></g>
<g><path style="opacity:1" fill="#f38d96" d="M 468.5,351.5 C 470.203,354.192 472.536,356.192 475.5,357.5C 473.23,364.103 468.897,368.769 462.5,371.5C 459.763,367.759 456.43,364.759 452.5,362.5C 458.529,359.821 463.862,356.154 468.5,351.5 Z"/></g>
<g><path style="opacity:1" fill="#ef3332" d="M 446.5,392.5 C 447.369,394.717 447.702,397.05 447.5,399.5C 415.5,399.5 383.5,399.5 351.5,399.5C 351.5,402.167 351.5,404.833 351.5,407.5C 346.167,407.5 340.833,407.5 335.5,407.5C 335.5,404.833 335.5,402.167 335.5,399.5C 330.167,399.5 324.833,399.5 319.5,399.5C 319.298,397.05 319.631,394.717 320.5,392.5C 333.283,383.933 345.95,375.099 358.5,366C 375.116,357.445 391.783,357.445 408.5,366C 421.05,375.099 433.717,383.933 446.5,392.5 Z"/></g>
<g><path style="opacity:1" fill="#d7747e" d="M 452.5,362.5 C 456.43,364.759 459.763,367.759 462.5,371.5C 460.648,372.961 458.482,373.961 456,374.5C 452.275,371.384 448.442,368.384 444.5,365.5C 447.026,364.103 449.692,363.103 452.5,362.5 Z"/></g>
<g><path style="opacity:1" fill="#f6f3f5" d="M 391.5,365.5 C 401.264,365.752 405.264,370.585 403.5,380C 395.446,382.171 390.446,379.004 388.5,370.5C 389.092,368.577 390.092,366.911 391.5,365.5 Z"/></g>
<g><path style="opacity:1" fill="#f2e6d4" d="M 471.5,404.5 C 471.5,398.167 471.5,391.833 471.5,385.5C 481.72,379.941 488.72,371.607 492.5,360.5C 493.584,361.665 494.417,362.998 495,364.5C 495.667,376.5 495.667,388.5 495,400.5C 490.442,410.372 482.609,415.039 471.5,414.5C 471.5,411.167 471.5,407.833 471.5,404.5 Z"/></g>
<g><path style="opacity:1" fill="#f7eaec" d="M 407.5,381.5 C 413.144,381.297 415.144,383.797 413.5,389C 408.031,389.219 406.031,386.719 407.5,381.5 Z"/></g>
<g><path style="opacity:1" fill="#efd0a3" d="M 471.5,385.5 C 471.5,391.833 471.5,398.167 471.5,404.5C 470.049,401.732 467.716,400.065 464.5,399.5C 463.752,396.503 463.085,393.503 462.5,390.5C 465.299,388.597 468.299,386.931 471.5,385.5 Z"/></g>
<g><path style="opacity:1" fill="#d89b63" d="M 335.5,407.5 C 340.833,407.5 346.167,407.5 351.5,407.5C 351.5,410.167 351.5,412.833 351.5,415.5C 370.167,415.5 388.833,415.5 407.5,415.5C 407.456,419.09 405.789,421.59 402.5,423C 379.167,423.667 355.833,423.667 332.5,423C 329.211,421.59 327.544,419.09 327.5,415.5C 330.167,415.5 332.833,415.5 335.5,415.5C 335.5,412.833 335.5,410.167 335.5,407.5 Z"/></g>
<g><path style="opacity:1" fill="#efcacd" d="M 219.5,421.5 C 214.375,425.114 210.709,429.781 208.5,435.5C 208.407,425.69 212.074,417.69 219.5,411.5C 220.401,414.795 220.401,418.128 219.5,421.5 Z"/></g>
<g><path style="opacity:1" fill="#b26c2e" d="M 319.5,415.5 C 319.334,425.506 319.5,435.506 320,445.5C 326.084,473.749 343.584,487.749 372.5,487.5C 369.334,489.154 367.667,491.821 367.5,495.5C 343.529,494.345 326.362,483.012 316,461.5C 314.798,458.226 313.798,454.893 313,451.5C 311.635,439.547 311.135,427.547 311.5,415.5C 314.167,415.5 316.833,415.5 319.5,415.5 Z"/></g>
<g><path style="opacity:1" fill="#c7874e" d="M 319.5,415.5 C 322.167,415.5 324.833,415.5 327.5,415.5C 327.544,419.09 329.211,421.59 332.5,423C 355.833,423.667 379.167,423.667 402.5,423C 405.789,421.59 407.456,419.09 407.5,415.5C 420.833,415.5 434.167,415.5 447.5,415.5C 447.666,425.506 447.5,435.506 447,445.5C 442.039,469.961 427.205,483.961 402.5,487.5C 392.5,487.5 382.5,487.5 372.5,487.5C 343.584,487.749 326.084,473.749 320,445.5C 319.5,435.506 319.334,425.506 319.5,415.5 Z"/></g>
<g><path style="opacity:1" fill="#b36d2e" d="M 447.5,415.5 C 450.167,415.5 452.833,415.5 455.5,415.5C 455.666,425.506 455.5,435.506 455,445.5C 450.812,473.187 434.979,489.521 407.5,494.5C 406.956,491.3 405.29,488.967 402.5,487.5C 427.205,483.961 442.039,469.961 447,445.5C 447.5,435.506 447.666,425.506 447.5,415.5 Z"/></g>
<g><path style="opacity:1" fill="#f1e5d3" d="M 270.5,474.5 C 267.466,477.241 263.799,478.741 259.5,479C 252.174,479.5 244.841,479.666 237.5,479.5C 234.319,470.227 232.985,460.56 233.5,450.5C 233.693,436.373 235.027,422.373 237.5,408.5C 243.505,409.984 248.338,413.318 252,418.5C 255.667,423.5 259.333,428.5 263,433.5C 263.508,447.564 266.008,461.231 270.5,474.5 Z"/></g>
<g><path style="opacity:1" fill="#f68f99" d="M 219.5,421.5 C 216.856,439.82 216.856,458.154 219.5,476.5C 219.5,477.5 219.5,478.5 219.5,479.5C 214.833,479.5 210.167,479.5 205.5,479.5C 203.509,464.584 204.509,449.918 208.5,435.5C 210.709,429.781 214.375,425.114 219.5,421.5 Z"/></g>
<g><path style="opacity:1" fill="#cebd8a" d="M 482.5,454.5 C 477.553,452.552 473.886,449.219 471.5,444.5C 471.5,439.833 471.5,435.167 471.5,430.5C 479.492,430.235 487.159,428.569 494.5,425.5C 493.962,436.711 489.962,446.378 482.5,454.5 Z"/></g>
<g><path style="opacity:1" fill="#c5864d" d="M 135.5,439.5 C 138.167,439.5 140.833,439.5 143.5,439.5C 143.178,443.747 144.011,447.747 146,451.5C 149.314,455.981 153.148,459.981 157.5,463.5C 150.852,473.627 149.852,484.294 154.5,495.5C 146.193,496.431 140.359,493.098 137,485.5C 135.559,472.908 135.059,460.241 135.5,447.5C 135.5,444.833 135.5,442.167 135.5,439.5 Z"/></g>
<g><path style="opacity:1" fill="#bcac7e" d="M 279.5,439.5 C 284.833,439.5 290.167,439.5 295.5,439.5C 295.951,461.9 304.618,480.4 321.5,495C 312.052,497.259 303.886,495.092 297,488.5C 286.319,473.96 280.485,457.626 279.5,439.5 Z"/></g>
<g><path style="opacity:1" fill="#44b55c" d="M 173.5,449.5 C 168.886,446.883 164.553,443.883 160.5,440.5C 162.435,439.291 164.435,439.458 166.5,441C 169.5,443.333 172.5,445.667 175.5,448C 174.956,448.717 174.289,449.217 173.5,449.5 Z"/></g>
<g><path style="opacity:1" fill="#35904a" d="M 160.5,440.5 C 164.553,443.883 168.886,446.883 173.5,449.5C 172.594,451.914 170.928,452.747 168.5,452C 165.667,449.167 162.833,446.333 160,443.5C 159.26,442.251 159.427,441.251 160.5,440.5 Z"/></g>
<g><path style="opacity:1" fill="#b5a579" d="M 471.5,444.5 C 473.886,449.219 477.553,452.552 482.5,454.5C 478.757,459.572 473.757,462.572 467.5,463.5C 469.089,457.22 470.423,450.887 471.5,444.5 Z"/></g>
<g><path style="opacity:1" fill="#d89b63" d="M 135.5,447.5 C 135.059,460.241 135.559,472.908 137,485.5C 140.359,493.098 146.193,496.431 154.5,495.5C 156.084,498.426 158.084,501.092 160.5,503.5C 152.167,503.5 143.833,503.5 135.5,503.5C 135.5,500.833 135.5,498.167 135.5,495.5C 129.158,495.666 122.825,495.5 116.5,495C 114.333,494.167 112.833,492.667 112,490.5C 111.5,476.171 111.333,461.837 111.5,447.5C 119.5,447.5 127.5,447.5 135.5,447.5 Z"/></g>
<g><path style="opacity:1" fill="#f5f1eb" d="M 188.5,475.5 C 188.5,476.833 188.5,478.167 188.5,479.5C 181.416,480.126 174.75,479.459 168.5,477.5C 168.933,474.805 170.266,472.638 172.5,471C 177.956,467.213 183.123,463.046 188,458.5C 188.499,464.157 188.666,469.824 188.5,475.5 Z"/></g>
<g><path style="opacity:1" fill="#f1d1a4" d="M 270.5,474.5 C 273.616,481.394 277.283,488.061 281.5,494.5C 270.849,495.666 260.182,495.832 249.5,495C 242.669,492.005 238.669,486.838 237.5,479.5C 244.841,479.666 252.174,479.5 259.5,479C 263.799,478.741 267.466,477.241 270.5,474.5 Z"/></g>
<g><path style="opacity:1" fill="#eecfa2" d="M 188.5,475.5 C 189.704,481.954 191.704,488.287 194.5,494.5C 188.528,495.664 182.528,495.83 176.5,495C 168.867,491.219 166.2,485.386 168.5,477.5C 174.75,479.459 181.416,480.126 188.5,479.5C 188.5,478.167 188.5,476.833 188.5,475.5 Z"/></g>
<g><path style="opacity:1" fill="#d9757f" d="M 219.5,476.5 C 221.015,482.693 223.348,488.693 226.5,494.5C 214.876,496.234 207.876,491.234 205.5,479.5C 210.167,479.5 214.833,479.5 219.5,479.5C 219.5,478.5 219.5,477.5 219.5,476.5 Z"/></g>
<g><path style="opacity:1" fill="#955a26" d="M 372.5,487.5 C 382.5,487.5 392.5,487.5 402.5,487.5C 405.29,488.967 406.956,491.3 407.5,494.5C 394.216,495.464 380.883,495.797 367.5,495.5C 367.667,491.821 369.334,489.154 372.5,487.5 Z"/></g>
</svg>
