<?xml version="1.0" encoding="UTF-8"?>
<!DOCTYPE svg PUBLIC "-//W3C//DTD SVG 1.1//EN" "http://www.w3.org/Graphics/SVG/1.1/DTD/svg11.dtd">
<svg xmlns="http://www.w3.org/2000/svg" version="1.1" width="512px" height="512px" style="shape-rendering:geometricPrecision; text-rendering:geometricPrecision; image-rendering:optimizeQuality; fill-rule:evenodd; clip-rule:evenodd" xmlns:xlink="http://www.w3.org/1999/xlink">
<g><path style="opacity:0.997" fill="#f5a96c" d="M 61.5,-0.5 C 65.5,-0.5 69.5,-0.5 73.5,-0.5C 82.591,2.64105 89.7576,8.30771 95,16.5C 97.3607,25.2544 100.694,33.5877 105,41.5C 110.4,48.4017 116.567,54.4017 123.5,59.5C 136.312,70.136 149.312,80.636 162.5,91C 165.608,89.6332 168.941,88.4665 172.5,87.5C 176.199,88.1825 179.532,89.6825 182.5,92C 196.696,105.862 210.529,120.029 224,134.5C 226.233,139.869 225.567,144.869 222,149.5C 210.965,160.702 199.798,171.702 188.5,182.5C 173.232,168.734 158.398,154.4 144,139.5C 141.954,136.865 140.787,133.865 140.5,130.5C 141.683,127.172 142.517,123.838 143,120.5C 130.092,104.347 117.425,88.0141 105,71.5C 101.296,67.4053 97.1295,63.9053 92.5,61C 84.1024,57.8178 75.769,54.4844 67.5,51C 53.6645,40.1549 49.4978,26.3216 55,9.5C 56.996,6.0142 59.1627,2.68087 61.5,-0.5 Z"/></g>
<g><path style="opacity:1" fill="#d88a55" d="M 56.5,-0.5 C 58.1667,-0.5 59.8333,-0.5 61.5,-0.5C 59.1627,2.68087 56.996,6.0142 55,9.5C 49.4978,26.3216 53.6645,40.1549 67.5,51C 75.769,54.4844 84.1024,57.8178 92.5,61C 97.1295,63.9053 101.296,67.4053 105,71.5C 117.425,88.0141 130.092,104.347 143,120.5C 142.517,123.838 141.683,127.172 140.5,130.5C 140.787,133.865 141.954,136.865 144,139.5C 158.398,154.4 173.232,168.734 188.5,182.5C 185.286,186.88 181.286,190.38 176.5,193C 172.218,193.965 168.218,193.298 164.5,191C 150.333,176.833 136.167,162.667 122,148.5C 120.664,145.991 119.83,143.324 119.5,140.5C 120.467,136.941 121.633,133.608 123,130.5C 111.302,115.977 99.469,101.644 87.5,87.5C 78.4899,74.6963 66.1565,66.8629 50.5,64C 33.5259,54.0931 27.6925,39.5931 33,20.5C 37.5966,9.72952 45.43,2.72952 56.5,-0.5 Z"/></g>
<g><path style="opacity:0.996" fill="#b9e3fd" d="M 455.5,408.5 C 438.341,407.503 421.008,407.17 403.5,407.5C 415.384,399.421 424.218,388.754 430,375.5C 432.058,371.78 431.891,368.28 429.5,365C 419.506,364.5 409.506,364.334 399.5,364.5C 387.452,355.121 375.119,346.121 362.5,337.5C 361.833,336.833 361.167,336.167 360.5,335.5C 372.63,313.325 380.297,289.659 383.5,264.5C 387.182,264.665 390.848,264.499 394.5,264C 395,263.5 395.5,263 396,262.5C 396.667,252.833 396.667,243.167 396,233.5C 395.25,232.874 394.416,232.374 393.5,232C 306.501,231.5 219.501,231.333 132.5,231.5C 115.497,231.333 98.4967,231.5 81.5,232C 80.6667,232.833 79.8333,233.667 79,234.5C 78.3333,243.5 78.3333,252.5 79,261.5C 79.4224,263.426 80.5891,264.426 82.5,264.5C 85.6248,265.479 88.9581,265.813 92.5,265.5C 99.1106,317.418 123.611,358.418 166,388.5C 166.5,394.825 166.666,401.158 166.5,407.5C 166.5,407.833 166.5,408.167 166.5,408.5C 129.5,408.5 92.5,408.5 55.5,408.5C 20.8814,359.439 6.04807,304.773 11,244.5C 17.3226,182.527 42.8226,130.194 87.5,87.5C 99.469,101.644 111.302,115.977 123,130.5C 121.633,133.608 120.467,136.941 119.5,140.5C 119.83,143.324 120.664,145.991 122,148.5C 136.167,162.667 150.333,176.833 164.5,191C 168.218,193.298 172.218,193.965 176.5,193C 181.286,190.38 185.286,186.88 188.5,182.5C 199.798,171.702 210.965,160.702 222,149.5C 225.567,144.869 226.233,139.869 224,134.5C 210.529,120.029 196.696,105.862 182.5,92C 179.532,89.6825 176.199,88.1825 172.5,87.5C 168.941,88.4665 165.608,89.6332 162.5,91C 149.312,80.636 136.312,70.136 123.5,59.5C 191.253,18.3894 262.92,10.2227 338.5,35C 417.838,65.6699 469.338,121.837 493,203.5C 509.376,270.501 500.376,333.834 466,393.5C 462.97,398.916 459.47,403.916 455.5,408.5 Z"/></g>
<g><path style="opacity:1" fill="#fcefae" d="M 264.5,93.5 C 250.873,100.146 238.539,98.4796 227.5,88.5C 237.54,77.4595 248.206,67.1261 259.5,57.5C 262.032,57.8642 263.865,59.1975 265,61.5C 271.082,72.3628 270.915,83.0295 264.5,93.5 Z"/></g>
<g><path style="opacity:1" fill="#eef7fe" d="M 358.5,66.5 C 359.873,66.3433 361.207,66.51 362.5,67C 365.647,70.9812 368.98,74.8145 372.5,78.5C 369.812,81.354 367.312,84.354 365,87.5C 363.475,90.0867 361.308,90.9201 358.5,90C 354.576,86.5831 351.243,82.7497 348.5,78.5C 351.448,74.215 354.781,70.215 358.5,66.5 Z"/></g>
<g><path style="opacity:1" fill="#fee475" d="M 227.5,88.5 C 238.539,98.4796 250.873,100.146 264.5,93.5C 257.015,105.072 246.349,109.905 232.5,108C 227.527,106.763 223.027,104.596 219,101.5C 218.333,99.8333 218.333,98.1667 219,96.5C 221.703,93.6286 224.536,90.9619 227.5,88.5 Z"/></g>
<g><path style="opacity:1" fill="#edf7fe" d="M 319.5,89.5 C 320.873,89.3433 322.207,89.51 323.5,90C 327.216,93.3793 330.549,97.0459 333.5,101C 331.347,103.822 329.181,106.656 327,109.5C 325.289,112.58 322.789,113.746 319.5,113C 315.576,109.583 312.243,105.75 309.5,101.5C 312.448,97.215 315.781,93.215 319.5,89.5 Z"/></g>
<g><path style="opacity:1" fill="#eef8ff" d="M 350.5,121.5 C 355.616,124.781 359.949,128.948 363.5,134C 360.031,138.636 356.031,142.803 351.5,146.5C 346.969,142.803 342.969,138.636 339.5,134C 342.99,129.677 346.657,125.51 350.5,121.5 Z"/></g>
<g><path style="opacity:1" fill="#a45242" d="M 261.5,122.5 C 271.163,123.327 273.496,127.827 268.5,136C 260.391,138.867 256.558,136.034 257,127.5C 258.025,125.313 259.525,123.646 261.5,122.5 Z"/></g>
<g><path style="opacity:1" fill="#16a76f" d="M 408.5,160.5 C 405.261,160.587 402.261,159.92 399.5,158.5C 394.747,158.157 390.081,157.49 385.5,156.5C 387.082,151.916 390.082,148.583 394.5,146.5C 398.483,137.178 405.483,133.011 415.5,134C 418.428,135.876 419.094,138.376 417.5,141.5C 414.322,142.981 410.988,144.148 407.5,145C 406.128,146.242 405.128,147.742 404.5,149.5C 407.797,152.432 409.13,156.099 408.5,160.5 Z"/></g>
<g><path style="opacity:1" fill="#0da66e" d="M 319.5,141.5 C 303.833,156.5 288.5,171.833 273.5,187.5C 271.39,186.547 270.223,184.881 270,182.5C 268.561,174.479 270.227,167.146 275,160.5C 282.125,150.047 291.625,142.547 303.5,138C 307.167,137.333 310.833,137.333 314.5,138C 316.881,138.223 318.547,139.39 319.5,141.5 Z"/></g>
<g><path style="opacity:1" fill="#037f52" d="M 319.5,141.5 C 320.79,142.058 321.623,143.058 322,144.5C 321.476,165.728 311.31,180.562 291.5,189C 286.572,190.418 281.572,190.751 276.5,190C 275.058,189.623 274.058,188.79 273.5,187.5C 288.5,171.833 303.833,156.5 319.5,141.5 Z"/></g>
<g><path style="opacity:1" fill="#c41d28" d="M 385.5,156.5 C 390.081,157.49 394.747,158.157 399.5,158.5C 397.782,159.224 395.948,159.891 394,160.5C 382.239,188.13 361.739,198.297 332.5,191C 330.859,192.129 329.859,193.629 329.5,195.5C 323.889,192.492 322.556,188.325 325.5,183C 331.261,183.723 337.095,184.223 343,184.5C 363.305,184.277 377.472,174.943 385.5,156.5 Z"/></g>
<g><path style="opacity:1" fill="#e3212e" d="M 399.5,158.5 C 402.261,159.92 405.261,160.587 408.5,160.5C 409.061,188.464 395.394,204.964 367.5,210C 352.333,211.578 339.666,206.745 329.5,195.5C 329.859,193.629 330.859,192.129 332.5,191C 361.739,198.297 382.239,188.13 394,160.5C 395.948,159.891 397.782,159.224 399.5,158.5 Z"/></g>
<g><path style="opacity:1" fill="#a45242" d="M 240.5,168.5 C 250.163,169.327 252.496,173.827 247.5,182C 239.391,184.867 235.558,182.034 236,173.5C 237.025,171.313 238.525,169.646 240.5,168.5 Z"/></g>
<g><path style="opacity:1" fill="#047f52" d="M 135.5,220.5 C 119.833,205.5 104.5,190.167 89.5,174.5C 90.0577,173.21 91.0577,172.377 92.5,172C 113.728,172.524 128.562,182.69 137,202.5C 138.476,207.076 138.81,211.743 138,216.5C 137.8,218.32 136.966,219.653 135.5,220.5 Z"/></g>
<g><path style="opacity:1" fill="#0ca66d" d="M 89.5,174.5 C 104.5,190.167 119.833,205.5 135.5,220.5C 134.547,222.61 132.881,223.777 130.5,224C 122.479,225.439 115.146,223.773 108.5,219C 98.0473,211.875 90.5473,202.375 86,190.5C 85.3333,186.5 85.3333,182.5 86,178.5C 86.66,176.676 87.8267,175.343 89.5,174.5 Z"/></g>
<g><path style="opacity:1" fill="#a45242" d="M 214.5,194.5 C 224.163,195.327 226.496,199.827 221.5,208C 213.391,210.867 209.558,208.034 210,199.5C 211.025,197.313 212.525,195.646 214.5,194.5 Z"/></g>
<g><path style="opacity:1" fill="#a45242" d="M 262.5,206.5 C 272.163,207.327 274.496,211.827 269.5,220C 261.391,222.867 257.558,220.034 258,211.5C 259.025,209.313 260.525,207.646 262.5,206.5 Z"/></g>
<g><path style="opacity:1" fill="#c57a44" d="M 132.5,231.5 C 131.531,232.309 130.698,233.309 130,234.5C 129.333,243.833 129.333,253.167 130,262.5C 130.5,263 131,263.5 131.5,264C 115.17,264.5 98.8367,264.667 82.5,264.5C 80.5891,264.426 79.4224,263.426 79,261.5C 78.3333,252.5 78.3333,243.5 79,234.5C 79.8333,233.667 80.6667,232.833 81.5,232C 98.4967,231.5 115.497,231.333 132.5,231.5 Z"/></g>
<g><path style="opacity:1" fill="#d88a55" d="M 132.5,231.5 C 219.501,231.333 306.501,231.5 393.5,232C 394.416,232.374 395.25,232.874 396,233.5C 396.667,243.167 396.667,252.833 396,262.5C 395.5,263 395,263.5 394.5,264C 390.848,264.499 387.182,264.665 383.5,264.5C 300.833,264.5 218.167,264.5 135.5,264.5C 144.18,311.963 168.014,349.63 207,377.5C 208.449,387.395 208.949,397.395 208.5,407.5C 194.5,407.5 180.5,407.5 166.5,407.5C 166.666,401.158 166.5,394.825 166,388.5C 123.611,358.418 99.1106,317.418 92.5,265.5C 88.9581,265.813 85.6248,265.479 82.5,264.5C 98.8367,264.667 115.17,264.5 131.5,264C 131,263.5 130.5,263 130,262.5C 129.333,253.167 129.333,243.833 130,234.5C 130.698,233.309 131.531,232.309 132.5,231.5 Z"/></g>
<g><path style="opacity:1" fill="#f5a86b" d="M 383.5,264.5 C 380.297,289.659 372.63,313.325 360.5,335.5C 351.778,332.671 343.111,332.837 334.5,336C 321.742,344.7 309.409,353.867 297.5,363.5C 287.319,363.173 277.319,363.506 267.5,364.5C 264.714,364.956 263.381,366.623 263.5,369.5C 268.426,385.263 277.759,397.763 291.5,407C 305.496,407.5 319.496,407.667 333.5,407.5C 356.833,407.5 380.167,407.5 403.5,407.5C 421.008,407.17 438.341,407.503 455.5,408.5C 359.167,408.5 262.833,408.5 166.5,408.5C 166.5,408.167 166.5,407.833 166.5,407.5C 180.5,407.5 194.5,407.5 208.5,407.5C 208.949,397.395 208.449,387.395 207,377.5C 168.014,349.63 144.18,311.963 135.5,264.5C 218.167,264.5 300.833,264.5 383.5,264.5 Z"/></g>
<g><path style="opacity:1" fill="#893f2e" d="M 360.5,335.5 C 361.167,336.167 361.833,336.833 362.5,337.5C 351.686,346.136 340.686,354.636 329.5,363C 322.508,363.5 315.508,363.666 308.5,363.5C 304.833,363.5 301.167,363.5 297.5,363.5C 309.409,353.867 321.742,344.7 334.5,336C 343.111,332.837 351.778,332.671 360.5,335.5 Z"/></g>
<g><path style="opacity:1" fill="#a75544" d="M 362.5,337.5 C 375.119,346.121 387.452,355.121 399.5,364.5C 368.995,364.831 338.662,364.498 308.5,363.5C 315.508,363.666 322.508,363.5 329.5,363C 340.686,354.636 351.686,346.136 362.5,337.5 Z"/></g>
<g><path style="opacity:1" fill="#eaf5fe" d="M 267.5,364.5 C 280.837,364.333 294.171,364.5 307.5,365C 305.522,367.497 305.022,370.331 306,373.5C 312.102,387.403 321.269,398.736 333.5,407.5C 319.496,407.667 305.496,407.5 291.5,407C 277.759,397.763 268.426,385.263 263.5,369.5C 263.381,366.623 264.714,364.956 267.5,364.5 Z"/></g>
<g><path style="opacity:1" fill="#fefefe" d="M 267.5,364.5 C 277.319,363.506 287.319,363.173 297.5,363.5C 301.167,363.5 304.833,363.5 308.5,363.5C 338.662,364.498 368.995,364.831 399.5,364.5C 409.506,364.334 419.506,364.5 429.5,365C 431.891,368.28 432.058,371.78 430,375.5C 424.218,388.754 415.384,399.421 403.5,407.5C 380.167,407.5 356.833,407.5 333.5,407.5C 321.269,398.736 312.102,387.403 306,373.5C 305.022,370.331 305.522,367.497 307.5,365C 294.171,364.5 280.837,364.333 267.5,364.5 Z"/></g>
<g><path style="opacity:0.997" fill="#fe7600" d="M 55.5,408.5 C 92.5,408.5 129.5,408.5 166.5,408.5C 262.833,408.5 359.167,408.5 455.5,408.5C 445.629,422.709 434.296,435.709 421.5,447.5C 311.069,446.168 200.736,446.168 90.5,447.5C 84.5914,443.098 79.0914,438.098 74,432.5C 67.2352,424.909 61.0685,416.909 55.5,408.5 Z"/></g>
<g><path style="opacity:0.991" fill="#fe8609" d="M 421.5,447.5 C 380.608,484.478 332.608,505.811 277.5,511.5C 262.833,511.5 248.167,511.5 233.5,511.5C 182.01,506.085 136.343,486.918 96.5,454C 94.2941,451.963 92.2941,449.797 90.5,447.5C 200.736,446.168 311.069,446.168 421.5,447.5 Z"/></g>
</svg>
