<?xml version="1.0" encoding="UTF-8"?>
<!DOCTYPE svg PUBLIC "-//W3C//DTD SVG 1.1//EN" "http://www.w3.org/Graphics/SVG/1.1/DTD/svg11.dtd">
<svg xmlns="http://www.w3.org/2000/svg" version="1.1" width="512px" height="512px" style="shape-rendering:geometricPrecision; text-rendering:geometricPrecision; image-rendering:optimizeQuality; fill-rule:evenodd; clip-rule:evenodd" xmlns:xlink="http://www.w3.org/1999/xlink">
<g><path style="opacity:0.965" fill="#93db30" d="M 272.5,184.5 C 269.629,182.464 266.629,180.63 263.5,179C 261.576,177.25 259.909,175.417 258.5,173.5C 258.5,173.167 258.5,172.833 258.5,172.5C 262.012,169.822 265.012,166.655 267.5,163C 261.452,158.632 255.118,154.632 248.5,151C 247.663,149.989 247.33,148.822 247.5,147.5C 248.5,146.167 249.5,144.833 250.5,143.5C 252.5,142.167 254.167,140.5 255.5,138.5C 257.145,137.521 258.479,136.188 259.5,134.5C 247.545,133.98 236.212,131.313 225.5,126.5C 235.19,110.923 245.356,110.589 256,125.5C 268.518,143.242 274.018,162.908 272.5,184.5 Z"/></g>
<g><path style="opacity:1" fill="#7ac733" d="M 225.5,126.5 C 236.212,131.313 247.545,133.98 259.5,134.5C 258.479,136.188 257.145,137.521 255.5,138.5C 244.488,137.169 233.822,134.169 223.5,129.5C 223.932,128.29 224.599,127.29 225.5,126.5 Z"/></g>
<g><path style="opacity:0.971" fill="#9ee32e" d="M 157.5,138.5 C 152.78,143.371 147.446,147.538 141.5,151C 138.151,151.388 134.817,151.221 131.5,150.5C 130.034,141.467 133.867,136.8 143,136.5C 147.871,137.059 152.705,137.726 157.5,138.5 Z"/></g>
<g><path style="opacity:0.984" fill="#fe9fac" d="M 359.5,137.5 C 361.835,141.095 363.168,145.095 363.5,149.5C 362.051,150.172 360.718,150.839 359.5,151.5C 355.5,152.167 353.167,154.5 352.5,158.5C 335.654,173.079 318.654,187.412 301.5,201.5C 296.177,197.333 291.177,197.666 286.5,202.5C 279.833,202.5 273.167,202.5 266.5,202.5C 268.555,200.445 270.221,198.112 271.5,195.5C 271.833,194.167 272.167,192.833 272.5,191.5C 274.926,187.238 278.26,183.738 282.5,181C 292.669,176.964 302.669,172.631 312.5,168C 318.1,162.631 322.6,156.465 326,149.5C 335.444,140.851 346.611,136.851 359.5,137.5 Z"/></g>
<g><path style="opacity:1" fill="#4da23a" d="M 250.5,143.5 C 249.5,144.833 248.5,146.167 247.5,147.5C 245.203,149.294 243.037,151.294 241,153.5C 235.167,147.667 229.333,141.833 223.5,136C 225.5,135.333 227.5,135.333 229.5,136C 236.064,138.308 242.73,140.308 249.5,142C 250.056,142.383 250.389,142.883 250.5,143.5 Z"/></g>
<g><path style="opacity:1" fill="#63b637" d="M 223.5,129.5 C 233.822,134.169 244.488,137.169 255.5,138.5C 254.167,140.5 252.5,142.167 250.5,143.5C 250.389,142.883 250.056,142.383 249.5,142C 242.73,140.308 236.064,138.308 229.5,136C 227.5,135.333 225.5,135.333 223.5,136C 229.333,141.833 235.167,147.667 241,153.5C 243.037,151.294 245.203,149.294 247.5,147.5C 247.33,148.822 247.663,149.989 248.5,151C 255.118,154.632 261.452,158.632 267.5,163C 265.012,166.655 262.012,169.822 258.5,172.5C 255.407,169.442 251.74,167.109 247.5,165.5C 238.07,157.914 228.737,150.081 219.5,142C 218.552,141.517 217.552,141.351 216.5,141.5C 218.344,137.136 220.677,133.136 223.5,129.5 Z"/></g>
<g><path style="opacity:0.954" fill="#8dd630" d="M 157.5,138.5 C 177.049,142.434 193.382,151.768 206.5,166.5C 200.734,166.018 194.734,166.684 188.5,168.5C 188.058,164.846 187.724,161.179 187.5,157.5C 179.163,159.301 170.83,160.967 162.5,162.5C 162.5,161.5 162.5,160.5 162.5,159.5C 162.5,156.833 162.5,154.167 162.5,151.5C 162.816,148.022 162.316,144.688 161,141.5C 152.619,149.402 143.119,155.402 132.5,159.5C 131.523,156.713 131.19,153.713 131.5,150.5C 134.817,151.221 138.151,151.388 141.5,151C 147.446,147.538 152.78,143.371 157.5,138.5 Z"/></g>
<g><path style="opacity:1" fill="#e2636f" d="M 359.5,151.5 C 369.79,151.635 373.29,156.635 370,166.5C 366.21,170.497 361.71,171.497 356.5,169.5C 352.992,166.717 351.658,163.051 352.5,158.5C 353.167,154.5 355.5,152.167 359.5,151.5 Z"/></g>
<g><path style="opacity:1" fill="#75c334" d="M 162.5,151.5 C 159.101,152.016 155.768,152.85 152.5,154C 146.149,157.508 139.816,161.008 133.5,164.5C 132.549,163.081 132.216,161.415 132.5,159.5C 143.119,155.402 152.619,149.402 161,141.5C 162.316,144.688 162.816,148.022 162.5,151.5 Z"/></g>
<g><path style="opacity:1" fill="#fa8d9a" d="M 352.5,158.5 C 351.658,163.051 352.992,166.717 356.5,169.5C 355.797,171.716 354.464,173.549 352.5,175C 349.271,177.741 345.938,180.241 342.5,182.5C 339.754,179.695 336.421,178.861 332.5,180C 328.567,183.876 328.567,187.71 332.5,191.5C 329.062,194.435 325.729,197.601 322.5,201C 316.193,202.384 309.86,203.551 303.5,204.5C 302.833,203.5 302.167,202.5 301.5,201.5C 318.654,187.412 335.654,173.079 352.5,158.5 Z"/></g>
<g><path style="opacity:1" fill="#f57b88" d="M 359.5,137.5 C 365.866,137.062 371.866,138.062 377.5,140.5C 376.5,140.5 375.5,140.5 374.5,140.5C 374.833,142.5 375.167,144.5 375.5,146.5C 374.883,146.389 374.383,146.056 374,145.5C 373.667,146.833 373.333,148.167 373,149.5C 372.444,147.405 371.944,147.238 371.5,149C 373.374,155.104 373.707,161.27 372.5,167.5C 359.647,178.854 346.647,190.02 333.5,201C 323.858,203.327 314.191,205.494 304.5,207.5C 304.5,206.833 304.167,206.5 303.5,206.5C 303.5,205.833 303.5,205.167 303.5,204.5C 309.86,203.551 316.193,202.384 322.5,201C 325.729,197.601 329.062,194.435 332.5,191.5C 340.115,193.56 343.448,190.56 342.5,182.5C 345.938,180.241 349.271,177.741 352.5,175C 354.464,173.549 355.797,171.716 356.5,169.5C 361.71,171.497 366.21,170.497 370,166.5C 373.29,156.635 369.79,151.635 359.5,151.5C 360.718,150.839 362.051,150.172 363.5,149.5C 363.168,145.095 361.835,141.095 359.5,137.5 Z"/></g>
<g><path style="opacity:1" fill="#eb5f6c" d="M 377.5,140.5 C 380.485,141.326 383.151,142.659 385.5,144.5C 384.489,146.402 384.322,148.402 385,150.5C 388.506,154.914 390.34,159.914 390.5,165.5C 390.5,167.167 390.5,168.833 390.5,170.5C 382.618,169.546 379.451,172.879 381,180.5C 382.289,182.055 382.956,183.721 383,185.5C 377.5,190.333 372,195.167 366.5,200C 359.917,203.426 352.917,205.759 345.5,207C 346.167,207.333 346.833,207.667 347.5,208C 340.372,209.843 333.372,211.676 326.5,213.5C 320.872,214.425 315.205,215.092 309.5,215.5C 307.167,215.167 304.833,214.833 302.5,214.5C 303.393,211.916 303.726,209.249 303.5,206.5C 304.167,206.5 304.5,206.833 304.5,207.5C 304.281,208.675 304.614,209.675 305.5,210.5C 318.546,207.99 331.546,205.157 344.5,202C 348,199.006 351.666,196.173 355.5,193.5C 363.027,185.806 371.027,178.639 379.5,172C 378.812,169.273 378.478,166.606 378.5,164C 378.667,163.5 378.833,163 379,162.5C 380.489,166.218 381.322,166.218 381.5,162.5C 381.269,158.482 380.102,154.816 378,151.5C 377.667,151.833 377.333,152.167 377,152.5C 376.495,150.482 375.995,148.482 375.5,146.5C 375.167,144.5 374.833,142.5 374.5,140.5C 375.5,140.5 376.5,140.5 377.5,140.5 Z"/></g>
<g><path style="opacity:1" fill="#60b337" d="M 162.5,151.5 C 162.5,154.167 162.5,156.833 162.5,159.5C 161.842,158.602 161.176,157.602 160.5,156.5C 154.801,160.013 149.134,163.513 143.5,167C 149.825,167.5 156.158,167.666 162.5,167.5C 162.5,165.833 162.5,164.167 162.5,162.5C 170.83,160.967 179.163,159.301 187.5,157.5C 187.724,161.179 188.058,164.846 188.5,168.5C 181.114,168.26 173.947,169.593 167,172.5C 166.439,171.978 165.772,171.645 165,171.5C 160.522,172.274 156.022,173.274 151.5,174.5C 147.833,174.5 144.167,174.5 140.5,174.5C 139.14,175.18 137.807,175.847 136.5,176.5C 134.878,172.678 133.878,168.678 133.5,164.5C 139.816,161.008 146.149,157.508 152.5,154C 155.768,152.85 159.101,152.016 162.5,151.5 Z"/></g>
<g><path style="opacity:1" fill="#44993c" d="M 162.5,159.5 C 162.5,160.5 162.5,161.5 162.5,162.5C 162.5,164.167 162.5,165.833 162.5,167.5C 156.158,167.666 149.825,167.5 143.5,167C 149.134,163.513 154.801,160.013 160.5,156.5C 161.176,157.602 161.842,158.602 162.5,159.5 Z"/></g>
<g><path style="opacity:1" fill="#f36e7c" d="M 375.5,146.5 C 375.995,148.482 376.495,150.482 377,152.5C 377.333,152.167 377.667,151.833 378,151.5C 380.102,154.816 381.269,158.482 381.5,162.5C 381.322,166.218 380.489,166.218 379,162.5C 378.833,163 378.667,163.5 378.5,164C 378.478,166.606 378.812,169.273 379.5,172C 371.027,178.639 363.027,185.806 355.5,193.5C 351.666,196.173 348,199.006 344.5,202C 331.546,205.157 318.546,207.99 305.5,210.5C 304.614,209.675 304.281,208.675 304.5,207.5C 314.191,205.494 323.858,203.327 333.5,201C 346.647,190.02 359.647,178.854 372.5,167.5C 373.707,161.27 373.374,155.104 371.5,149C 371.944,147.238 372.444,147.405 373,149.5C 373.333,148.167 373.667,146.833 374,145.5C 374.383,146.056 374.883,146.389 375.5,146.5 Z"/></g>
<g><path style="opacity:0.999" fill="#cb3d48" d="M 385.5,144.5 C 388.414,145.906 390.914,147.906 393,150.5C 397.864,162.536 406.364,170.536 418.5,174.5C 417.448,174.351 416.448,174.517 415.5,175C 418.482,179.151 421.815,182.985 425.5,186.5C 424.998,187.521 424.332,187.688 423.5,187C 422.695,185.028 421.361,183.528 419.5,182.5C 418.893,182.624 418.56,182.957 418.5,183.5C 417.036,182.595 415.702,182.595 414.5,183.5C 413.201,181.308 411.201,179.975 408.5,179.5C 407.917,177.998 407.084,176.665 406,175.5C 405.692,176.308 405.192,176.975 404.5,177.5C 403.712,176.23 402.712,175.23 401.5,174.5C 400.202,174.72 398.869,174.053 397.5,172.5C 396.777,169.93 395.61,167.597 394,165.5C 393.667,167.167 393.333,168.833 393,170.5C 392.626,168.509 391.793,166.842 390.5,165.5C 390.34,159.914 388.506,154.914 385,150.5C 384.322,148.402 384.489,146.402 385.5,144.5 Z"/></g>
<g><path style="opacity:1" fill="#4ca33b" d="M 216.5,141.5 C 217.552,141.351 218.552,141.517 219.5,142C 228.737,150.081 238.07,157.914 247.5,165.5C 251.74,167.109 255.407,169.442 258.5,172.5C 258.5,172.833 258.5,173.167 258.5,173.5C 257.5,174.167 256.5,174.833 255.5,175.5C 252.082,172.618 248.082,170.451 243.5,169C 242.128,167.758 241.128,166.258 240.5,164.5C 231.975,161.784 224.308,157.617 217.5,152C 215.893,152.019 214.226,152.185 212.5,152.5C 213.558,148.721 214.891,145.054 216.5,141.5 Z"/></g>
<g><path style="opacity:1" fill="#79c733" d="M 206.5,166.5 C 207.167,167.833 208.167,168.833 209.5,169.5C 209.5,170.167 209.5,170.833 209.5,171.5C 202.895,174.292 195.895,175.959 188.5,176.5C 188.5,173.833 188.5,171.167 188.5,168.5C 194.734,166.684 200.734,166.018 206.5,166.5 Z"/></g>
<g><path style="opacity:1" fill="#469f3c" d="M 188.5,168.5 C 188.5,171.167 188.5,173.833 188.5,176.5C 188.5,177.5 188.5,178.5 188.5,179.5C 187.662,179.158 187.328,178.492 187.5,177.5C 187.38,176.414 186.713,175.747 185.5,175.5C 180.845,177.878 176.012,178.545 171,177.5C 167.768,179.2 164.601,181.034 161.5,183C 155.528,184.076 149.695,185.576 144,187.5C 142.893,186.288 142.393,186.621 142.5,188.5C 139.99,184.813 137.99,180.813 136.5,176.5C 137.807,175.847 139.14,175.18 140.5,174.5C 144.167,174.5 147.833,174.5 151.5,174.5C 156.022,173.274 160.522,172.274 165,171.5C 165.772,171.645 166.439,171.978 167,172.5C 173.947,169.593 181.114,168.26 188.5,168.5 Z"/></g>
<g><path style="opacity:1" fill="#358f3f" d="M 187.5,177.5 C 185.355,178.848 183.188,179.182 181,178.5C 178.89,180.125 176.557,181.458 174,182.5C 172.251,181.701 170.918,182.368 170,184.5C 168.984,183.366 168.317,183.699 168,185.5C 167.667,185.167 167.333,184.833 167,184.5C 164.093,186.868 160.926,188.535 157.5,189.5C 155.5,189.5 153.5,189.5 151.5,189.5C 148.5,189.5 145.5,189.5 142.5,189.5C 142.5,189.167 142.5,188.833 142.5,188.5C 142.393,186.621 142.893,186.288 144,187.5C 149.695,185.576 155.528,184.076 161.5,183C 164.601,181.034 167.768,179.2 171,177.5C 176.012,178.545 180.845,177.878 185.5,175.5C 186.713,175.747 187.38,176.414 187.5,177.5 Z"/></g>
<g><path style="opacity:1" fill="#6dbe35" d="M 258.5,173.5 C 259.909,175.417 261.576,177.25 263.5,179C 266.629,180.63 269.629,182.464 272.5,184.5C 272.5,186.833 272.5,189.167 272.5,191.5C 272.167,192.833 271.833,194.167 271.5,195.5C 265.593,192.629 259.593,189.796 253.5,187C 252.301,185.306 250.968,183.806 249.5,182.5C 251.5,180.167 253.5,177.833 255.5,175.5C 256.5,174.833 257.5,174.167 258.5,173.5 Z"/></g>
<g><path style="opacity:1" fill="#33913f" d="M 255.5,175.5 C 253.5,177.833 251.5,180.167 249.5,182.5C 248.833,182.833 248.167,183.167 247.5,183.5C 247.5,182.5 247.5,181.5 247.5,180.5C 242.983,180.98 240.65,178.98 240.5,174.5C 232.923,173.196 225.923,170.529 219.5,166.5C 218.479,167.002 218.312,167.668 219,168.5C 226.015,175.348 232.848,182.348 239.5,189.5C 237.922,190.072 236.422,190.406 235,190.5C 234.147,188.875 233.147,188.542 232,189.5C 227.533,187.951 223.367,186.618 219.5,185.5C 216.555,180.555 213.221,175.888 209.5,171.5C 209.5,170.833 209.5,170.167 209.5,169.5C 209.605,163.644 210.605,157.978 212.5,152.5C 214.226,152.185 215.893,152.019 217.5,152C 224.308,157.617 231.975,161.784 240.5,164.5C 241.128,166.258 242.128,167.758 243.5,169C 248.082,170.451 252.082,172.618 255.5,175.5 Z"/></g>
<g><path style="opacity:1" fill="#de5e6a" d="M 342.5,182.5 C 343.448,190.56 340.115,193.56 332.5,191.5C 328.567,187.71 328.567,183.876 332.5,180C 336.421,178.861 339.754,179.695 342.5,182.5 Z"/></g>
<g><path style="opacity:1" fill="#52a93a" d="M 214.5,193.5 C 213.686,191.369 213.186,189.036 213,186.5C 205.223,188.502 197.057,190.169 188.5,191.5C 188.5,188.5 188.5,185.5 188.5,182.5C 190.792,182.244 192.959,182.577 195,183.5C 196.324,182.12 197.657,181.786 199,182.5C 203.836,180.525 208.336,179.525 212.5,179.5C 214.114,184.02 214.78,188.686 214.5,193.5 Z"/></g>
<g><path style="opacity:1" fill="#e64b58" d="M 390.5,165.5 C 391.793,166.842 392.626,168.509 393,170.5C 393.333,168.833 393.667,167.167 394,165.5C 395.61,167.597 396.777,169.93 397.5,172.5C 398.869,174.053 400.202,174.72 401.5,174.5C 400.157,180.207 398.657,185.874 397,191.5C 395.619,187.812 394.452,188.145 393.5,192.5C 390.683,194.817 388.016,197.317 385.5,200C 384.255,200.791 382.922,201.291 381.5,201.5C 374.224,196.333 369.557,198.166 367.5,207C 357.805,210.757 347.805,213.257 337.5,214.5C 333.846,214.058 330.179,213.724 326.5,213.5C 333.372,211.676 340.372,209.843 347.5,208C 346.833,207.667 346.167,207.333 345.5,207C 352.917,205.759 359.917,203.426 366.5,200C 372,195.167 377.5,190.333 383,185.5C 382.956,183.721 382.289,182.055 381,180.5C 379.451,172.879 382.618,169.546 390.5,170.5C 390.5,168.833 390.5,167.167 390.5,165.5 Z"/></g>
<g><path style="opacity:1" fill="#54aa3a" d="M 249.5,182.5 C 250.968,183.806 252.301,185.306 253.5,187C 259.593,189.796 265.593,192.629 271.5,195.5C 270.221,198.112 268.555,200.445 266.5,202.5C 265.5,203.167 264.5,203.833 263.5,204.5C 262.365,203.526 261.365,202.359 260.5,201C 254.492,196.873 248.492,193.04 242.5,189.5C 244.167,187.5 245.833,185.5 247.5,183.5C 248.167,183.167 248.833,182.833 249.5,182.5 Z"/></g>
<g><path style="opacity:1" fill="#992930" d="M 421.5,175.5 C 424.855,175.69 427.855,176.69 430.5,178.5C 428.645,178.272 427.812,178.939 428,180.5C 436.099,191.708 444.432,202.708 453,213.5C 455.916,218.268 457.082,223.268 456.5,228.5C 445.833,228.5 435.167,228.5 424.5,228.5C 400.496,227.602 376.496,226.602 352.5,225.5C 361.682,225.827 370.682,225.493 379.5,224.5C 398.707,224.099 417.874,224.766 437,226.5C 441.523,226.706 445.856,226.039 450,224.5C 451.31,222.868 451.81,221.201 451.5,219.5C 448.725,211.578 444.225,204.911 438,199.5C 434.667,194.833 431.333,190.167 428,185.5C 427.667,185.833 427.333,186.167 427,186.5C 425.248,183.328 423.248,180.328 421,177.5C 420.308,176.563 420.475,175.897 421.5,175.5 Z"/></g>
<g><path style="opacity:0.983" fill="#fdeeaa" d="M 142.5,189.5 C 145.5,189.5 148.5,189.5 151.5,189.5C 154.165,193.331 156.165,197.497 157.5,202C 155.292,202.191 153.292,202.691 151.5,203.5C 145.143,206.221 143.143,210.888 145.5,217.5C 142.671,224.328 137.671,228.661 130.5,230.5C 124.5,230.5 121.5,233.5 121.5,239.5C 115.774,249.553 107.107,254.553 95.5,254.5C 88.2612,248.373 82.2612,249.373 77.5,257.5C 69.1932,258.498 60.8599,258.831 52.5,258.5C 59.4395,254.337 64.2728,248.337 67,240.5C 71.1863,235.326 76.3529,231.492 82.5,229C 92.459,227.103 101.292,222.936 109,216.5C 115.286,201.375 126.453,192.375 142.5,189.5 Z"/></g>
<g><path style="opacity:1" fill="#237f42" d="M 247.5,183.5 C 245.833,185.5 244.167,187.5 242.5,189.5C 238.304,199.024 240.971,206.024 250.5,210.5C 247.746,211.946 244.746,212.946 241.5,213.5C 241.438,210.247 240.604,207.247 239,204.5C 238.667,204.833 238.333,205.167 238,205.5C 233.962,203.243 230.129,202.576 226.5,203.5C 226.167,203.5 225.833,203.5 225.5,203.5C 224.077,197.317 222.077,191.317 219.5,185.5C 223.367,186.618 227.533,187.951 232,189.5C 233.147,188.542 234.147,188.875 235,190.5C 236.422,190.406 237.922,190.072 239.5,189.5C 232.848,182.348 226.015,175.348 219,168.5C 218.312,167.668 218.479,167.002 219.5,166.5C 225.923,170.529 232.923,173.196 240.5,174.5C 240.65,178.98 242.983,180.98 247.5,180.5C 247.5,181.5 247.5,182.5 247.5,183.5 Z"/></g>
<g><path style="opacity:1" fill="#40973e" d="M 242.5,189.5 C 248.492,193.04 254.492,196.873 260.5,201C 261.365,202.359 262.365,203.526 263.5,204.5C 261.343,206.412 259.009,208.079 256.5,209.5C 254.5,209.833 252.5,210.167 250.5,210.5C 240.971,206.024 238.304,199.024 242.5,189.5 Z"/></g>
<g><path style="opacity:1" fill="#2a8242" d="M 187.5,177.5 C 187.328,178.492 187.662,179.158 188.5,179.5C 188.5,180.5 188.5,181.5 188.5,182.5C 188.5,185.5 188.5,188.5 188.5,191.5C 188.351,192.552 188.517,193.552 189,194.5C 192.371,197.703 195.538,201.036 198.5,204.5C 195.144,206.198 192.477,208.532 190.5,211.5C 187.173,203.506 181.506,197.84 173.5,194.5C 170.916,192.528 167.916,191.528 164.5,191.5C 162.343,190.593 160.01,189.927 157.5,189.5C 160.926,188.535 164.093,186.868 167,184.5C 167.333,184.833 167.667,185.167 168,185.5C 168.317,183.699 168.984,183.366 170,184.5C 170.918,182.368 172.251,181.701 174,182.5C 176.557,181.458 178.89,180.125 181,178.5C 183.188,179.182 185.355,178.848 187.5,177.5 Z"/></g>
<g><path style="opacity:1" fill="#399340" d="M 214.5,193.5 C 214.5,196.5 214.5,199.5 214.5,202.5C 214.5,206.833 214.5,211.167 214.5,215.5C 218.658,217.218 222.991,218.551 227.5,219.5C 227.5,217.833 227.5,216.167 227.5,214.5C 228.451,215.919 228.784,217.585 228.5,219.5C 227.167,221.167 225.833,222.833 224.5,224.5C 223.5,224.833 222.833,225.5 222.5,226.5C 219.269,224.78 216.436,222.447 214,219.5C 213.829,214.136 213.329,208.802 212.5,203.5C 208.802,204.373 205.135,205.373 201.5,206.5C 200.482,205.807 199.482,205.141 198.5,204.5C 195.538,201.036 192.371,197.703 189,194.5C 188.517,193.552 188.351,192.552 188.5,191.5C 197.057,190.169 205.223,188.502 213,186.5C 213.186,189.036 213.686,191.369 214.5,193.5 Z"/></g>
<g><path style="opacity:1" fill="#e13340" d="M 401.5,174.5 C 402.712,175.23 403.712,176.23 404.5,177.5C 405.192,176.975 405.692,176.308 406,175.5C 407.084,176.665 407.917,177.998 408.5,179.5C 411.201,179.975 413.201,181.308 414.5,183.5C 415.658,184.95 415.158,185.95 413,186.5C 412.385,184.884 411.385,183.551 410,182.5C 409.305,184.722 408.472,186.889 407.5,189C 408.821,191.071 409.821,193.071 410.5,195C 406.471,202.35 400.471,207.35 392.5,210C 394.833,210.333 397.167,210.667 399.5,211C 395.054,214.081 390.054,215.247 384.5,214.5C 382.302,213.835 379.969,213.168 377.5,212.5C 378.347,211.155 379.513,210.155 381,209.5C 381.497,206.854 381.664,204.187 381.5,201.5C 382.922,201.291 384.255,200.791 385.5,200C 388.016,197.317 390.683,194.817 393.5,192.5C 394.452,188.145 395.619,187.812 397,191.5C 398.657,185.874 400.157,180.207 401.5,174.5 Z"/></g>
<g><path style="opacity:1" fill="#a9252e" d="M 418.5,174.5 C 419.791,174.263 420.791,174.596 421.5,175.5C 420.475,175.897 420.308,176.563 421,177.5C 423.248,180.328 425.248,183.328 427,186.5C 427.333,186.167 427.667,185.833 428,185.5C 431.333,190.167 434.667,194.833 438,199.5C 444.225,204.911 448.725,211.578 451.5,219.5C 451.81,221.201 451.31,222.868 450,224.5C 445.856,226.039 441.523,226.706 437,226.5C 417.874,224.766 398.707,224.099 379.5,224.5C 361.228,224.735 343.228,223.402 325.5,220.5C 330.363,220.819 335.03,220.486 339.5,219.5C 344.5,219.5 349.5,219.5 354.5,219.5C 363.155,221.175 371.989,221.508 381,220.5C 399.819,221.722 418.652,222.222 437.5,222C 440.193,221.657 442.193,220.324 443.5,218C 442.859,214.117 441.359,210.284 439,206.5C 437.423,214.949 432.59,218.282 424.5,216.5C 419.425,213.671 417.592,209.338 419,203.5C 419.465,202.069 420.299,200.903 421.5,200C 424.466,198.734 427.466,197.567 430.5,196.5C 426.144,192.493 422.144,188.16 418.5,183.5C 418.56,182.957 418.893,182.624 419.5,182.5C 421.361,183.528 422.695,185.028 423.5,187C 424.332,187.688 424.998,187.521 425.5,186.5C 421.815,182.985 418.482,179.151 415.5,175C 416.448,174.517 417.448,174.351 418.5,174.5 Z"/></g>
<g><path style="opacity:1" fill="#6abe37" d="M 209.5,171.5 C 213.221,175.888 216.555,180.555 219.5,185.5C 222.077,191.317 224.077,197.317 225.5,203.5C 225.083,204.124 224.416,204.457 223.5,204.5C 220.521,203.672 217.521,203.005 214.5,202.5C 214.5,199.5 214.5,196.5 214.5,193.5C 214.78,188.686 214.114,184.02 212.5,179.5C 208.336,179.525 203.836,180.525 199,182.5C 197.657,181.786 196.324,182.12 195,183.5C 192.959,182.577 190.792,182.244 188.5,182.5C 188.5,181.5 188.5,180.5 188.5,179.5C 188.5,178.5 188.5,177.5 188.5,176.5C 195.895,175.959 202.895,174.292 209.5,171.5 Z"/></g>
<g><path style="opacity:1" fill="#fccb70" d="M 151.5,203.5 C 160.495,202.663 164.661,206.663 164,215.5C 162.306,218.358 160.139,220.691 157.5,222.5C 152.239,223.515 148.239,221.848 145.5,217.5C 143.143,210.888 145.143,206.221 151.5,203.5 Z"/></g>
<g><path style="opacity:1" fill="#d02330" d="M 414.5,183.5 C 415.702,182.595 417.036,182.595 418.5,183.5C 422.144,188.16 426.144,192.493 430.5,196.5C 427.466,197.567 424.466,198.734 421.5,200C 420.299,200.903 419.465,202.069 419,203.5C 417.592,209.338 419.425,213.671 424.5,216.5C 423.848,217.725 422.681,218.392 421,218.5C 412.717,217.306 404.217,217.306 395.5,218.5C 390.936,217.053 386.269,216.387 381.5,216.5C 381.821,214.952 382.821,214.285 384.5,214.5C 390.054,215.247 395.054,214.081 399.5,211C 397.167,210.667 394.833,210.333 392.5,210C 400.471,207.35 406.471,202.35 410.5,195C 409.821,193.071 408.821,191.071 407.5,189C 408.472,186.889 409.305,184.722 410,182.5C 411.385,183.551 412.385,184.884 413,186.5C 415.158,185.95 415.658,184.95 414.5,183.5 Z"/></g>
<g><path style="opacity:1" fill="#882c31" d="M 430.5,178.5 C 435.578,180.132 439.745,183.132 443,187.5C 446.241,194.557 450.741,200.557 456.5,205.5C 455.153,206.171 453.986,206.171 453,205.5C 452.333,206.167 452.333,206.833 453,207.5C 458.339,214.84 463.839,221.84 469.5,228.5C 465.167,228.5 460.833,228.5 456.5,228.5C 457.082,223.268 455.916,218.268 453,213.5C 444.432,202.708 436.099,191.708 428,180.5C 427.812,178.939 428.645,178.272 430.5,178.5 Z"/></g>
<g><path style="opacity:1" fill="#52b03d" d="M 214.5,202.5 C 217.521,203.005 220.521,203.672 223.5,204.5C 224.416,204.457 225.083,204.124 225.5,203.5C 225.833,203.5 226.167,203.5 226.5,203.5C 227.114,207.135 227.448,210.802 227.5,214.5C 227.5,216.167 227.5,217.833 227.5,219.5C 222.991,218.551 218.658,217.218 214.5,215.5C 214.5,211.167 214.5,206.833 214.5,202.5 Z"/></g>
<g><path style="opacity:1" fill="#f28894" d="M 266.5,202.5 C 273.167,202.5 279.833,202.5 286.5,202.5C 285.061,204.588 284.394,206.921 284.5,209.5C 275.167,209.5 265.833,209.5 256.5,209.5C 259.009,208.079 261.343,206.412 263.5,204.5C 264.5,203.833 265.5,203.167 266.5,202.5 Z"/></g>
<g><path style="opacity:1" fill="#1c7146" d="M 241.5,213.5 C 240.833,213.5 240.5,213.833 240.5,214.5C 236.452,215.358 232.785,217.025 229.5,219.5C 229.167,219.5 228.833,219.5 228.5,219.5C 228.784,217.585 228.451,215.919 227.5,214.5C 227.448,210.802 227.114,207.135 226.5,203.5C 230.129,202.576 233.962,203.243 238,205.5C 238.333,205.167 238.667,204.833 239,204.5C 240.604,207.247 241.438,210.247 241.5,213.5 Z"/></g>
<g><path style="opacity:1" fill="#fccb6d" d="M 164.5,191.5 C 167.916,191.528 170.916,192.528 173.5,194.5C 175.128,199.09 177.295,203.423 180,207.5C 181.813,212.752 183.313,218.085 184.5,223.5C 180.879,221.885 177.546,222.219 174.5,224.5C 172.036,213.442 168.369,202.775 163.5,192.5C 163.624,191.893 163.957,191.56 164.5,191.5 Z"/></g>
<g><path style="opacity:1" fill="#5f3535" d="M 461.5,208.5 C 471.304,210.783 480.637,214.283 489.5,219C 491.373,220.704 493.04,222.537 494.5,224.5C 494.414,225.496 494.748,226.329 495.5,227C 487.167,227.667 478.833,227.667 470.5,227C 466.363,221.216 462.696,215.216 459.5,209C 460.094,208.536 460.761,208.369 461.5,208.5 Z"/></g>
<g><path style="opacity:1" fill="#227147" d="M 222.5,226.5 C 222.167,227.167 221.833,227.833 221.5,228.5C 220.833,228.5 220.167,228.5 219.5,228.5C 219.167,228.5 218.833,228.5 218.5,228.5C 216.5,228.167 214.5,227.833 212.5,227.5C 210.786,226.262 208.786,225.595 206.5,225.5C 204.819,223.992 202.819,222.992 200.5,222.5C 196.485,219.484 193.152,215.817 190.5,211.5C 192.477,208.532 195.144,206.198 198.5,204.5C 199.482,205.141 200.482,205.807 201.5,206.5C 205.135,205.373 208.802,204.373 212.5,203.5C 213.329,208.802 213.829,214.136 214,219.5C 216.436,222.447 219.269,224.78 222.5,226.5 Z"/></g>
<g><path style="opacity:1" fill="#e16d79" d="M 301.5,201.5 C 302.167,202.5 302.833,203.5 303.5,204.5C 303.5,205.167 303.5,205.833 303.5,206.5C 297.497,207.501 291.497,208.501 285.5,209.5C 285.5,210.833 285.5,212.167 285.5,213.5C 270.525,214.416 255.525,214.749 240.5,214.5C 240.5,213.833 240.833,213.5 241.5,213.5C 244.746,212.946 247.746,211.946 250.5,210.5C 252.5,210.167 254.5,209.833 256.5,209.5C 265.833,209.5 275.167,209.5 284.5,209.5C 284.394,206.921 285.061,204.588 286.5,202.5C 291.177,197.666 296.177,197.333 301.5,201.5 Z"/></g>
<g><path style="opacity:1" fill="#cc3541" d="M 381.5,201.5 C 381.664,204.187 381.497,206.854 381,209.5C 379.513,210.155 378.347,211.155 377.5,212.5C 379.969,213.168 382.302,213.835 384.5,214.5C 382.821,214.285 381.821,214.952 381.5,216.5C 372.556,217.997 363.556,218.997 354.5,219.5C 349.5,219.5 344.5,219.5 339.5,219.5C 338.127,219.657 336.793,219.49 335.5,219C 337.285,217.837 339.285,217.17 341.5,217C 339.167,216.667 336.833,216.333 334.5,216C 335.737,215.768 336.737,215.268 337.5,214.5C 347.805,213.257 357.805,210.757 367.5,207C 369.557,198.166 374.224,196.333 381.5,201.5 Z"/></g>
<g><path style="opacity:1" fill="#ca4752" d="M 303.5,206.5 C 303.726,209.249 303.393,211.916 302.5,214.5C 304.833,214.833 307.167,215.167 309.5,215.5C 315.205,215.092 320.872,214.425 326.5,213.5C 330.179,213.724 333.846,214.058 337.5,214.5C 336.737,215.268 335.737,215.768 334.5,216C 336.833,216.333 339.167,216.667 341.5,217C 339.285,217.17 337.285,217.837 335.5,219C 336.793,219.49 338.127,219.657 339.5,219.5C 335.03,220.486 330.363,220.819 325.5,220.5C 314.833,220.5 304.167,220.5 293.5,220.5C 296.305,219.681 299.305,219.181 302.5,219C 295.852,219.742 290.185,217.909 285.5,213.5C 285.5,212.167 285.5,210.833 285.5,209.5C 291.497,208.501 297.497,207.501 303.5,206.5 Z"/></g>
<g><path style="opacity:1" fill="#cb5b66" d="M 285.5,213.5 C 290.185,217.909 295.852,219.742 302.5,219C 299.305,219.181 296.305,219.681 293.5,220.5C 272.044,220.636 250.711,220.303 229.5,219.5C 232.785,217.025 236.452,215.358 240.5,214.5C 255.525,214.749 270.525,214.416 285.5,213.5 Z"/></g>
<g><path style="opacity:1" fill="#743436" d="M 456.5,205.5 C 458.368,206.263 460.035,207.263 461.5,208.5C 460.761,208.369 460.094,208.536 459.5,209C 462.696,215.216 466.363,221.216 470.5,227C 478.833,227.667 487.167,227.667 495.5,227C 494.748,226.329 494.414,225.496 494.5,224.5C 495.833,225.167 496.833,226.167 497.5,227.5C 488.348,228.494 479.015,228.827 469.5,228.5C 463.839,221.84 458.339,214.84 453,207.5C 452.333,206.833 452.333,206.167 453,205.5C 453.986,206.171 455.153,206.171 456.5,205.5 Z"/></g>
<g><path style="opacity:1" fill="#b7242f" d="M 354.5,219.5 C 363.556,218.997 372.556,217.997 381.5,216.5C 386.269,216.387 390.936,217.053 395.5,218.5C 404.217,217.306 412.717,217.306 421,218.5C 422.681,218.392 423.848,217.725 424.5,216.5C 432.59,218.282 437.423,214.949 439,206.5C 441.359,210.284 442.859,214.117 443.5,218C 442.193,220.324 440.193,221.657 437.5,222C 418.652,222.222 399.819,221.722 381,220.5C 371.989,221.508 363.155,221.175 354.5,219.5 Z"/></g>
<g><path style="opacity:1" fill="#fee294" d="M 145.5,217.5 C 148.239,221.848 152.239,223.515 157.5,222.5C 158.376,222.369 159.043,222.702 159.5,223.5C 148.675,233.49 137.675,243.323 126.5,253C 116.504,254.61 106.504,256.11 96.5,257.5C 95.8902,256.609 95.5569,255.609 95.5,254.5C 107.107,254.553 115.774,249.553 121.5,239.5C 123.895,244.483 127.562,245.65 132.5,243C 136.724,238.059 136.057,233.892 130.5,230.5C 137.671,228.661 142.671,224.328 145.5,217.5 Z"/></g>
<g><path style="opacity:1" fill="#b04d55" d="M 228.5,219.5 C 228.833,219.5 229.167,219.5 229.5,219.5C 250.711,220.303 272.044,220.636 293.5,220.5C 293.389,221.117 293.056,221.617 292.5,222C 289.167,222.333 285.833,222.667 282.5,223C 285.036,223.186 287.369,223.686 289.5,224.5C 267.833,224.5 246.167,224.5 224.5,224.5C 225.833,222.833 227.167,221.167 228.5,219.5 Z"/></g>
<g><path style="opacity:1" fill="#a63941" d="M 293.5,220.5 C 304.167,220.5 314.833,220.5 325.5,220.5C 343.228,223.402 361.228,224.735 379.5,224.5C 370.682,225.493 361.682,225.827 352.5,225.5C 331.49,225.643 310.49,225.309 289.5,224.5C 287.369,223.686 285.036,223.186 282.5,223C 285.833,222.667 289.167,222.333 292.5,222C 293.056,221.617 293.389,221.117 293.5,220.5 Z"/></g>
<g><path style="opacity:1" fill="#fdbb54" d="M 173.5,194.5 C 181.506,197.84 187.173,203.506 190.5,211.5C 193.152,215.817 196.485,219.484 200.5,222.5C 200.16,226.649 200.16,230.816 200.5,235C 203.287,240.743 205.954,246.576 208.5,252.5C 208.331,254.117 207.997,255.784 207.5,257.5C 205.207,259.085 202.873,260.585 200.5,262C 174.923,265.648 149.256,268.148 123.5,269.5C 113.992,269.556 104.492,269.889 95,270.5C 89.9893,270.703 85.156,270.036 80.5,268.5C 78.1289,266.003 77.1289,263.003 77.5,259.5C 83.8237,258.751 90.1571,258.085 96.5,257.5C 96.5,258.167 96.5,258.833 96.5,259.5C 96.6816,261.591 96.3482,263.591 95.5,265.5C 96.6667,265.833 97.8333,266.167 99,266.5C 119.59,264.447 140.09,261.781 160.5,258.5C 160.263,257.209 160.596,256.209 161.5,255.5C 162.093,263.571 165.926,265.571 173,261.5C 174.128,259.655 174.628,257.655 174.5,255.5C 177.813,254.955 181.146,254.455 184.5,254C 186.997,253.588 188.997,252.422 190.5,250.5C 189.698,244.736 188.531,238.736 187,232.5C 186.667,232.167 186.333,231.833 186,231.5C 183.761,234.962 180.594,236.295 176.5,235.5C 172.223,232.45 171.556,228.783 174.5,224.5C 177.546,222.219 180.879,221.885 184.5,223.5C 183.313,218.085 181.813,212.752 180,207.5C 177.295,203.423 175.128,199.09 173.5,194.5 Z"/></g>
<g><path style="opacity:1" fill="#9a4246" d="M 224.5,224.5 C 246.167,224.5 267.833,224.5 289.5,224.5C 310.49,225.309 331.49,225.643 352.5,225.5C 376.496,226.602 400.496,227.602 424.5,228.5C 364.167,228.5 303.833,228.5 243.5,228.5C 241.5,228.5 239.5,228.5 237.5,228.5C 236.167,228.5 234.833,228.5 233.5,228.5C 232.5,228.5 231.5,228.5 230.5,228.5C 227.5,228.5 224.5,228.5 221.5,228.5C 221.833,227.833 222.167,227.167 222.5,226.5C 222.833,225.5 223.5,224.833 224.5,224.5 Z"/></g>
<g><path style="opacity:1" fill="#fed983" d="M 151.5,189.5 C 153.5,189.5 155.5,189.5 157.5,189.5C 160.01,189.927 162.343,190.593 164.5,191.5C 163.957,191.56 163.624,191.893 163.5,192.5C 168.369,202.775 172.036,213.442 174.5,224.5C 171.556,228.783 172.223,232.45 176.5,235.5C 170.152,241.848 163.485,247.848 156.5,253.5C 137.217,256.874 117.883,259.874 98.5,262.5C 97.8243,261.398 97.1577,260.398 96.5,259.5C 96.5,258.833 96.5,258.167 96.5,257.5C 106.504,256.11 116.504,254.61 126.5,253C 137.675,243.323 148.675,233.49 159.5,223.5C 159.043,222.702 158.376,222.369 157.5,222.5C 160.139,220.691 162.306,218.358 164,215.5C 164.661,206.663 160.495,202.663 151.5,203.5C 153.292,202.691 155.292,202.191 157.5,202C 156.165,197.497 154.165,193.331 151.5,189.5 Z"/></g>
<g><path style="opacity:0.997" fill="#f6927d" d="M 497.5,227.5 C 503.278,227.1 507.945,229.1 511.5,233.5C 511.5,234.167 511.5,234.833 511.5,235.5C 424.499,235.667 337.499,235.5 250.5,235C 246.992,233.988 244.658,231.822 243.5,228.5C 303.833,228.5 364.167,228.5 424.5,228.5C 435.167,228.5 445.833,228.5 456.5,228.5C 460.833,228.5 465.167,228.5 469.5,228.5C 479.015,228.827 488.348,228.494 497.5,227.5 Z"/></g>
<g><path style="opacity:1" fill="#fcc76c" d="M 130.5,230.5 C 136.057,233.892 136.724,238.059 132.5,243C 127.562,245.65 123.895,244.483 121.5,239.5C 121.5,233.5 124.5,230.5 130.5,230.5 Z"/></g>
<g><path style="opacity:1" fill="#fece70" d="M 174.5,255.5 C 172.041,250.848 168.375,249.681 163.5,252C 162.177,252.816 161.511,253.983 161.5,255.5C 160.596,256.209 160.263,257.209 160.5,258.5C 140.09,261.781 119.59,264.447 99,266.5C 97.8333,266.167 96.6667,265.833 95.5,265.5C 96.3482,263.591 96.6816,261.591 96.5,259.5C 97.1577,260.398 97.8243,261.398 98.5,262.5C 117.883,259.874 137.217,256.874 156.5,253.5C 163.485,247.848 170.152,241.848 176.5,235.5C 180.594,236.295 183.761,234.962 186,231.5C 186.333,231.833 186.667,232.167 187,232.5C 188.531,238.736 189.698,244.736 190.5,250.5C 188.997,252.422 186.997,253.588 184.5,254C 181.146,254.455 177.813,254.955 174.5,255.5 Z"/></g>
<g><path style="opacity:1" fill="#e37c64" d="M 237.5,228.5 C 239.5,228.5 241.5,228.5 243.5,228.5C 244.658,231.822 246.992,233.988 250.5,235C 337.499,235.5 424.499,235.667 511.5,235.5C 511.5,236.833 511.5,238.167 511.5,239.5C 426.833,239.667 342.166,239.5 257.5,239C 250.339,237.994 243.839,235.494 238,231.5C 237.517,230.552 237.351,229.552 237.5,228.5 Z"/></g>
<g><path style="opacity:0.999" fill="#da7158" d="M 233.5,228.5 C 234.833,228.5 236.167,228.5 237.5,228.5C 237.351,229.552 237.517,230.552 238,231.5C 243.839,235.494 250.339,237.994 257.5,239C 342.166,239.5 426.833,239.667 511.5,239.5C 511.5,240.167 511.5,240.833 511.5,241.5C 426.499,241.667 341.499,241.5 256.5,241C 250.963,238.932 245.296,237.266 239.5,236C 236.906,233.914 234.906,231.414 233.5,228.5 Z"/></g>
<g><path style="opacity:0.998" fill="#cb6044" d="M 230.5,228.5 C 231.5,228.5 232.5,228.5 233.5,228.5C 234.906,231.414 236.906,233.914 239.5,236C 245.296,237.266 250.963,238.932 256.5,241C 341.499,241.5 426.499,241.667 511.5,241.5C 511.5,242.5 511.5,243.5 511.5,244.5C 510.833,244.5 510.5,244.833 510.5,245.5C 424.166,245.667 337.833,245.5 251.5,245C 249.414,244.685 247.414,244.185 245.5,243.5C 240.54,239.712 235.707,235.712 231,231.5C 230.517,230.552 230.351,229.552 230.5,228.5 Z"/></g>
<g><path style="opacity:0.997" fill="#c35639" d="M 245.5,243.5 C 247.414,244.185 249.414,244.685 251.5,245C 337.833,245.5 424.166,245.667 510.5,245.5C 508.366,250.076 504.699,252.409 499.5,252.5C 495.702,251.517 491.702,251.183 487.5,251.5C 468.833,251.5 450.167,251.5 431.5,251.5C 385.833,251.5 340.167,251.5 294.5,251.5C 278.83,251.667 263.163,251.5 247.5,251C 246.044,249.255 244.711,247.422 243.5,245.5C 244.243,244.818 244.909,244.151 245.5,243.5 Z"/></g>
<g><path style="opacity:1" fill="#f6872e" d="M 215.5,267.5 C 212.448,265.56 211.115,262.727 211.5,259C 211.271,255.06 212.938,252.227 216.5,250.5C 224.399,248.45 229.066,251.45 230.5,259.5C 228.779,268.186 223.779,270.852 215.5,267.5 Z"/></g>
<g><path style="opacity:1" fill="#8a402e" d="M 277.5,268.5 C 271.811,265.771 265.811,263.938 259.5,263C 255.114,260.807 250.78,258.64 246.5,256.5C 245.833,255.5 245.167,254.5 244.5,253.5C 252.99,252.343 261.657,252.176 270.5,253C 273.702,258.201 276.035,263.368 277.5,268.5 Z"/></g>
<g><path style="opacity:1" fill="#ee633c" d="M 225.5,232.5 C 229.332,233.818 232.499,236.152 235,239.5C 237.448,244.752 240.614,249.419 244.5,253.5C 245.167,254.5 245.833,255.5 246.5,256.5C 248.069,260.534 250.569,263.867 254,266.5C 255.822,270.814 257.656,275.148 259.5,279.5C 257.5,279.5 255.5,279.5 253.5,279.5C 253.498,275.489 252.332,271.822 250,268.5C 247.667,264.833 245.333,261.167 243,257.5C 238.193,253.885 234.859,249.219 233,243.5C 229.985,240.122 227.485,236.456 225.5,232.5 Z"/></g>
<g><path style="opacity:1" fill="#faa543" d="M 174.5,255.5 C 174.628,257.655 174.128,259.655 173,261.5C 165.926,265.571 162.093,263.571 161.5,255.5C 161.511,253.983 162.177,252.816 163.5,252C 168.375,249.681 172.041,250.848 174.5,255.5 Z"/></g>
<g><path style="opacity:1" fill="#fcac41" d="M 200.5,222.5 C 202.819,222.992 204.819,223.992 206.5,225.5C 205.522,225.811 204.855,226.478 204.5,227.5C 208.708,234.75 213.041,241.916 217.5,249C 216.944,249.383 216.611,249.883 216.5,250.5C 212.938,252.227 211.271,255.06 211.5,259C 211.115,262.727 212.448,265.56 215.5,267.5C 214.415,269.582 212.915,269.916 211,268.5C 192.731,268.947 175.231,270.114 158.5,272C 145.504,272.5 132.504,272.667 119.5,272.5C 124.985,271.673 130.652,271.173 136.5,271C 131.981,270.825 127.647,270.325 123.5,269.5C 149.256,268.148 174.923,265.648 200.5,262C 202.873,260.585 205.207,259.085 207.5,257.5C 207.997,255.784 208.331,254.117 208.5,252.5C 205.954,246.576 203.287,240.743 200.5,235C 200.16,230.816 200.16,226.649 200.5,222.5 Z"/></g>
<g><path style="opacity:1" fill="#a34d38" d="M 219.5,228.5 C 220.167,228.5 220.833,228.5 221.5,228.5C 224.5,228.5 227.5,228.5 230.5,228.5C 230.351,229.552 230.517,230.552 231,231.5C 235.707,235.712 240.54,239.712 245.5,243.5C 244.909,244.151 244.243,244.818 243.5,245.5C 244.711,247.422 246.044,249.255 247.5,251C 263.163,251.5 278.83,251.667 294.5,251.5C 295.609,252.29 296.942,252.79 298.5,253C 297.167,255 295.5,256.667 293.5,258C 294.214,259.343 293.88,260.676 292.5,262C 293.551,264.369 294.218,266.869 294.5,269.5C 294.094,272.559 294.094,275.559 294.5,278.5C 292.955,279.452 291.288,279.785 289.5,279.5C 286.099,275.096 282.099,271.429 277.5,268.5C 276.035,263.368 273.702,258.201 270.5,253C 261.657,252.176 252.99,252.343 244.5,253.5C 240.614,249.419 237.448,244.752 235,239.5C 232.499,236.152 229.332,233.818 225.5,232.5C 223.81,230.658 221.81,229.325 219.5,228.5 Z"/></g>
<g><path style="opacity:1" fill="#c9674f" d="M 438.5,257.5 C 442.019,258.632 445.686,259.632 449.5,260.5C 449.799,263.013 451.132,265.18 453.5,267C 452.359,267.741 452.359,268.575 453.5,269.5C 451.665,270.428 451.332,271.594 452.5,273C 451.018,274.983 449.351,276.816 447.5,278.5C 447.167,278.167 446.833,277.833 446.5,277.5C 447.648,275.851 448.981,274.351 450.5,273C 449.273,271.413 449.606,270.079 451.5,269C 448.579,265.831 444.912,263.665 440.5,262.5C 439.893,262.624 439.56,262.957 439.5,263.5C 414.092,260.908 388.592,259.575 363,259.5C 356.184,259.94 349.517,259.94 343,259.5C 334.889,259.734 327.389,261.901 320.5,266C 320.833,266.333 321.167,266.667 321.5,267C 319.07,269.195 317.403,271.862 316.5,275C 318.896,279.529 322.23,283.195 326.5,286C 325.911,287.873 326.578,289.54 328.5,291C 331.484,293.326 334.817,294.826 338.5,295.5C 339.749,297.136 341.416,298.303 343.5,299C 348.615,299.955 353.615,301.289 358.5,303C 351.185,302.073 343.852,300.906 336.5,299.5C 332.167,297.378 327.833,295.711 323.5,294.5C 321.956,294.297 320.622,293.63 319.5,292.5C 316.625,287.445 313.125,282.779 309,278.5C 308.974,275.976 308.474,273.309 307.5,270.5C 307.166,263.307 310.832,259.14 318.5,258C 327.3,256.89 336.133,256.057 345,255.5C 376.158,256.279 407.325,256.946 438.5,257.5 Z"/></g>
<g><path style="opacity:1" fill="#d57058" d="M 439.5,263.5 C 440.686,264.705 440.686,266.039 439.5,267.5C 438.711,267.217 438.044,266.717 437.5,266C 430.81,265.442 424.143,265.109 417.5,265C 423.061,265.97 428.394,267.636 433.5,270C 431.386,271.518 429.053,271.851 426.5,271C 427.5,270.667 428.5,270.333 429.5,270C 419.185,268.614 408.852,267.447 398.5,266.5C 385.328,265.728 372.161,264.728 359,263.5C 349.295,263.696 340.128,265.863 331.5,270C 331.833,270.333 332.167,270.667 332.5,271C 329.663,271.998 327.997,273.998 327.5,277C 330.553,280.186 334.22,282.353 338.5,283.5C 338.389,284.117 338.056,284.617 337.5,285C 344.243,288.912 351.243,292.245 358.5,295C 351.681,295.47 345.348,293.97 339.5,290.5C 338.773,291.483 339.107,292.483 340.5,293.5C 342.661,294.035 344.661,294.868 346.5,296C 345.906,296.464 345.239,296.631 344.5,296.5C 343.883,296.611 343.383,296.944 343,297.5C 341.89,295.963 340.39,295.297 338.5,295.5C 334.817,294.826 331.484,293.326 328.5,291C 326.578,289.54 325.911,287.873 326.5,286C 322.23,283.195 318.896,279.529 316.5,275C 317.403,271.862 319.07,269.195 321.5,267C 321.167,266.667 320.833,266.333 320.5,266C 327.389,261.901 334.889,259.734 343,259.5C 349.517,259.94 356.184,259.94 363,259.5C 388.592,259.575 414.092,260.908 439.5,263.5 Z"/></g>
<g><path style="opacity:0.998" fill="#fcce79" d="M 95.5,254.5 C 95.5569,255.609 95.8902,256.609 96.5,257.5C 90.1571,258.085 83.8237,258.751 77.5,259.5C 77.1289,263.003 78.1289,266.003 80.5,268.5C 62.5,268.5 44.5,268.5 26.5,268.5C 35.0809,265.178 43.7476,261.844 52.5,258.5C 60.8599,258.831 69.1932,258.498 77.5,257.5C 82.2612,249.373 88.2612,248.373 95.5,254.5 Z"/></g>
<g><path style="opacity:1" fill="#e94a43" d="M 246.5,256.5 C 250.78,258.64 255.114,260.807 259.5,263C 265.811,263.938 271.811,265.771 277.5,268.5C 282.099,271.429 286.099,275.096 289.5,279.5C 289.5,279.833 289.5,280.167 289.5,280.5C 281.833,280.5 274.167,280.5 266.5,280.5C 264.393,279.532 262.059,279.198 259.5,279.5C 257.656,275.148 255.822,270.814 254,266.5C 250.569,263.867 248.069,260.534 246.5,256.5 Z"/></g>
<g><path style="opacity:1" fill="#cf664c" d="M 449.5,260.5 C 453.994,260.495 457.661,262.162 460.5,265.5C 459.96,266.748 459.293,267.915 458.5,269C 459.634,270.016 459.301,270.683 457.5,271C 457.833,271.333 458.167,271.667 458.5,272C 451.423,280.035 443.089,287.369 433.5,294C 413.194,302.634 392.027,307.134 370,307.5C 365.251,306.695 360.418,306.195 355.5,306C 352.766,305.79 350.266,304.956 348,303.5C 347.667,303.833 347.333,304.167 347,304.5C 343.073,303.497 339.573,301.83 336.5,299.5C 343.852,300.906 351.185,302.073 358.5,303C 353.615,301.289 348.615,299.955 343.5,299C 341.416,298.303 339.749,297.136 338.5,295.5C 340.39,295.297 341.89,295.963 343,297.5C 343.383,296.944 343.883,296.611 344.5,296.5C 354.516,298.264 364.683,299.597 375,300.5C 387.376,297.965 399.876,295.798 412.5,294C 421.038,288.566 429.705,283.4 438.5,278.5C 438.975,276.103 439.975,273.603 441.5,271C 439.759,269.917 439.093,268.75 439.5,267.5C 440.686,266.039 440.686,264.705 439.5,263.5C 439.56,262.957 439.893,262.624 440.5,262.5C 444.912,263.665 448.579,265.831 451.5,269C 449.606,270.079 449.273,271.413 450.5,273C 448.981,274.351 447.648,275.851 446.5,277.5C 446.833,277.833 447.167,278.167 447.5,278.5C 449.351,276.816 451.018,274.983 452.5,273C 451.332,271.594 451.665,270.428 453.5,269.5C 452.359,268.575 452.359,267.741 453.5,267C 451.132,265.18 449.799,263.013 449.5,260.5 Z"/></g>
<g><path style="opacity:1" fill="#f27237" d="M 218.5,228.5 C 218.833,228.5 219.167,228.5 219.5,228.5C 221.81,229.325 223.81,230.658 225.5,232.5C 227.485,236.456 229.985,240.122 233,243.5C 234.859,249.219 238.193,253.885 243,257.5C 245.333,261.167 247.667,264.833 250,268.5C 252.332,271.822 253.498,275.489 253.5,279.5C 251.167,279.5 248.833,279.5 246.5,279.5C 248.844,272.895 247.177,267.562 241.5,263.5C 233.388,252.069 225.722,240.402 218.5,228.5 Z"/></g>
<g><path style="opacity:1" fill="#e17a62" d="M 398.5,266.5 C 402.904,267.793 407.237,269.459 411.5,271.5C 413.743,272.474 416.076,272.808 418.5,272.5C 418.452,275.292 419.785,277.125 422.5,278C 405.973,283.509 389.473,289.009 373,294.5C 372,293.833 371,293.167 370,292.5C 366.726,292.985 363.559,292.985 360.5,292.5C 356.231,291.147 352.064,289.48 348,287.5C 347.667,287.833 347.333,288.167 347,288.5C 344.057,286.948 341.223,285.281 338.5,283.5C 334.22,282.353 330.553,280.186 327.5,277C 327.997,273.998 329.663,271.998 332.5,271C 332.167,270.667 331.833,270.333 331.5,270C 340.128,265.863 349.295,263.696 359,263.5C 372.161,264.728 385.328,265.728 398.5,266.5 Z"/></g>
<g><path style="opacity:1" fill="#f89337" d="M 206.5,225.5 C 208.786,225.595 210.786,226.262 212.5,227.5C 212.062,227.435 211.728,227.601 211.5,228C 213.767,231.72 216.6,234.887 220,237.5C 223.611,243.444 227.611,249.111 232,254.5C 236.039,259.951 238.039,265.951 238,272.5C 234.588,274.879 230.755,276.212 226.5,276.5C 220.773,275.896 214.773,275.229 208.5,274.5C 167.346,274.562 126.346,274.229 85.5,273.5C 96.815,272.706 108.148,272.373 119.5,272.5C 132.504,272.667 145.504,272.5 158.5,272C 175.231,270.114 192.731,268.947 211,268.5C 212.915,269.916 214.415,269.582 215.5,267.5C 223.779,270.852 228.779,268.186 230.5,259.5C 229.066,251.45 224.399,248.45 216.5,250.5C 216.611,249.883 216.944,249.383 217.5,249C 213.041,241.916 208.708,234.75 204.5,227.5C 204.855,226.478 205.522,225.811 206.5,225.5 Z"/></g>
<g><path style="opacity:1" fill="#f58333" d="M 212.5,227.5 C 214.5,227.833 216.5,228.167 218.5,228.5C 225.722,240.402 233.388,252.069 241.5,263.5C 247.177,267.562 248.844,272.895 246.5,279.5C 240.833,279.5 235.167,279.5 229.5,279.5C 223.16,277.231 216.493,276.064 209.5,276C 208.944,275.617 208.611,275.117 208.5,274.5C 214.773,275.229 220.773,275.896 226.5,276.5C 230.755,276.212 234.588,274.879 238,272.5C 238.039,265.951 236.039,259.951 232,254.5C 227.611,249.111 223.611,243.444 220,237.5C 216.6,234.887 213.767,231.72 211.5,228C 211.728,227.601 212.062,227.435 212.5,227.5 Z"/></g>
<g><path style="opacity:1" fill="#da7259" d="M 439.5,267.5 C 439.093,268.75 439.759,269.917 441.5,271C 439.975,273.603 438.975,276.103 438.5,278.5C 429.705,283.4 421.038,288.566 412.5,294C 399.876,295.798 387.376,297.965 375,300.5C 364.683,299.597 354.516,298.264 344.5,296.5C 345.239,296.631 345.906,296.464 346.5,296C 344.661,294.868 342.661,294.035 340.5,293.5C 339.107,292.483 338.773,291.483 339.5,290.5C 345.348,293.97 351.681,295.47 358.5,295C 351.243,292.245 344.243,288.912 337.5,285C 338.056,284.617 338.389,284.117 338.5,283.5C 341.223,285.281 344.057,286.948 347,288.5C 347.333,288.167 347.667,287.833 348,287.5C 352.064,289.48 356.231,291.147 360.5,292.5C 363.559,292.985 366.726,292.985 370,292.5C 371,293.167 372,293.833 373,294.5C 389.473,289.009 405.973,283.509 422.5,278C 419.785,277.125 418.452,275.292 418.5,272.5C 416.076,272.808 413.743,272.474 411.5,271.5C 407.237,269.459 402.904,267.793 398.5,266.5C 408.852,267.447 419.185,268.614 429.5,270C 428.5,270.333 427.5,270.667 426.5,271C 429.053,271.851 431.386,271.518 433.5,270C 428.394,267.636 423.061,265.97 417.5,265C 424.143,265.109 430.81,265.442 437.5,266C 438.044,266.717 438.711,267.217 439.5,267.5 Z"/></g>
<g><path style="opacity:0.999" fill="#f8ab5b" d="M 26.5,268.5 C 44.5,268.5 62.5,268.5 80.5,268.5C 85.156,270.036 89.9893,270.703 95,270.5C 104.492,269.889 113.992,269.556 123.5,269.5C 127.647,270.325 131.981,270.825 136.5,271C 130.652,271.173 124.985,271.673 119.5,272.5C 108.148,272.373 96.815,272.706 85.5,273.5C 63.005,274.663 40.6717,274.663 18.5,273.5C 20.8584,271.322 23.5251,269.655 26.5,268.5 Z"/></g>
<g><path style="opacity:1" fill="#f58a44" d="M 18.5,273.5 C 40.6717,274.663 63.005,274.663 85.5,273.5C 126.346,274.229 167.346,274.562 208.5,274.5C 208.611,275.117 208.944,275.617 209.5,276C 216.493,276.064 223.16,277.231 229.5,279.5C 158.534,277.519 87.5339,276.519 16.5,276.5C 16.9321,275.29 17.5987,274.29 18.5,273.5 Z"/></g>
<g><path style="opacity:0.996" fill="#9a4631" d="M 499.5,252.5 C 493.022,266.126 485.522,279.126 477,291.5C 460.225,311.807 438.725,323.64 412.5,327C 376.125,327.82 339.792,327.654 303.5,326.5C 300.86,325.18 298.193,323.847 295.5,322.5C 292.993,321.108 290.327,320.108 287.5,319.5C 286.5,319.5 285.5,319.5 284.5,319.5C 286.81,314.208 289.143,308.874 291.5,303.5C 296.453,303.746 300.119,301.746 302.5,297.5C 303.675,297.281 304.675,297.614 305.5,298.5C 315.152,314.411 329.319,322.411 348,322.5C 360.811,321.469 373.645,320.135 386.5,318.5C 399.696,320.792 412.696,321.625 425.5,321C 435.098,317.868 443.432,312.701 450.5,305.5C 465.543,291.289 479.376,275.956 492,259.5C 492.931,257.541 493.764,255.541 494.5,253.5C 496.045,252.548 497.712,252.215 499.5,252.5 Z"/></g>
<g><path style="opacity:1" fill="#f27c4b" d="M 16.5,276.5 C 87.5339,276.519 158.534,277.519 229.5,279.5C 235.167,279.5 240.833,279.5 246.5,279.5C 248.833,279.5 251.167,279.5 253.5,279.5C 255.5,279.5 257.5,279.5 259.5,279.5C 262.059,279.198 264.393,279.532 266.5,280.5C 182.096,280.83 97.7627,280.497 13.5,279.5C 14.1667,278.167 15.1667,277.167 16.5,276.5 Z"/></g>
<g><path style="opacity:0.998" fill="#f6927d" d="M 13.5,279.5 C 97.7627,280.497 182.096,280.83 266.5,280.5C 274.167,280.5 281.833,280.5 289.5,280.5C 295.041,279.376 299.374,281.042 302.5,285.5C 201.839,287.498 100.839,288.164 -0.5,287.5C -0.5,286.833 -0.5,286.167 -0.5,285.5C 2.8891,280.812 7.55577,278.812 13.5,279.5 Z"/></g>
<g><path style="opacity:1" fill="#ba5c45" d="M 294.5,251.5 C 340.167,251.5 385.833,251.5 431.5,251.5C 439.99,252.33 448.657,252.83 457.5,253C 454.5,253.333 451.5,253.667 448.5,254C 448.167,254.333 447.833,254.667 447.5,255C 448.901,255.41 450.234,255.91 451.5,256.5C 448.587,257.528 444.254,257.861 438.5,257.5C 407.325,256.946 376.158,256.279 345,255.5C 336.133,256.057 327.3,256.89 318.5,258C 310.832,259.14 307.166,263.307 307.5,270.5C 308.474,273.309 308.974,275.976 309,278.5C 313.125,282.779 316.625,287.445 319.5,292.5C 320.622,293.63 321.956,294.297 323.5,294.5C 324.031,296.624 325.365,298.124 327.5,299C 327.272,299.399 326.938,299.565 326.5,299.5C 325.448,299.351 324.448,299.517 323.5,300C 326.328,302.248 329.328,304.248 332.5,306C 332,306.5 331.5,307 331,307.5C 325.552,304.739 320.052,302.072 314.5,299.5C 313.504,299.586 312.671,299.252 312,298.5C 311.293,296.919 310.46,295.419 309.5,294C 309.833,293.667 310.167,293.333 310.5,293C 308.342,291.543 306.509,289.71 305,287.5C 304.809,289.708 304.309,291.708 303.5,293.5C 303.5,292.833 303.5,292.167 303.5,291.5C 303.795,289.265 303.461,287.265 302.5,285.5C 299.374,281.042 295.041,279.376 289.5,280.5C 289.5,280.167 289.5,279.833 289.5,279.5C 291.288,279.785 292.955,279.452 294.5,278.5C 294.094,275.559 294.094,272.559 294.5,269.5C 294.218,266.869 293.551,264.369 292.5,262C 293.88,260.676 294.214,259.343 293.5,258C 295.5,256.667 297.167,255 298.5,253C 296.942,252.79 295.609,252.29 294.5,251.5 Z"/></g>
<g><path style="opacity:1" fill="#c35c42" d="M 451.5,256.5 C 454.339,255.66 457.173,255.327 460,255.5C 465.748,255.184 470.248,257.351 473.5,262C 471.431,262.324 471.098,263.158 472.5,264.5C 469.321,269.533 466.154,274.533 463,279.5C 454.164,285.346 446.331,292.179 439.5,300C 430.135,306.349 419.802,309.849 408.5,310.5C 405.833,310.333 403.167,310.167 400.5,310C 400.833,309.667 401.167,309.333 401.5,309C 400.584,308.626 399.75,308.126 399,307.5C 379.433,310.646 359.933,310.146 340.5,306C 335.433,304.488 330.767,302.321 326.5,299.5C 326.938,299.565 327.272,299.399 327.5,299C 325.365,298.124 324.031,296.624 323.5,294.5C 327.833,295.711 332.167,297.378 336.5,299.5C 339.573,301.83 343.073,303.497 347,304.5C 347.333,304.167 347.667,303.833 348,303.5C 350.266,304.956 352.766,305.79 355.5,306C 360.418,306.195 365.251,306.695 370,307.5C 392.027,307.134 413.194,302.634 433.5,294C 443.089,287.369 451.423,280.035 458.5,272C 458.167,271.667 457.833,271.333 457.5,271C 459.301,270.683 459.634,270.016 458.5,269C 459.293,267.915 459.96,266.748 460.5,265.5C 457.661,262.162 453.994,260.495 449.5,260.5C 445.686,259.632 442.019,258.632 438.5,257.5C 444.254,257.861 448.587,257.528 451.5,256.5 Z"/></g>
<g><path style="opacity:1" fill="#e37c64" d="M 302.5,285.5 C 303.461,287.265 303.795,289.265 303.5,291.5C 202.167,291.5 100.833,291.5 -0.5,291.5C -0.5,290.167 -0.5,288.833 -0.5,287.5C 100.839,288.164 201.839,287.498 302.5,285.5 Z"/></g>
<g><path style="opacity:0.997" fill="#d2684e" d="M -0.5,291.5 C 100.833,291.5 202.167,291.5 303.5,291.5C 303.5,292.167 303.5,292.833 303.5,293.5C 303.672,294.492 303.338,295.158 302.5,295.5C 201.5,295.5 100.5,295.5 -0.5,295.5C -0.5,294.167 -0.5,292.833 -0.5,291.5 Z"/></g>
<g><path style="opacity:0.999" fill="#c4583b" d="M -0.5,296.5 C -0.5,296.167 -0.5,295.833 -0.5,295.5C 100.5,295.5 201.5,295.5 302.5,295.5C 302.5,296.167 302.5,296.833 302.5,297.5C 300.119,301.746 296.453,303.746 291.5,303.5C 197.999,303.167 104.665,303.501 11.5,304.5C 5.73173,304.295 1.73173,301.628 -0.5,296.5 Z"/></g>
<g><path style="opacity:1" fill="#b4533a" d="M 431.5,251.5 C 450.167,251.5 468.833,251.5 487.5,251.5C 485.958,252.163 484.291,252.83 482.5,253.5C 484.203,254.89 484.87,256.39 484.5,258C 481.483,264.354 477.65,270.187 473,275.5C 461.464,287.704 449.297,299.204 436.5,310C 432.77,311.396 429.27,313.23 426,315.5C 414.235,316.654 402.235,316.654 390,315.5C 379.152,315.918 368.319,316.585 357.5,317.5C 340.823,318.149 326.656,312.816 315,301.5C 314.536,300.906 314.369,300.239 314.5,299.5C 320.052,302.072 325.552,304.739 331,307.5C 331.5,307 332,306.5 332.5,306C 329.328,304.248 326.328,302.248 323.5,300C 324.448,299.517 325.448,299.351 326.5,299.5C 330.767,302.321 335.433,304.488 340.5,306C 359.933,310.146 379.433,310.646 399,307.5C 399.75,308.126 400.584,308.626 401.5,309C 401.167,309.333 400.833,309.667 400.5,310C 403.167,310.167 405.833,310.333 408.5,310.5C 419.802,309.849 430.135,306.349 439.5,300C 446.331,292.179 454.164,285.346 463,279.5C 466.154,274.533 469.321,269.533 472.5,264.5C 471.098,263.158 471.431,262.324 473.5,262C 470.248,257.351 465.748,255.184 460,255.5C 457.173,255.327 454.339,255.66 451.5,256.5C 450.234,255.91 448.901,255.41 447.5,255C 447.833,254.667 448.167,254.333 448.5,254C 451.5,253.667 454.5,253.333 457.5,253C 448.657,252.83 439.99,252.33 431.5,251.5 Z"/></g>
<g><path style="opacity:1" fill="#a74c35" d="M 487.5,251.5 C 491.702,251.183 495.702,251.517 499.5,252.5C 497.712,252.215 496.045,252.548 494.5,253.5C 493.764,255.541 492.931,257.541 492,259.5C 479.376,275.956 465.543,291.289 450.5,305.5C 443.432,312.701 435.098,317.868 425.5,321C 412.696,321.625 399.696,320.792 386.5,318.5C 373.645,320.135 360.811,321.469 348,322.5C 329.319,322.411 315.152,314.411 305.5,298.5C 304.675,297.614 303.675,297.281 302.5,297.5C 302.5,296.833 302.5,296.167 302.5,295.5C 303.338,295.158 303.672,294.492 303.5,293.5C 304.309,291.708 304.809,289.708 305,287.5C 306.509,289.71 308.342,291.543 310.5,293C 310.167,293.333 309.833,293.667 309.5,294C 310.46,295.419 311.293,296.919 312,298.5C 312.671,299.252 313.504,299.586 314.5,299.5C 314.369,300.239 314.536,300.906 315,301.5C 326.656,312.816 340.823,318.149 357.5,317.5C 368.319,316.585 379.152,315.918 390,315.5C 402.235,316.654 414.235,316.654 426,315.5C 429.27,313.23 432.77,311.396 436.5,310C 449.297,299.204 461.464,287.704 473,275.5C 477.65,270.187 481.483,264.354 484.5,258C 484.87,256.39 484.203,254.89 482.5,253.5C 484.291,252.83 485.958,252.163 487.5,251.5 Z"/></g>
<g><path style="opacity:1" fill="#b2553e" d="M 291.5,303.5 C 289.143,308.874 286.81,314.208 284.5,319.5C 283.833,319.5 283.167,319.5 282.5,319.5C 275.87,318.91 269.536,319.91 263.5,322.5C 262.957,322.44 262.624,322.107 262.5,321.5C 264.396,317.982 265.396,314.482 265.5,311C 258.447,308.214 251.113,307.047 243.5,307.5C 236.813,307.331 230.146,306.831 223.5,306C 153.167,305.5 82.8341,305.333 12.5,305.5C 11.8333,305.5 11.5,305.167 11.5,304.5C 104.665,303.501 197.999,303.167 291.5,303.5 Z"/></g>
<g><path style="opacity:1" fill="#c0624b" d="M 12.5,305.5 C 82.8341,305.333 153.167,305.5 223.5,306C 230.146,306.831 236.813,307.331 243.5,307.5C 243.918,308.222 244.584,308.722 245.5,309C 241.514,309.499 237.514,309.666 233.5,309.5C 160.513,309.649 87.5131,309.649 14.5,309.5C 13.8333,308.167 13.1667,306.833 12.5,305.5 Z"/></g>
<g><path style="opacity:1" fill="#d37058" d="M 14.5,309.5 C 87.5131,309.649 160.513,309.649 233.5,309.5C 236.087,310.749 238.754,311.749 241.5,312.5C 242.968,313.806 244.301,315.306 245.5,317C 244.372,319.065 242.706,319.732 240.5,319C 241.167,318.667 241.833,318.333 242.5,318C 238.839,315.849 235.172,315.015 231.5,315.5C 232.665,316.584 233.998,317.417 235.5,318C 234.833,318.333 234.167,318.667 233.5,319C 234.252,319.671 234.586,320.504 234.5,321.5C 228.433,317.65 221.767,316.483 214.5,318C 218.358,319.273 222.358,320.273 226.5,321C 225.359,321.741 225.359,322.575 226.5,323.5C 225.672,324.415 224.672,325.081 223.5,325.5C 223.874,324.229 223.208,323.062 221.5,322C 213.544,320.704 205.544,319.871 197.5,319.5C 184.593,317.916 171.593,316.749 158.5,316C 111.501,315.5 64.5012,315.333 17.5,315.5C 16.5,313.5 15.5,311.5 14.5,309.5 Z"/></g>
<g><path style="opacity:1" fill="#cf664c" d="M 241.5,312.5 C 245.131,312.16 248.464,312.994 251.5,315C 251.421,317.305 251.254,319.805 251,322.5C 249.667,324.5 248.333,326.5 247,328.5C 228.613,346.423 206.447,356.257 180.5,358C 168.335,359.355 156.168,359.521 144,358.5C 115.593,361.672 87.0933,363.172 58.5,363C 59.2524,363.671 59.5858,364.504 59.5,365.5C 58.5,365.167 57.8333,364.5 57.5,363.5C 57.3893,362.883 57.056,362.383 56.5,362C 105.137,359.722 153.471,354.722 201.5,347C 213.861,341.534 225.194,334.534 235.5,326C 233.964,324.532 233.63,323.032 234.5,321.5C 234.586,320.504 234.252,319.671 233.5,319C 234.167,318.667 234.833,318.333 235.5,318C 233.998,317.417 232.665,316.584 231.5,315.5C 235.172,315.015 238.839,315.849 242.5,318C 241.833,318.333 241.167,318.667 240.5,319C 242.706,319.732 244.372,319.065 245.5,317C 244.301,315.306 242.968,313.806 241.5,312.5 Z"/></g>
<g><path style="opacity:1" fill="#e37e66" d="M 18.5,316.5 C 62.1679,316.333 105.835,316.5 149.5,317C 164.135,318.93 178.302,322.763 192,328.5C 192.591,329.483 192.257,330.15 191,330.5C 175.5,335.667 160,340.833 144.5,346C 113.211,349.899 81.8781,353.232 50.5,356C 49.5842,356.278 48.9175,356.778 48.5,357.5C 47.1667,356.833 46.1667,355.833 45.5,354.5C 72.7098,351.674 100.043,348.841 127.5,346C 144.5,340.333 161.5,334.667 178.5,329C 164.878,324.945 150.878,321.945 136.5,320C 97.6645,319.169 58.9978,319.335 20.5,320.5C 19.3263,319.486 18.6596,318.153 18.5,316.5 Z"/></g>
<g><path style="opacity:1" fill="#d97158" d="M 234.5,321.5 C 233.63,323.032 233.964,324.532 235.5,326C 225.194,334.534 213.861,341.534 201.5,347C 153.471,354.722 105.137,359.722 56.5,362C 57.056,362.383 57.3893,362.883 57.5,363.5C 55.1475,362.66 53.1475,361.326 51.5,359.5C 51.6107,358.883 51.944,358.383 52.5,358C 90.6472,355.424 128.647,351.424 166.5,346C 182.5,340.667 198.5,335.333 214.5,330C 213.33,328.245 211.663,327.245 209.5,327C 210.5,326.667 211.5,326.333 212.5,326C 210.866,325.506 209.199,325.34 207.5,325.5C 207.5,324.5 207.5,323.5 207.5,322.5C 205.143,322.663 202.81,322.497 200.5,322C 198.881,321.764 197.881,320.931 197.5,319.5C 205.544,319.871 213.544,320.704 221.5,322C 223.208,323.062 223.874,324.229 223.5,325.5C 224.672,325.081 225.672,324.415 226.5,323.5C 225.359,322.575 225.359,321.741 226.5,321C 222.358,320.273 218.358,319.273 214.5,318C 221.767,316.483 228.433,317.65 234.5,321.5 Z"/></g>
<g><path style="opacity:1" fill="#fef6f3" d="M 282.5,319.5 C 283.547,322.596 284.88,325.596 286.5,328.5C 284.328,328.676 281.995,328.843 279.5,329C 278.069,329.465 276.903,330.299 276,331.5C 274.519,336.181 275.686,339.848 279.5,342.5C 276.501,346.332 273.001,349.665 269,352.5C 264.803,346.932 261.303,347.266 258.5,353.5C 260.106,355.59 260.606,357.924 260,360.5C 254.574,365.769 248.74,370.436 242.5,374.5C 241.287,374.253 240.62,373.586 240.5,372.5C 241.549,366.907 239.383,363.574 234,362.5C 227.851,363.694 225.851,367.361 228,373.5C 229.758,374.469 230.258,375.636 229.5,377C 215.686,378.566 202.02,378.733 188.5,377.5C 189.749,375.864 191.416,374.697 193.5,374C 197.333,372.966 200.999,371.8 204.5,370.5C 207.757,369.538 210.757,368.038 213.5,366C 216.678,360.645 220.345,355.645 224.5,351C 232.636,347.632 240.636,343.966 248.5,340C 251.787,336.707 254.287,332.873 256,328.5C 258.478,326.361 260.978,324.361 263.5,322.5C 269.536,319.91 275.87,318.91 282.5,319.5 Z"/></g>
<g><path style="opacity:0.999" fill="#ea856e" d="M 45.5,354.5 C 43.5,353.167 41.8333,351.5 40.5,349.5C 55.8929,349.106 71.2262,347.939 86.5,346C 102.771,340.465 119.104,335.132 135.5,330C 131.581,329.25 127.915,327.917 124.5,326C 90.835,325.5 57.1683,325.333 23.5,325.5C 22.2632,324.035 21.2632,322.368 20.5,320.5C 58.9978,319.335 97.6645,319.169 136.5,320C 150.878,321.945 164.878,324.945 178.5,329C 161.5,334.667 144.5,340.333 127.5,346C 100.043,348.841 72.7098,351.674 45.5,354.5 Z"/></g>
<g><path style="opacity:1" fill="#e07961" d="M 17.5,315.5 C 64.5012,315.333 111.501,315.5 158.5,316C 171.593,316.749 184.593,317.916 197.5,319.5C 197.881,320.931 198.881,321.764 200.5,322C 202.81,322.497 205.143,322.663 207.5,322.5C 207.5,323.5 207.5,324.5 207.5,325.5C 209.199,325.34 210.866,325.506 212.5,326C 211.5,326.333 210.5,326.667 209.5,327C 211.663,327.245 213.33,328.245 214.5,330C 198.5,335.333 182.5,340.667 166.5,346C 128.647,351.424 90.6472,355.424 52.5,358C 51.944,358.383 51.6107,358.883 51.5,359.5C 50.2905,359.068 49.2905,358.401 48.5,357.5C 48.9175,356.778 49.5842,356.278 50.5,356C 81.8781,353.232 113.211,349.899 144.5,346C 160,340.833 175.5,335.667 191,330.5C 192.257,330.15 192.591,329.483 192,328.5C 178.302,322.763 164.135,318.93 149.5,317C 105.835,316.5 62.1679,316.333 18.5,316.5C 17.8333,316.5 17.5,316.167 17.5,315.5 Z"/></g>
<g><path style="opacity:0.996" fill="#f6937e" d="M 23.5,325.5 C 57.1683,325.333 90.835,325.5 124.5,326C 127.915,327.917 131.581,329.25 135.5,330C 119.104,335.132 102.771,340.465 86.5,346C 71.2262,347.939 55.8929,349.106 40.5,349.5C 33.2864,342.616 27.6197,334.616 23.5,325.5 Z"/></g>
<g><path style="opacity:1" fill="#ffeee6" d="M 240.5,372.5 C 240.62,373.586 241.287,374.253 242.5,374.5C 248.74,370.436 254.574,365.769 260,360.5C 260.606,357.924 260.106,355.59 258.5,353.5C 261.303,347.266 264.803,346.932 269,352.5C 273.001,349.665 276.501,346.332 279.5,342.5C 284.919,343.041 288.419,340.707 290,335.5C 292.533,339.203 293.866,343.203 294,347.5C 283.833,356.333 273.667,365.167 263.5,374C 254.827,375.002 246.161,375.669 237.5,376C 238.636,374.855 239.636,373.688 240.5,372.5 Z"/></g>
<g><path style="opacity:1" fill="#bf5b41" d="M 243.5,307.5 C 251.113,307.047 258.447,308.214 265.5,311C 265.396,314.482 264.396,317.982 262.5,321.5C 262.624,322.107 262.957,322.44 263.5,322.5C 260.978,324.361 258.478,326.361 256,328.5C 254.287,332.873 251.787,336.707 248.5,340C 240.636,343.966 232.636,347.632 224.5,351C 220.345,355.645 216.678,360.645 213.5,366C 210.757,368.038 207.757,369.538 204.5,370.5C 186.197,369.079 167.864,368.079 149.5,367.5C 122.338,368.104 95.3383,368.771 68.5,369.5C 65.419,368.462 62.419,367.128 59.5,365.5C 59.5858,364.504 59.2524,363.671 58.5,363C 87.0933,363.172 115.593,361.672 144,358.5C 156.168,359.521 168.335,359.355 180.5,358C 206.447,356.257 228.613,346.423 247,328.5C 248.333,326.5 249.667,324.5 251,322.5C 251.254,319.805 251.421,317.305 251.5,315C 248.464,312.994 245.131,312.16 241.5,312.5C 238.754,311.749 236.087,310.749 233.5,309.5C 237.514,309.666 241.514,309.499 245.5,309C 244.584,308.722 243.918,308.222 243.5,307.5 Z"/></g>
<g><path style="opacity:1" fill="#ffe4da" d="M 282.5,319.5 C 283.167,319.5 283.833,319.5 284.5,319.5C 285.5,319.5 286.5,319.5 287.5,319.5C 292.424,326.496 296.758,333.996 300.5,342C 295.885,343.077 294.385,345.91 296,350.5C 296.804,351.804 297.971,352.471 299.5,352.5C 301.258,351.554 302.925,351.554 304.5,352.5C 307.296,356.626 309.296,361.126 310.5,366C 307.167,368.667 303.833,371.333 300.5,374C 261.405,379.924 222.072,382.758 182.5,382.5C 182.557,381.391 182.89,380.391 183.5,379.5C 185.167,378.833 186.833,378.167 188.5,377.5C 202.02,378.733 215.686,378.566 229.5,377C 230.258,375.636 229.758,374.469 228,373.5C 225.851,367.361 227.851,363.694 234,362.5C 239.383,363.574 241.549,366.907 240.5,372.5C 239.636,373.688 238.636,374.855 237.5,376C 246.161,375.669 254.827,375.002 263.5,374C 273.667,365.167 283.833,356.333 294,347.5C 293.866,343.203 292.533,339.203 290,335.5C 288.419,340.707 284.919,343.041 279.5,342.5C 275.686,339.848 274.519,336.181 276,331.5C 276.903,330.299 278.069,329.465 279.5,329C 281.995,328.843 284.328,328.676 286.5,328.5C 284.88,325.596 283.547,322.596 282.5,319.5 Z"/></g>
<g><path style="opacity:1" fill="#fed1c1" d="M 295.5,322.5 C 298.193,323.847 300.86,325.18 303.5,326.5C 306.409,332.73 310.409,338.063 315.5,342.5C 314.624,342.369 313.957,342.702 313.5,343.5C 317.305,349.145 320.471,355.145 323,361.5C 322.785,364.811 322.785,368.144 323,371.5C 323.66,373.324 324.827,374.657 326.5,375.5C 326.067,378.195 324.734,380.362 322.5,382C 290.49,383.734 258.49,385.734 226.5,388C 212.5,388.333 198.5,388.667 184.5,389C 185.056,389.383 185.389,389.883 185.5,390.5C 182.703,390.033 181.369,388.367 181.5,385.5C 227.353,385.391 273.02,382.391 318.5,376.5C 319.167,375.833 319.833,375.167 320.5,374.5C 316.564,367.959 313.73,360.959 312,353.5C 305.951,343.399 300.451,333.065 295.5,322.5 Z"/></g>
<g><path style="opacity:1" fill="#ffc7b5" d="M 289.5,362.5 C 296.821,363.319 298.154,366.486 293.5,372C 286.075,371.484 284.742,368.318 289.5,362.5 Z"/></g>
<g><path style="opacity:1" fill="#ffaa92" d="M 352.5,369.5 C 362.274,370.918 370.774,374.918 378,381.5C 380.291,384.835 379.791,387.668 376.5,390C 369.036,392.593 361.369,394.093 353.5,394.5C 351.143,394.663 348.81,394.497 346.5,394C 354.222,391.719 356.389,386.886 353,379.5C 351.421,376.006 349.587,372.673 347.5,369.5C 349.095,368.566 350.761,368.566 352.5,369.5 Z"/></g>
<g><path style="opacity:1" fill="#9c4834" d="M 204.5,370.5 C 200.999,371.8 197.333,372.966 193.5,374C 191.416,374.697 189.749,375.864 188.5,377.5C 186.833,378.167 185.167,378.833 183.5,379.5C 155.328,379.831 127.328,379.498 99.5,378.5C 127.508,378.833 155.508,378.5 183.5,377.5C 184.641,376.575 184.641,375.741 183.5,375C 150.5,374.333 117.5,374.333 84.5,375C 85.4158,375.278 86.0825,375.778 86.5,376.5C 79.9632,375.325 73.9632,372.992 68.5,369.5C 95.3383,368.771 122.338,368.104 149.5,367.5C 167.864,368.079 186.197,369.079 204.5,370.5 Z"/></g>
<g><path style="opacity:1" fill="#fed9cc" d="M 287.5,319.5 C 290.327,320.108 292.993,321.108 295.5,322.5C 300.451,333.065 305.951,343.399 312,353.5C 313.73,360.959 316.564,367.959 320.5,374.5C 319.833,375.167 319.167,375.833 318.5,376.5C 273.02,382.391 227.353,385.391 181.5,385.5C 181.062,385.565 180.728,385.399 180.5,385C 181.066,384.005 181.733,383.172 182.5,382.5C 222.072,382.758 261.405,379.924 300.5,374C 303.833,371.333 307.167,368.667 310.5,366C 309.296,361.126 307.296,356.626 304.5,352.5C 302.925,351.554 301.258,351.554 299.5,352.5C 297.971,352.471 296.804,351.804 296,350.5C 294.385,345.91 295.885,343.077 300.5,342C 296.758,333.996 292.424,326.496 287.5,319.5 Z"/></g>
<g><path style="opacity:1" fill="#ffc4b1" d="M 206.5,394.5 C 199.286,394.132 192.286,392.798 185.5,390.5C 185.389,389.883 185.056,389.383 184.5,389C 198.5,388.667 212.5,388.333 226.5,388C 258.49,385.734 290.49,383.734 322.5,382C 324.734,380.362 326.067,378.195 326.5,375.5C 331.558,376.283 335.058,374.283 337,369.5C 338.366,371.37 339.533,373.37 340.5,375.5C 339.385,376.598 339.385,377.765 340.5,379C 338.452,383.355 334.785,386.689 329.5,389C 290.82,389.953 252.154,391.286 213.5,393C 210.964,393.186 208.631,393.686 206.5,394.5 Z"/></g>
<g><path style="opacity:1" fill="#893f2e" d="M 99.5,378.5 C 95.0164,378.574 90.683,377.907 86.5,376.5C 86.0825,375.778 85.4158,375.278 84.5,375C 117.5,374.333 150.5,374.333 183.5,375C 184.641,375.741 184.641,376.575 183.5,377.5C 155.508,378.5 127.508,378.833 99.5,378.5 Z"/></g>
<g><path style="opacity:1" fill="#ffb6a0" d="M 315.5,342.5 C 322.933,344.274 329.933,347.108 336.5,351C 340.412,355.077 343.745,359.577 346.5,364.5C 348.571,366.185 350.571,367.852 352.5,369.5C 350.761,368.566 349.095,368.566 347.5,369.5C 349.587,372.673 351.421,376.006 353,379.5C 356.389,386.886 354.222,391.719 346.5,394C 348.81,394.497 351.143,394.663 353.5,394.5C 351.031,395.317 348.365,395.817 345.5,396C 301.833,396.667 258.167,396.667 214.5,396C 211.635,395.817 208.969,395.317 206.5,394.5C 208.631,393.686 210.964,393.186 213.5,393C 252.154,391.286 290.82,389.953 329.5,389C 334.785,386.689 338.452,383.355 340.5,379C 339.385,377.765 339.385,376.598 340.5,375.5C 339.533,373.37 338.366,371.37 337,369.5C 335.058,374.283 331.558,376.283 326.5,375.5C 324.827,374.657 323.66,373.324 323,371.5C 322.785,368.144 322.785,364.811 323,361.5C 320.471,355.145 317.305,349.145 313.5,343.5C 313.957,342.702 314.624,342.369 315.5,342.5 Z"/></g>
</svg>
