<?xml version="1.0" encoding="UTF-8"?>
<!DOCTYPE svg PUBLIC "-//W3C//DTD SVG 1.1//EN" "http://www.w3.org/Graphics/SVG/1.1/DTD/svg11.dtd">
<svg xmlns="http://www.w3.org/2000/svg" version="1.1" width="512px" height="512px" style="shape-rendering:geometricPrecision; text-rendering:geometricPrecision; image-rendering:optimizeQuality; fill-rule:evenodd; clip-rule:evenodd" xmlns:xlink="http://www.w3.org/1999/xlink">
<g><path style="opacity:0.939" fill="#fea730" d="M 171.5,237.5 C 171.305,234.044 171.305,230.378 171.5,226.5C 205.343,237.532 235.343,231.199 261.5,207.5C 263.167,206.5 264.5,205.167 265.5,203.5C 279.964,188.133 287.631,169.8 288.5,148.5C 288.5,146.167 288.5,143.833 288.5,141.5C 287.963,119.777 280.296,101.11 265.5,85.5C 264.473,83.8058 263.139,82.4725 261.5,81.5C 240.976,62.4407 216.642,54.6073 188.5,58C 150.082,65.7515 125.915,88.5848 116,126.5C 110.368,165.539 123.534,196.206 155.5,218.5C 151.767,220.411 147.767,221.744 143.5,222.5C 112.263,197.65 99.7626,165.317 106,125.5C 118.97,76.208 150.97,49.8746 202,46.5C 251.638,50.1498 283.305,75.8165 297,123.5C 304.027,164.772 291.193,198.272 258.5,224C 231.617,241.702 202.617,246.202 171.5,237.5 Z"/></g>
<g><path style="opacity:1" fill="#ffd450" d="M 261.5,81.5 C 263.139,82.4725 264.473,83.8058 265.5,85.5C 265.662,87.5273 265.495,89.5273 265,91.5C 254.667,101.833 244.333,112.167 234,122.5C 233.333,123.833 233.333,125.167 234,126.5C 235.977,129.589 237.477,132.923 238.5,136.5C 253.489,137.333 268.489,137.833 283.5,138C 285.584,138.697 287.251,139.864 288.5,141.5C 288.5,143.833 288.5,146.167 288.5,148.5C 287.118,149.801 285.452,150.634 283.5,151C 268.5,151.333 253.5,151.667 238.5,152C 237.396,156.755 235.396,161.088 232.5,165C 243.333,175.833 254.167,186.667 265,197.5C 265.495,199.473 265.662,201.473 265.5,203.5C 264.5,205.167 263.167,206.5 261.5,207.5C 259.011,207.702 256.677,207.202 254.5,206C 244,195.5 233.5,185 223,174.5C 218.958,177.439 214.458,179.106 209.5,179.5C 209.667,194.837 209.5,210.17 209,225.5C 207.427,230.035 204.261,231.535 199.5,230C 198.667,229.167 197.833,228.333 197,227.5C 196.833,211.823 196.333,196.156 195.5,180.5C 190.793,179.266 186.46,177.266 182.5,174.5C 171.347,185.152 160.347,195.986 149.5,207C 140.439,207.288 137.939,203.455 142,195.5C 152.348,185.319 162.514,174.986 172.5,164.5C 169.852,160.557 168.185,156.223 167.5,151.5C 152.163,151.667 136.83,151.5 121.5,151C 114.833,146.667 114.833,142.333 121.5,138C 136.83,137.5 152.163,137.333 167.5,137.5C 167.788,132.638 169.454,128.304 172.5,124.5C 162.181,113.681 151.681,103.014 141,92.5C 138.523,88.2204 139.356,84.7204 143.5,82C 145.971,81.2937 148.305,81.627 150.5,83C 161.014,93.6809 171.681,104.181 182.5,114.5C 186.619,111.628 191.119,109.628 196,108.5C 196.333,92.8333 196.667,77.1667 197,61.5C 201.399,57.3455 205.399,57.6789 209,62.5C 209.5,78.1631 209.667,93.8298 209.5,109.5C 214.328,110.276 218.828,111.943 223,114.5C 233.863,103.303 245.029,92.47 256.5,82C 258.134,81.5065 259.801,81.3398 261.5,81.5 Z"/></g>
<g><path style="opacity:0.986" fill="#be6b0d" d="M 374.5,64.5 C 391.607,72.6813 400.773,86.3479 402,105.5C 402.5,113.493 402.666,121.493 402.5,129.5C 385.254,148.248 367.42,166.582 349,184.5C 348.04,154.46 348.373,124.46 350,94.5C 354.641,81.5113 362.808,71.5113 374.5,64.5 Z"/></g>
<g><path style="opacity:1" fill="#feb74a" d="M 261.5,81.5 C 259.801,81.3398 258.134,81.5065 256.5,82C 245.029,92.47 233.863,103.303 223,114.5C 218.828,111.943 214.328,110.276 209.5,109.5C 209.667,93.8298 209.5,78.1631 209,62.5C 205.399,57.6789 201.399,57.3455 197,61.5C 196.667,77.1667 196.333,92.8333 196,108.5C 191.119,109.628 186.619,111.628 182.5,114.5C 171.681,104.181 161.014,93.6809 150.5,83C 148.305,81.627 145.971,81.2937 143.5,82C 139.356,84.7204 138.523,88.2204 141,92.5C 151.681,103.014 162.181,113.681 172.5,124.5C 169.454,128.304 167.788,132.638 167.5,137.5C 152.163,137.333 136.83,137.5 121.5,138C 114.833,142.333 114.833,146.667 121.5,151C 136.83,151.5 152.163,151.667 167.5,151.5C 168.185,156.223 169.852,160.557 172.5,164.5C 162.514,174.986 152.348,185.319 142,195.5C 137.939,203.455 140.439,207.288 149.5,207C 160.347,195.986 171.347,185.152 182.5,174.5C 186.46,177.266 190.793,179.266 195.5,180.5C 196.333,196.156 196.833,211.823 197,227.5C 197.833,228.333 198.667,229.167 199.5,230C 204.261,231.535 207.427,230.035 209,225.5C 209.5,210.17 209.667,194.837 209.5,179.5C 214.458,179.106 218.958,177.439 223,174.5C 233.5,185 244,195.5 254.5,206C 256.677,207.202 259.011,207.702 261.5,207.5C 235.343,231.199 205.343,237.532 171.5,226.5C 170.758,224.574 169.758,222.741 168.5,221C 164.379,219.101 160.046,218.268 155.5,218.5C 123.534,196.206 110.368,165.539 116,126.5C 125.915,88.5848 150.082,65.7515 188.5,58C 216.642,54.6073 240.976,62.4407 261.5,81.5 Z"/></g>
<g><path style="opacity:1" fill="#a56020" d="M 368.5,86.5 C 383.837,84.6806 391.337,91.3473 391,106.5C 387.725,116.392 380.891,120.558 370.5,119C 359.241,113.559 356.074,105.059 361,93.5C 363.396,90.9334 365.896,88.6 368.5,86.5 Z"/></g>
<g><path style="opacity:1" fill="#ffb74a" d="M 265.5,85.5 C 280.296,101.11 287.963,119.777 288.5,141.5C 287.251,139.864 285.584,138.697 283.5,138C 268.489,137.833 253.489,137.333 238.5,136.5C 237.477,132.923 235.977,129.589 234,126.5C 233.333,125.167 233.333,123.833 234,122.5C 244.333,112.167 254.667,101.833 265,91.5C 265.495,89.5273 265.662,87.5273 265.5,85.5 Z"/></g>
<g><path style="opacity:1" fill="#a56020" d="M 374.5,64.5 C 362.808,71.5113 354.641,81.5113 350,94.5C 348.373,124.46 348.04,154.46 349,184.5C 367.42,166.582 385.254,148.248 402.5,129.5C 412.298,120.202 421.965,110.702 431.5,101C 450.82,86.9062 470.82,85.9062 491.5,98C 500,104.333 506,112.499 509.5,122.5C 491.209,117.257 474.876,120.757 460.5,133C 393.25,200.75 325.583,267.917 257.5,334.5C 244.509,326.499 230.509,324.333 215.5,328C 208.878,330.313 202.545,333.147 196.5,336.5C 232.465,300.035 268.632,263.701 305,227.5C 305.333,184.5 305.667,141.5 306,98.5C 314.923,68.9442 334.756,56.4442 365.5,61C 368.647,61.8806 371.647,63.0472 374.5,64.5 Z"/></g>
<g><path style="opacity:0.984" fill="#bf6c0d" d="M 509.5,122.5 C 509.875,124.698 510.542,126.698 511.5,128.5C 511.5,134.833 511.5,141.167 511.5,147.5C 509.214,156.403 505.047,164.403 499,171.5C 467,203.5 435,235.5 403,267.5C 402.5,324.499 402.333,381.499 402.5,438.5C 397.99,418.637 386.656,404.137 368.5,395C 361.972,393.058 355.305,392.225 348.5,392.5C 348.667,368.831 348.5,345.164 348,321.5C 333.245,335.752 319.078,350.419 305.5,365.5C 291.833,378.833 278.167,392.167 264.5,405.5C 268.001,399.178 270.834,392.511 273,385.5C 278.673,364.91 273.506,347.91 257.5,334.5C 325.583,267.917 393.25,200.75 460.5,133C 474.876,120.757 491.209,117.257 509.5,122.5 Z"/></g>
<g><path style="opacity:1" fill="#a56020" d="M 476.5,131.5 C 492.74,131.663 499.24,139.663 496,155.5C 490.955,163.409 483.788,166.242 474.5,164C 464.533,157.76 462.033,149.26 467,138.5C 469.825,135.524 472.992,133.191 476.5,131.5 Z"/></g>
<g><path style="opacity:1" fill="#ffb74a" d="M 288.5,148.5 C 287.631,169.8 279.964,188.133 265.5,203.5C 265.662,201.473 265.495,199.473 265,197.5C 254.167,186.667 243.333,175.833 232.5,165C 235.396,161.088 237.396,156.755 238.5,152C 253.5,151.667 268.5,151.333 283.5,151C 285.452,150.634 287.118,149.801 288.5,148.5 Z"/></g>
<g><path style="opacity:0.952" fill="#8c4c17" d="M 143.5,222.5 C 147.767,221.744 151.767,220.411 155.5,218.5C 160.046,218.268 164.379,219.101 168.5,221C 169.758,222.741 170.758,224.574 171.5,226.5C 171.305,230.378 171.305,234.044 171.5,237.5C 167.096,248.796 160.762,258.963 152.5,268C 162.614,269.469 172.614,271.802 182.5,275C 203.918,285.82 203.585,296.154 181.5,306C 171.12,309.483 160.453,311.483 149.5,312C 159.146,322.317 166.312,334.15 171,347.5C 173.327,361.504 167.494,367.004 153.5,364C 141.323,359.665 130.489,353.165 121,344.5C 120.441,358.741 116.774,372.074 110,384.5C 101.232,393.058 93.5656,392.058 87,381.5C 81.4514,368.639 78.118,355.306 77,341.5C 65.9825,353.339 52.4825,360.673 36.5,363.5C 29.1166,363.285 25.1166,359.451 24.5,352C 27.3494,337.133 34.0161,324.3 44.5,313.5C 30.7387,312.19 17.7387,308.357 5.5,302C 3.26589,299.937 1.26589,297.771 -0.5,295.5C -0.5,292.833 -0.5,290.167 -0.5,287.5C 7.01574,278.736 16.6824,273.569 28.5,272C 34.8623,271.145 41.1956,270.145 47.5,269C 38.5948,260.532 31.9281,250.532 27.5,239C 21.7591,219.075 28.7591,212.409 48.5,219C 58.5978,223.46 67.7644,229.293 76,236.5C 76.6756,225.454 79.0089,214.787 83,204.5C 93.9351,185.443 103.935,186.11 113,206.5C 116.445,217.296 118.778,228.296 120,239.5C 127.459,233.2 135.292,227.533 143.5,222.5 Z"/></g>
<g><path style="opacity:1" fill="#e48c22" d="M 409.5,221.5 C 417.767,223.088 419.6,227.422 415,234.5C 379.167,270.333 343.333,306.167 307.5,342C 299.59,345.31 295.756,342.81 296,334.5C 333.728,296.605 371.562,258.938 409.5,221.5 Z"/></g>
<g><path style="opacity:1" fill="#a45f20" d="M 96.5,202.5 C 98.0744,202.937 99.2411,203.937 100,205.5C 104.584,215.652 107.25,226.319 108,237.5C 108.333,246.833 108.667,256.167 109,265.5C 120.712,252.778 133.878,241.944 148.5,233C 152.327,231.21 156.327,230.044 160.5,229.5C 159.768,235.974 157.601,241.974 154,247.5C 146.571,258.499 138.071,268.665 128.5,278C 145.872,278.396 162.872,281.062 179.5,286C 187.581,289.565 187.248,292.565 178.5,295C 173.543,296.489 168.543,297.822 163.5,299C 150.529,300.312 137.529,301.312 124.5,302C 139.365,315.251 151.198,330.751 160,348.5C 160.494,350.134 160.66,351.801 160.5,353.5C 152.848,352.343 145.848,349.51 139.5,345C 129.728,337.731 120.394,329.898 111.5,321.5C 111.038,337.755 108.872,353.755 105,369.5C 103.667,372.167 102.333,374.833 101,377.5C 100.282,378.451 99.4491,378.617 98.5,378C 92.516,366.627 89.3494,354.461 89,341.5C 88.6667,333.167 88.3333,324.833 88,316.5C 76.0382,328.135 63.2049,338.635 49.5,348C 45.4671,350.354 41.1338,351.52 36.5,351.5C 37.3238,344.533 39.8238,338.2 44,332.5C 51.6033,322.393 59.77,312.727 68.5,303.5C 56.1708,302.26 43.8375,301.093 31.5,300C 23.983,298.966 17.3164,296.133 11.5,291.5C 12.9242,289.282 14.9242,287.782 17.5,287C 23.0794,285.083 28.7461,283.416 34.5,282C 47.1462,280.984 59.8129,280.151 72.5,279.5C 60.7098,267.879 50.2098,255.212 41,241.5C 38.4559,237.107 37.1226,232.44 37,227.5C 45.183,229.508 52.683,233.008 59.5,238C 68.3143,245.313 76.981,252.813 85.5,260.5C 86.2503,249.491 87.0836,238.491 88,227.5C 89.556,218.664 92.3893,210.331 96.5,202.5 Z"/></g>
<g><path style="opacity:1" fill="#8c4c17" d="M 96.5,246.5 C 100.17,246.327 102.67,247.993 104,251.5C 105.793,257.041 107.126,262.708 108,268.5C 112.064,264.214 116.897,261.048 122.5,259C 128.589,257.27 131.422,259.437 131,265.5C 129.193,271.118 126.36,276.118 122.5,280.5C 127.916,281.688 133.25,283.188 138.5,285C 144.125,289.861 143.459,293.861 136.5,297C 131.322,298.798 125.989,299.798 120.5,300C 126.876,305.904 130.042,313.071 130,321.5C 129.044,322.894 127.711,323.561 126,323.5C 119.517,322.091 113.851,319.091 109,314.5C 108.046,319.604 106.713,324.604 105,329.5C 101,337.5 97,337.5 93,329.5C 91.2685,324.65 90.2685,319.65 90,314.5C 89.586,314.043 89.086,313.709 88.5,313.5C 82.7882,319.695 75.7882,322.528 67.5,322C 66.3832,318.927 66.2165,315.76 67,312.5C 69.1267,308.411 71.6267,304.577 74.5,301C 67.2478,300.253 60.7478,297.753 55,293.5C 54.1041,290.975 54.6041,288.808 56.5,287C 62.4887,283.782 68.822,281.615 75.5,280.5C 69.3171,274.808 66.4838,267.808 67,259.5C 70.0731,258.383 73.2397,258.216 76.5,259C 80.5894,261.127 84.4228,263.627 88,266.5C 88.9539,261.396 90.2872,256.396 92,251.5C 93.0591,249.341 94.5591,247.674 96.5,246.5 Z"/></g>
<g><path style="opacity:1" fill="#e48c22" d="M 393.5,275.5 C 394.664,305.664 394.831,335.997 394,366.5C 392.551,371.218 389.385,372.718 384.5,371C 383.667,370.167 382.833,369.333 382,368.5C 381.333,341.5 381.333,314.5 382,287.5C 386.037,283.631 389.87,279.631 393.5,275.5 Z"/></g>
<g><path style="opacity:1" fill="#a56020" d="M 348.5,392.5 C 331.968,395.523 319.802,404.523 312,419.5C 309.21,425.054 307.043,430.721 305.5,436.5C 305.5,412.833 305.5,389.167 305.5,365.5C 319.078,350.419 333.245,335.752 348,321.5C 348.5,345.164 348.667,368.831 348.5,392.5 Z"/></g>
<g><path style="opacity:0.984" fill="#e48c22" d="M 257.5,334.5 C 273.506,347.91 278.673,364.91 273,385.5C 270.834,392.511 268.001,399.178 264.5,405.5C 259.423,413.243 252.756,419.243 244.5,423.5C 240.558,421.062 237.058,418.062 234,414.5C 233.297,412.071 233.463,409.738 234.5,407.5C 245.003,402.817 251.836,394.817 255,383.5C 258.109,356.274 245.942,343.774 218.5,346C 207.237,349.444 198.904,356.278 193.5,366.5C 191.257,368.638 188.924,368.804 186.5,367C 183.02,364.201 180.353,360.867 178.5,357C 182.511,348.485 188.511,341.652 196.5,336.5C 202.545,333.147 208.878,330.313 215.5,328C 230.509,324.333 244.509,326.499 257.5,334.5 Z"/></g>
<g><path style="opacity:0.984" fill="#8c4c17" d="M 234.5,407.5 C 221.167,393.5 207.5,379.833 193.5,366.5C 198.904,356.278 207.237,349.444 218.5,346C 245.942,343.774 258.109,356.274 255,383.5C 251.836,394.817 245.003,402.817 234.5,407.5 Z"/></g>
<g><path style="opacity:0.983" fill="#e48c22" d="M 348.5,392.5 C 355.305,392.225 361.972,393.058 368.5,395C 386.656,404.137 397.99,418.637 402.5,438.5C 402.91,447.25 402.41,455.916 401,464.5C 395.333,467.167 389.667,467.167 384,464.5C 383.51,463.207 383.343,461.873 383.5,460.5C 387.669,441.705 382.002,426.872 366.5,416C 344.066,409.641 329.566,417.808 323,440.5C 322.071,447.418 322.571,454.085 324.5,460.5C 324.318,463.703 322.652,465.536 319.5,466C 314.96,466.947 310.626,466.447 306.5,464.5C 304.238,455.254 303.905,445.92 305.5,436.5C 307.043,430.721 309.21,425.054 312,419.5C 319.802,404.523 331.968,395.523 348.5,392.5 Z"/></g>
<g><path style="opacity:0.981" fill="#8c4c17" d="M 383.5,460.5 C 363.833,460.5 344.167,460.5 324.5,460.5C 322.571,454.085 322.071,447.418 323,440.5C 329.566,417.808 344.066,409.641 366.5,416C 382.002,426.872 387.669,441.705 383.5,460.5 Z"/></g>
</svg>
